<svg width="30" height="30" viewBox="0 0 30 30" fill="none" xmlns="http://www.w3.org/2000/svg">
<path fill-rule="evenodd" clip-rule="evenodd" d="M25.5244 6.75H22.9994V4.225C22.9994 3.55 22.4494 3 21.7744 3H21.7369C21.0494 3 20.4994 3.55 20.4994 4.225V6.75H17.9869C17.3119 6.75 16.7619 7.3 16.7494 7.975V8.01249C16.7494 8.7 17.2994 9.25 17.9869 9.25H20.4994V11.7625C20.4994 12.4375 21.0494 13 21.7369 12.9875H21.7744C22.4494 12.9875 22.9994 12.4375 22.9994 11.7625V9.25H25.5244C26.1995 9.25 26.7495 8.7 26.7495 8.025V7.975C26.7495 7.3 26.1995 6.75 25.5244 6.75ZM19.25 11.7625V10.5H17.9875C17.325 10.5 16.7 10.2375 16.225 9.775C15.7625 9.3 15.5 8.675 15.5 7.975C15.5 7.525 15.625 7.11249 15.8375 6.75H5.5C4.125 6.75 3 7.875 3 9.25V24.25C3 25.625 4.125 26.7499 5.5 26.7499H20.5C21.875 26.7499 23 25.625 23 24.25V13.9C22.625 14.1125 22.2 14.25 21.725 14.25C20.3625 14.2375 19.25 13.125 19.25 11.7625ZM6.74917 24.2502H19.1992C19.7242 24.2502 20.0117 23.6502 19.6867 23.2377L15.9992 18.6377C15.7492 18.3127 15.2617 18.3252 15.0117 18.6502L11.7492 23.0002L9.74917 19.9877C9.49917 19.6377 8.98668 19.6127 8.72417 19.9627L6.24917 23.2502C5.93668 23.6627 6.23668 24.2502 6.74917 24.2502Z" fill="#333333"/>
</svg>
