<svg width="30" height="30" viewBox="0 0 30 30" fill="none" xmlns="http://www.w3.org/2000/svg">
<rect width="30" height="30" fill="white"/>
<path d="M24.4648 14.8145C24.4648 14.5232 24.2288 14.2871 23.9375 14.2871C23.6462 14.2871 23.4102 14.5232 23.4102 14.8145C23.4102 16.5592 21.9909 17.9785 20.2461 17.9785C19.9548 17.9785 19.7188 18.2146 19.7188 18.5059C19.7188 18.7971 19.9548 19.0332 20.2461 19.0332C22.5724 19.0332 24.4648 17.1407 24.4648 14.8145Z" fill="black"/>
<path d="M13.4784 19.9546C13.1997 20.375 10.7539 24.1081 10.7539 25.6777C10.7539 27.4785 12.2029 29 13.918 29C15.6331 29 17.082 27.4785 17.082 25.6777C17.082 24.1081 14.6363 20.375 14.3576 19.9546C14.2597 19.8073 14.0947 19.7188 13.918 19.7188C13.7412 19.7188 13.5762 19.8073 13.4784 19.9546ZM16.0273 25.6777C16.0273 26.8857 15.0417 27.9453 13.918 27.9453C12.7943 27.9453 11.8086 26.8857 11.8086 25.6777C11.8086 24.8651 12.9669 22.7442 13.918 21.2215C14.869 22.7442 16.0273 24.8651 16.0273 25.6777Z" fill="black"/>
<path d="M8.11719 10.7539C7.94395 10.7539 7.78183 10.839 7.68336 10.9815C7.34986 11.4642 4.42578 15.7511 4.42578 17.6094C4.42578 19.6448 6.08176 21.3008 8.11719 21.3008C10.1526 21.3008 11.8086 19.6448 11.8086 17.6094C11.8086 15.7511 8.88451 11.4642 8.55101 10.9815C8.45255 10.839 8.29043 10.7539 8.11719 10.7539ZM8.11719 20.2461C6.66328 20.2461 5.48047 19.0633 5.48047 17.6094C5.48047 16.5895 6.95518 14.0004 8.11719 12.2268C9.2792 14.0002 10.7539 16.5889 10.7539 17.6094C10.7539 19.0633 9.57109 20.2461 8.11719 20.2461Z" fill="black"/>
<path d="M14.9727 14.2871C14.9727 14.5784 14.7366 14.8145 14.4453 14.8145C14.154 14.8145 13.918 14.5784 13.918 14.2871C13.918 13.9958 14.154 13.7598 14.4453 13.7598C14.7366 13.7598 14.9727 13.9958 14.9727 14.2871Z" fill="black"/>
<path d="M20.6906 2.24348C20.5936 2.09187 20.4261 2 20.2461 2C20.0661 2 19.8986 2.09187 19.8016 2.24348C19.6497 2.48141 16.0653 8.11327 14.5689 12.0838C14.4661 12.3563 14.6039 12.6606 14.8765 12.7632C15.1488 12.866 15.453 12.7284 15.5558 12.4558C16.7082 9.39764 19.2264 5.18034 20.2475 3.52168C22.0504 6.4371 25.5195 12.5209 25.5195 14.8145C25.5195 17.7223 23.1539 20.0879 20.2461 20.0879C17.8918 20.0879 15.8038 18.5069 15.1684 16.243C15.0897 15.9627 14.7986 15.7991 14.518 15.8778C14.2377 15.9565 14.0743 16.2478 14.1528 16.5281C14.9156 19.245 17.4213 21.1426 20.2461 21.1426C23.7354 21.1426 26.5742 18.3038 26.5742 14.8145C26.5742 11.9077 22.1948 4.59531 20.6906 2.24348Z" fill="black"/>
</svg>
