<svg width="30" height="30" viewBox="0 0 30 30" fill="none" xmlns="http://www.w3.org/2000/svg">
<rect width="30" height="30" fill="white"/>
<g clip-path="url(#clip0)">
<path d="M27.6878 19.2069L27.5528 18.7899L24.9783 18.1452C24.9942 17.9116 25.0014 17.6772 25.0014 17.4405C25.0014 14.4387 23.7121 11.5748 21.4643 9.58284L20.4153 10.7663C22.3251 12.4583 23.42 14.8911 23.42 17.4405C23.42 17.5453 23.4185 17.6498 23.4142 17.7536L21.7426 17.335C21.7189 15.6941 21.1349 14.1005 20.0907 12.8353L18.8708 13.8422C19.5961 14.7203 20.0373 15.803 20.1397 16.9337L18.436 16.5073C18.252 15.7303 17.8423 15.0392 17.2803 14.5073L19.8707 5.47058L19.5778 5.14532C18.322 3.74992 16.4728 2.94922 14.505 2.94922C12.5371 2.94922 10.6885 3.74992 9.43278 5.14532L9.13965 5.47058L9.8699 8.01873C9.29683 8.30176 8.74641 8.63918 8.22463 9.02974C6.46132 10.3481 5.13184 12.227 4.4809 14.3193L5.99104 14.7889C6.70955 12.4779 8.28725 10.6344 10.3122 9.56162L10.7897 11.2285C10.1676 11.6008 9.5984 12.0671 9.10608 12.6182L10.2852 13.6718C10.574 13.3486 10.8968 13.0625 11.2451 12.8178L11.7296 14.5079C11.1708 15.0371 10.7623 15.7239 10.5773 16.4962L8.87186 16.9185C8.93036 16.2655 9.10072 15.636 9.38067 15.0402L7.9488 14.3683C7.51354 15.2959 7.28427 16.2869 7.26738 17.3154L1.45402 18.7545L1.31786 19.171C0.73387 20.9553 0.961699 22.957 1.94264 24.6632C2.92358 26.3691 4.53878 27.5731 6.37439 27.9663L6.80286 28.058L8.65062 26.1526C10.3717 27.31 12.4069 27.9363 14.505 27.9363C15.2292 27.9363 15.9525 27.8625 16.6551 27.7161L16.3325 26.1678C15.7358 26.2922 15.1213 26.3548 14.505 26.3548C12.7812 26.3548 11.1549 25.8574 9.77597 24.9912L10.9726 23.7571C12.018 24.3443 13.2231 24.6791 14.505 24.6791V23.0977C13.6542 23.0977 12.8471 22.909 12.1229 22.5705L13.3448 21.3096C13.7121 21.4203 14.1016 21.4798 14.505 21.4798C14.9046 21.4798 15.2904 21.4219 15.6552 21.3127L22.1787 28.0786L22.6071 27.988C24.4438 27.6001 26.0627 26.4002 27.0479 24.697C28.0336 22.9939 28.2666 20.9928 27.6878 19.2069ZM17.1007 20.5331C17.8108 19.9365 18.3136 19.1004 18.4827 18.1493L26.2967 20.1056C26.5818 21.3581 26.3647 22.7203 25.6793 23.9052C24.9936 25.0898 23.9214 25.9569 22.693 26.3338L17.1007 20.5331ZM10.9073 5.89926C11.8487 5.02522 13.1366 4.53063 14.505 4.53063C15.874 4.53063 17.1619 5.02522 18.1027 5.89926L15.8835 13.643C15.4534 13.4858 14.9889 13.4003 14.505 13.4003C14.0211 13.4003 13.5566 13.4858 13.1265 13.643L10.9073 5.89926ZM6.29323 26.3116C5.06592 25.9315 3.99578 25.0612 3.31374 23.8747C2.63169 22.6882 2.41766 21.3255 2.70647 20.0739L10.5262 18.1384C10.6926 19.0903 11.193 19.928 11.902 20.5263L6.29323 26.3116ZM12.0468 17.4405C12.0468 16.0846 13.1497 14.9817 14.505 14.9817C15.8608 14.9817 16.9635 16.0846 16.9635 17.4405C16.9635 18.7957 15.8608 19.8984 14.505 19.8984C13.1497 19.8986 12.0468 18.7957 12.0468 17.4405Z" fill="black" stroke="white" stroke-width="0.7"/>
</g>
<defs>
<clipPath id="clip0">
<rect x="1" y="2" width="27" height="27" fill="white"/>
</clipPath>
</defs>
</svg>
