<svg width="30" height="30" viewBox="0 0 30 30" fill="none" xmlns="http://www.w3.org/2000/svg">
<rect width="30" height="30" fill="white"/>
<path d="M28.5627 10.8314H27.9866V8.6901C27.9866 7.42424 26.9568 6.3944 25.6909 6.3944H17.3709C16.5996 6.3944 15.9165 6.77712 15.5 7.36216C15.0835 6.77707 14.4004 6.3944 13.6291 6.3944H8.40219C8.16759 6.3944 7.97739 6.5846 7.97739 6.81921C7.97739 7.05381 8.16759 7.24401 8.40219 7.24401H13.6291C14.4265 7.24401 15.0752 7.89272 15.0752 8.6901V12.9387C15.0663 12.9302 15.0569 12.9222 15.0479 12.9137C14.5444 12.4442 13.8619 12.1736 13.173 12.1736H6.09703C6.05959 11.6032 5.67076 11.1016 5.1342 10.9114C4.98303 10.8578 4.82319 10.8314 4.66284 10.8314H3.86301V8.6901C3.86301 7.89272 4.51172 7.24401 5.30911 7.24401H6.70297C6.93758 7.24401 7.12778 7.05381 7.12778 6.81921C7.12778 6.5846 6.93758 6.3944 6.70297 6.3944H5.30911C4.04324 6.3944 3.0134 7.42424 3.0134 8.6901V10.8314H2.43726C1.64474 10.8314 1 11.4763 1 12.2687V16.7042C1 18.3546 2.34272 19.6974 3.99312 19.6974H4.2066C4.2066 19.6974 3.74146 20.9484 3.74112 20.9494C3.44767 21.7386 4.05168 22.6056 4.89234 22.6056H5.57577C5.95832 22.6056 6.3245 22.4235 6.55531 22.1183L8.38656 19.6974H22.6136L24.4448 22.1184C24.6756 22.4235 25.0418 22.6056 25.4243 22.6056C25.4243 22.6056 26.1073 22.6056 26.1077 22.6056C26.9493 22.6056 27.5523 21.7385 27.2589 20.9494L26.7933 19.6974H27.0069C28.6573 19.6974 30 18.3546 30 16.7042V12.2687C30 11.4763 29.3553 10.8314 28.5627 10.8314ZM15.9248 8.69022C15.9248 7.89277 16.5735 7.24407 17.3709 7.24407H25.6909C26.4883 7.24407 27.137 7.89277 27.137 8.69016V10.8315C27.137 10.8315 26.3374 10.8315 26.3371 10.8315C25.7723 10.8315 25.2305 11.194 25.0114 11.714C24.95 11.8597 24.9133 12.0161 24.903 12.1737C24.903 12.1737 17.8272 12.1737 17.827 12.1737C17.1275 12.1737 16.4303 12.4552 15.9248 12.9388V8.69022ZM6.10015 13.0233H13.173C14.2219 13.0233 15.0752 13.8766 15.0752 14.9255V15.5296H6.10015V13.0233ZM5.87772 21.6058C5.80658 21.6999 5.69364 21.756 5.57571 21.756C5.57571 21.756 4.89467 21.756 4.89229 21.756C4.63219 21.756 4.44681 21.4892 4.53743 21.2455L5.11302 19.6974H7.32121L5.87772 21.6058ZM26.1077 21.756H25.4243C25.3064 21.756 25.1935 21.6998 25.1223 21.6058L23.6788 19.6974H25.887C25.887 19.6974 26.4606 21.2401 26.4626 21.2455C26.5534 21.4897 26.3667 21.756 26.1077 21.756ZM27.0069 18.8477H3.99312C2.8112 18.8478 1.84961 17.8862 1.84961 16.7042V12.2687C1.84961 11.9446 2.11321 11.681 2.43726 11.681H4.66284C4.98688 11.681 5.25048 11.9446 5.25048 12.2687V15.9543C5.25048 16.1889 5.44068 16.3791 5.67529 16.3791H21.2785C21.5131 16.3791 21.7033 16.1889 21.7033 15.9543C21.7033 15.7197 21.5131 15.5295 21.2785 15.5295H15.9248V14.9254C15.9248 13.8766 16.7781 13.0233 17.827 13.0233H24.8999V15.5296H22.9777C22.7431 15.5296 22.5529 15.7198 22.5529 15.9544C22.5529 16.189 22.7431 16.3792 22.9777 16.3792H25.3247C25.5593 16.3792 25.7495 16.189 25.7495 15.9544V12.2687C25.7495 11.9447 26.0131 11.6811 26.3371 11.6811H28.5627C28.8867 11.6811 29.1503 11.9447 29.1503 12.2687V16.7042H29.1504C29.1504 17.8862 28.1888 18.8477 27.0069 18.8477Z" fill="black"/>
</svg>
