<svg width="30" height="30" viewBox="0 0 30 30" fill="none" xmlns="http://www.w3.org/2000/svg">
<path fill-rule="evenodd" clip-rule="evenodd" d="M2.29289 16.7071C2.19702 16.6112 2.12468 16.5007 2.07588 16.3828C2.02735 16.2657 2.0004 16.1375 2 16.003L2 16.0015L2 16L2 15.9985L2 15.997C2.00038 15.8695 2.02498 15.7421 2.0738 15.6223C2.12261 15.5024 2.19564 15.3901 2.29289 15.2929C2.29307 15.2927 2.29325 15.2925 2.29342 15.2924L10.2929 7.29289C10.6834 6.90237 11.3166 6.90237 11.7071 7.29289C12.0976 7.68342 12.0976 8.31658 11.7071 8.70711L5.41421 15L21 15C21.5523 15 22 15.4477 22 16C22 16.5523 21.5523 17 21 17L5.41422 17L11.7071 23.2929C12.0976 23.6834 12.0976 24.3166 11.7071 24.7071C11.3166 25.0976 10.6834 25.0976 10.2929 24.7071L2.29423 16.7084M25 15C24.4477 15 24 15.4477 24 16C24 16.5523 24.4477 17 25 17H28C28.5523 17 29 16.5523 29 16C29 15.4477 28.5523 15 28 15L25 15Z" fill="black"/>
</svg>
