<svg width="30" height="30" viewBox="0 0 30 30" fill="none" xmlns="http://www.w3.org/2000/svg">
<rect width="30" height="30" fill="white"/>
<path d="M26.8125 16.3125H25.9375H8.44209C8.44122 16.3125 8.44034 16.3125 8.43947 16.3125H4.0625H3.1875C2.46377 16.3125 1.875 16.9013 1.875 17.625C1.875 17.8666 2.07089 18.0625 2.3125 18.0625C2.55411 18.0625 2.75 17.8666 2.75 17.625C2.75 17.3838 2.94627 17.1875 3.1875 17.1875H3.54603L2.53032 23.282C2.37665 24.2043 2.5569 25.1537 3.03793 25.9554L3.625 26.9337V28.5078C3.625 28.7792 3.84583 29 4.11719 29H25.8828C26.1542 29 26.375 28.7792 26.375 28.5078V26.9337L26.9621 25.9554C27.4431 25.1537 27.6234 24.2043 27.4697 23.282L26.454 17.1875H26.8125C27.0537 17.1875 27.25 17.3838 27.25 17.625C27.25 17.8666 27.4459 18.0625 27.6875 18.0625C27.9291 18.0625 28.125 17.8666 28.125 17.625C28.125 16.9013 27.5362 16.3125 26.8125 16.3125ZM24.0243 25.5052L23.5023 26.375H22.2087L22.5178 25.6023C22.7576 25.0028 22.8467 24.3467 22.7754 23.7049L22.0513 17.1875H23.3794L24.4191 23.4259C24.5386 24.1432 24.3984 24.8816 24.0243 25.5052ZM19.9549 26.375L20.2466 25.3529C20.3761 24.8994 20.4229 24.4311 20.3856 23.9608L19.8485 17.1875H21.1709L21.9058 23.8016C21.9612 24.3007 21.892 24.811 21.7054 25.2772L21.2663 26.375H19.9549ZM17.6503 26.375L17.7403 24.7753C17.7456 24.6817 17.7475 24.5867 17.746 24.4927L17.6319 17.1875H18.9708L19.5133 24.0299C19.5423 24.3957 19.506 24.76 19.4052 25.1126L19.0449 26.375H17.6503ZM15.4375 26.375V17.1875H16.7568L16.8711 24.5063C16.8723 24.5794 16.8708 24.6534 16.8667 24.7262L16.774 26.375H15.4375ZM13.2235 26.375L13.1211 24.7374C13.1161 24.6563 13.1142 24.5741 13.1156 24.4931L13.2425 17.1875H14.5625V26.375H13.2235ZM6.49768 26.375L5.97574 25.5052C5.60162 24.8817 5.46141 24.1433 5.5809 23.4259L6.62062 17.1875H7.9487L7.22453 23.7049C7.15322 24.3467 7.2423 25.0028 7.48211 25.6023L7.7912 26.375H6.49768ZM8.73369 26.375L8.29455 25.2773C8.10801 24.811 8.03872 24.3008 8.09417 23.8016L8.82912 17.1875H10.1512L9.61066 23.9562C9.57287 24.4297 9.62023 24.9012 9.75148 25.3576L10.044 26.375H8.73369ZM10.9544 26.375L10.5924 25.1158C10.4903 24.7608 10.4534 24.3941 10.4829 24.0258L11.029 17.1875H12.3673L12.2408 24.4779C12.2389 24.582 12.2413 24.6876 12.2479 24.792L12.3468 26.375H10.9544ZM3.3934 23.4259L4.43312 17.1875H5.73359L4.71782 23.282C4.56415 24.2043 4.7444 25.1537 5.22543 25.9554L5.47721 26.375H4.31018L3.78824 25.5052C3.41413 24.8816 3.27391 24.1432 3.3934 23.4259ZM25.5 28.125H4.5V27.25H6.24956C6.24984 27.25 6.25011 27.2501 6.25038 27.2501C6.25066 27.2501 6.25093 27.25 6.2512 27.25H8.43619C8.43668 27.25 8.43712 27.2501 8.43761 27.2501C8.43837 27.2501 8.43914 27.25 8.43991 27.25H10.6235C10.6239 27.25 10.6243 27.2501 10.6248 27.2501C10.6253 27.2501 10.6258 27.25 10.6263 27.25H19.3737C19.3742 27.25 19.3747 27.2501 19.3752 27.2501C19.3757 27.2501 19.3761 27.25 19.3765 27.25H21.5601C21.5609 27.25 21.5616 27.2501 21.5624 27.2501C21.5629 27.2501 21.5633 27.25 21.5638 27.25H23.7488C23.7491 27.25 23.7493 27.2501 23.7496 27.2501C23.7499 27.2501 23.7502 27.25 23.7504 27.25H25.5V28.125ZM26.2118 25.5052L25.6898 26.375H24.5228L24.7746 25.9554C25.2556 25.1537 25.4359 24.2043 25.2822 23.282L24.2665 17.1875H25.5669L26.6066 23.4259C26.7261 24.1432 26.5859 24.8816 26.2118 25.5052Z" fill="black"/>
<path d="M6.6875 15.4375C6.92911 15.4375 7.125 15.2416 7.125 15V1.875H22.875V15C22.875 15.2416 23.0709 15.4375 23.3125 15.4375C23.5541 15.4375 23.75 15.2416 23.75 15V1.875C23.75 1.39255 23.3575 1 22.875 1H7.125C6.64255 1 6.25 1.39255 6.25 1.875V15C6.25 15.2416 6.44589 15.4375 6.6875 15.4375Z" fill="black"/>
<path d="M21.5625 15.4375C21.8041 15.4375 22 15.2416 22 15V3.1875C22 2.94589 21.8041 2.75 21.5625 2.75H8.4375C8.19589 2.75 8 2.94589 8 3.1875V15C8 15.2416 8.19589 15.4375 8.4375 15.4375C8.67911 15.4375 8.875 15.2416 8.875 15V8.4375H13.2499C13.4916 8.4375 13.6874 8.24161 13.6874 8C13.6874 7.75839 13.4916 7.5625 13.2499 7.5625H8.875V3.625H14.5625V15C14.5625 15.2416 14.7584 15.4375 15 15.4375C15.2416 15.4375 15.4375 15.2416 15.4375 15V8.4375H21.125V15C21.125 15.2416 21.3209 15.4375 21.5625 15.4375ZM15.4375 7.5625V3.625H21.125V7.5625H15.4375Z" fill="black"/>
</svg>
