<svg width="30" height="30" viewBox="0 0 30 30" fill="none" xmlns="http://www.w3.org/2000/svg">
<g clip-path="url(#clip0)">
<rect width="30" height="30" fill="white"/>
<rect y="-2" width="29" height="29" rx="6.5" fill="white"/>
<mask id="mask0" mask-type="alpha" maskUnits="userSpaceOnUse" x="0" y="-2" width="29" height="29">
<rect y="-2" width="29" height="29" rx="6.5" fill="white"/>
</mask>
<g mask="url(#mask0)">
<path d="M11.0141 4.51112C10.5688 3.61085 10.2178 2.90016 10.9924 1.73775C11.1582 1.48856 11.0899 1.15274 10.8419 0.986985C10.5959 0.822298 10.2579 0.888416 10.0911 1.13755C8.96875 2.8189 9.56458 4.02361 10.0434 4.99107C10.4908 5.89677 10.8147 6.5511 10.0911 7.63768C9.92427 7.88687 9.99252 8.2227 10.2406 8.38845C10.3327 8.4502 10.4378 8.47945 10.5418 8.47945C10.7162 8.47945 10.8874 8.39495 10.9914 8.23788C12.0628 6.63235 11.4821 5.45582 11.0141 4.51112Z" fill="black"/>
<path d="M15.3302 4.51112C14.8839 3.61085 14.5329 2.90016 15.3074 1.73775C15.4732 1.48856 15.4049 1.15274 15.1569 0.986985C14.9109 0.822298 14.5719 0.888416 14.4061 1.13755C13.2848 2.82002 13.8807 4.02468 14.3584 4.99213C14.8059 5.89783 15.1298 6.55216 14.4061 7.63768C14.2404 7.88687 14.3086 8.2227 14.5567 8.38845C14.6487 8.4502 14.7527 8.47945 14.8567 8.47945C15.0312 8.47945 15.2023 8.39495 15.3074 8.23788C16.3789 6.63235 15.7982 5.45582 15.3302 4.51112Z" fill="black"/>
<path d="M19.6452 4.51112C19.1989 3.61085 18.8479 2.90016 19.6225 1.73775C19.7882 1.48856 19.72 1.15274 19.4719 0.986985C19.226 0.822298 18.8869 0.888416 18.7211 1.13755C17.5999 2.82002 18.1957 4.02468 18.6735 4.99213C19.1209 5.89783 19.4448 6.55216 18.7211 7.63768C18.5554 7.88687 18.6236 8.2227 18.8717 8.38845C18.9638 8.4502 19.0678 8.47945 19.1718 8.47945C19.3473 8.47945 19.5185 8.39495 19.6225 8.23788C20.6939 6.63235 20.1132 5.45582 19.6452 4.51112Z" fill="black"/>
<path d="M24.022 9.56279H5.60492C4.11096 9.56279 2.89655 10.7783 2.89655 12.2712V22.0214C2.89655 23.5142 4.11101 24.7297 5.60492 24.7297H24.022C25.5159 24.7297 26.7304 23.5142 26.7304 22.0214V12.2712C26.7304 10.7783 25.5159 9.56279 24.022 9.56279ZM25.647 22.0214C25.647 22.9174 24.9179 23.6464 24.022 23.6464H5.60492C4.70897 23.6464 3.97989 22.9174 3.97989 22.0214V12.2712C3.97989 11.3753 4.70897 10.6462 5.60492 10.6462H24.022C24.9179 10.6462 25.647 11.3753 25.647 12.2712V22.0214Z" fill="black"/>
<path d="M6.68829 11.7295C6.38929 11.7295 6.1466 11.9722 6.1466 12.2712V22.0214C6.1466 22.3204 6.38929 22.5631 6.68829 22.5631C6.9873 22.5631 7.22999 22.3204 7.22999 22.0214V12.2712C7.22999 11.9722 6.9873 11.7295 6.68829 11.7295Z" fill="black"/>
<path d="M9.93835 11.7295C9.63934 11.7295 9.39665 11.9722 9.39665 12.2712V22.0214C9.39665 22.3204 9.63934 22.5631 9.93835 22.5631C10.2374 22.5631 10.48 22.3204 10.48 22.0214V12.2712C10.48 11.9722 10.2374 11.7295 9.93835 11.7295Z" fill="black"/>
<path d="M13.1884 11.7295C12.8894 11.7295 12.6467 11.9722 12.6467 12.2712V22.0214C12.6467 22.3204 12.8894 22.5631 13.1884 22.5631C13.4874 22.5631 13.7301 22.3204 13.7301 22.0214V12.2712C13.7301 11.9722 13.4874 11.7295 13.1884 11.7295Z" fill="black"/>
<path d="M16.4385 11.7295C16.1394 11.7295 15.8968 11.9722 15.8968 12.2712V22.0214C15.8968 22.3204 16.1394 22.5631 16.4385 22.5631C16.7375 22.5631 16.9801 22.3204 16.9801 22.0214V12.2712C16.9801 11.9722 16.7375 11.7295 16.4385 11.7295Z" fill="black"/>
<path d="M19.6885 11.7295C19.3895 11.7295 19.1469 11.9722 19.1469 12.2712V22.0214C19.1469 22.3204 19.3895 22.5631 19.6885 22.5631C19.9876 22.5631 20.2302 22.3204 20.2302 22.0214V12.2712C20.2302 11.9722 19.9876 11.7295 19.6885 11.7295Z" fill="black"/>
<path d="M22.9386 11.7295C22.6396 11.7295 22.3969 11.9722 22.3969 12.2712V22.0214C22.3969 22.3204 22.6396 22.5631 22.9386 22.5631C23.2376 22.5631 23.4803 22.3204 23.4803 22.0214V12.2712C23.4803 11.9722 23.2376 11.7295 22.9386 11.7295Z" fill="black"/>
<path d="M7.77164 23.6464C7.47264 23.6464 7.22995 23.8891 7.22995 24.1881V26.3549C7.22995 26.6539 7.47264 26.8966 7.77164 26.8966C8.07065 26.8966 8.31334 26.6539 8.31334 26.3549V24.1881C8.31329 23.8891 8.07065 23.6464 7.77164 23.6464Z" fill="black"/>
<path d="M21.8552 23.6464C21.5562 23.6464 21.3136 23.8891 21.3136 24.1881V26.3549C21.3136 26.6539 21.5562 26.8966 21.8552 26.8966C22.1543 26.8966 22.3969 26.6539 22.3969 26.3549V24.1881C22.3969 23.8891 22.1543 23.6464 21.8552 23.6464Z" fill="black"/>
</g>
</g>
<defs>
<clipPath id="clip0">
<rect width="30" height="30" fill="white"/>
</clipPath>
</defs>
</svg>
