<svg width="30" height="30" viewBox="0 0 30 30" fill="none" xmlns="http://www.w3.org/2000/svg">
<path fill-rule="evenodd" clip-rule="evenodd" d="M15.3764 11.9583H15.3526C14.9251 11.9583 14.5768 11.61 14.5768 11.1746V8.77583C14.5768 8.34833 14.9252 8 15.3606 8H15.3843C15.8118 8 16.1601 8.34833 16.1601 8.77583V11.1825C16.1601 11.61 15.8118 11.9583 15.3764 11.9583ZM20.356 13.6287C20.0472 13.9375 19.5564 13.9375 19.2477 13.6287L19.2397 13.6129C18.931 13.3121 18.931 12.8133 19.2397 12.5125L20.9577 10.8104C21.2585 10.5096 21.7572 10.5096 22.0581 10.8104C22.3668 11.1112 22.3668 11.61 22.0581 11.9108C21.5593 12.4096 20.8468 13.13 20.356 13.6287ZM10.3889 13.6208C10.6897 13.9296 11.1885 13.9296 11.4972 13.6208C11.7981 13.32 11.7981 12.8212 11.4972 12.5204L9.79516 10.8025C9.49433 10.4937 8.99558 10.4937 8.69474 10.8025L8.67891 10.8104C8.37016 11.1192 8.37016 11.61 8.67891 11.9108C9.17766 12.4017 9.89808 13.1221 10.3889 13.6208ZM6.50975 19.2654C11.5843 14.7846 19.2318 14.7846 24.3064 19.2654C24.9793 19.8592 24.9793 20.9121 24.3539 21.5454L23.3881 22.5113C22.8181 23.0813 21.9156 23.1288 21.2822 22.63L19.7068 21.3792C19.3268 21.0783 19.1052 20.6192 19.1052 20.1363V18.07C16.7064 17.2863 14.1177 17.2942 11.7268 18.07V20.1283C11.7268 20.6113 11.5052 21.0704 11.1252 21.3713L9.54183 22.63C8.9085 23.1288 8.006 23.0813 7.436 22.5113L6.47017 21.5454C5.83683 20.9121 5.83683 19.8592 6.50975 19.2654Z" fill="#333333"/>
</svg>
