<svg width="30" height="30" viewBox="0 0 30 30" fill="none" xmlns="http://www.w3.org/2000/svg">
<path fill-rule="evenodd" clip-rule="evenodd" d="M20.5 7C21.16 7 21.72 7.42 21.92 8.01L23.89 13.68C23.96 13.89 24 14.12 24 14.34V21.5C24 22.33 23.32 23 22.5 23C21.67 23 21 22.32 21 21.5V21H9V21.5C9 22.33 8.33 23 7.5 23C6.67 23 6 22.33 6 21.5V14.34C6 14.11 6.04 13.89 6.11 13.68L8.08 8.01C8.29 7.42 8.84 7 9.5 7H20.5ZM8 16.5C8 17.33 8.67 18 9.5 18C10.33 18 11 17.33 11 16.5C11 15.67 10.33 15 9.5 15C8.67 15 8 15.67 8 16.5ZM20.5 18C19.67 18 19 17.33 19 16.5C19 15.67 19.67 15 20.5 15C21.33 15 22 15.67 22 16.5C22 17.33 21.33 18 20.5 18ZM9.27 9.18L8 13H22L20.73 9.18C20.59 8.78 20.21 8.5 19.78 8.5H10.22C9.79 8.5 9.41 8.78 9.27 9.18Z" fill="#333333"/>
</svg>
