<svg width="30" height="30" viewBox="0 0 30 30" fill="none" xmlns="http://www.w3.org/2000/svg">
<path fill-rule="evenodd" clip-rule="evenodd" d="M20 4H10C9.44772 4 9 4.44772 9 5V6H21V5C21 4.44772 20.5523 4 20 4ZM9 22V7H21V22H9ZM9 23H21V26C21 26.5523 20.5523 27 20 27H10C9.44772 27 9 26.5523 9 26V23ZM8 6V23V26C8 27.1046 8.89543 28 10 28H20C21.1046 28 22 27.1046 22 26V23V6V5C22 3.89542 21.1046 3 20 3H10C8.89543 3 8 3.89542 8 5V6ZM15 26C15.5523 26 16 25.5523 16 25C16 24.4477 15.5523 24 15 24C14.4477 24 14 24.4477 14 25C14 25.5523 14.4477 26 15 26Z" fill="#333333"/>
</svg>
