<svg width="30" height="30" viewBox="0 0 30 30" fill="none" xmlns="http://www.w3.org/2000/svg">
<path fill-rule="evenodd" clip-rule="evenodd" d="M28 15C28 22.1797 22.1797 28 15 28C7.8203 28 2 22.1797 2 15C2 7.8203 7.8203 2 15 2C22.1797 2 28 7.8203 28 15ZM29 15C29 22.732 22.732 29 15 29C7.26801 29 1 22.732 1 15C1 7.26801 7.26801 1 15 1C22.732 1 29 7.26801 29 15ZM12.6464 19.6464C12.7319 19.7319 12.8405 19.7799 12.9521 19.7906C12.9894 19.7942 13.027 19.7936 13.0642 19.7888C13.17 19.7752 13.2723 19.7277 13.3536 19.6464L19.6465 13.3536C19.8417 13.1583 19.8417 12.8417 19.6465 12.6464C19.4512 12.4512 19.1346 12.4512 18.9394 12.6464L13 18.5858L11.0606 16.6464C10.8654 16.4512 10.5488 16.4512 10.3535 16.6464C10.1583 16.8417 10.1583 17.1583 10.3535 17.3536L12.6464 19.6464Z" fill="black"/>
</svg>
