<svg width="30" height="30" viewBox="0 0 30 30" fill="none" xmlns="http://www.w3.org/2000/svg">
<path fill-rule="evenodd" clip-rule="evenodd" d="M24 15C24 19.9706 19.9706 24 15 24C10.0294 24 6 19.9706 6 15C6 10.0294 10.0294 6 15 6C19.9706 6 24 10.0294 24 15ZM25 15C25 20.5229 20.5229 25 15 25C9.47714 25 5 20.5229 5 15C5 9.47715 9.47714 5 15 5C20.5229 5 25 9.47715 25 15ZM19.7538 11.4272L16.1739 14.9993L19.7538 18.5713C19.9113 18.7277 20 18.9405 20 19.1625C20 19.3845 19.9113 19.5974 19.7538 19.7537C19.5974 19.9113 19.3846 20 19.1627 20C18.9407 20 18.7279 19.9113 18.5715 19.7537L15 16.1733L11.4285 19.7537C11.2721 19.9113 11.0593 20 10.8373 20C10.6154 20 10.4026 19.9113 10.2463 19.7537C10.0887 19.5974 10 19.3845 10 19.1625C10 18.9405 10.0887 18.7277 10.2463 18.5713L13.8261 14.9993L10.2463 11.4272C9.9198 11.1007 9.9198 10.5714 10.2463 10.2449C10.5727 9.91837 11.102 9.91837 11.4285 10.2449L15 13.8253L18.5715 10.2449C18.898 9.91837 19.4273 9.91837 19.7538 10.2449C20.0802 10.5714 20.0802 11.1007 19.7538 11.4272Z" fill="black"/>
</svg>
