<svg width="30" height="30" viewBox="0 0 30 30" fill="none" xmlns="http://www.w3.org/2000/svg">
<rect width="30" height="30" fill="white"/>
<path fill-rule="evenodd" clip-rule="evenodd" d="M15 25C20.5228 25 25 20.5228 25 15C25 9.47715 20.5228 5 15 5C9.47715 5 5 9.47715 5 15C5 20.5228 9.47715 25 15 25ZM19.9497 10.0503C20.3403 10.4408 20.3403 11.0739 19.9497 11.4645L16.4142 15L19.9497 18.5355C20.3403 18.9261 20.3403 19.5592 19.9497 19.9497C19.5592 20.3403 18.9261 20.3403 18.5355 19.9497L15 16.4142L11.4645 19.9497C11.0739 20.3403 10.4408 20.3403 10.0503 19.9497C9.65973 19.5592 9.65973 18.9261 10.0503 18.5355L13.5858 15L10.0503 11.4645C9.65973 11.0739 9.65973 10.4408 10.0503 10.0503C10.4408 9.65973 11.0739 9.65973 11.4645 10.0503L15 13.5858L18.5355 10.0503C18.9261 9.65973 19.5592 9.65973 19.9497 10.0503Z" fill="#333333"/>
</svg>
