<svg width="30" height="30" viewBox="0 0 30 30" fill="none" xmlns="http://www.w3.org/2000/svg">
<rect width="30" height="30" fill="white"/>
<g clip-path="url(#clip0)">
<path d="M11.6333 17.1916C11.3664 17.1916 11.15 17.408 11.15 17.675V18.1583C11.15 18.4252 11.3664 18.6416 11.6333 18.6416C11.9003 18.6416 12.1166 18.4252 12.1166 18.1583V17.675C12.1166 17.408 11.9003 17.1916 11.6333 17.1916Z" fill="black"/>
<path d="M27.5833 18.1583V17.675C27.5833 17.408 27.3669 17.1916 27.1 17.1916C26.833 17.1916 26.6167 17.408 26.6167 17.675V18.1583C26.6167 18.4252 26.833 18.6416 27.1 18.6416C27.3669 18.6416 27.5833 18.4252 27.5833 18.1583Z" fill="black"/>
<path d="M15.5 14.2917C15.7669 14.2917 15.9833 14.0753 15.9833 13.8083V13.325C15.9833 13.0581 15.7669 12.8417 15.5 12.8417C15.233 12.8417 15.0166 13.0581 15.0166 13.325V13.8083C15.0166 14.0753 15.233 14.2917 15.5 14.2917Z" fill="black"/>
<path d="M23.2333 14.2917C23.5002 14.2917 23.7166 14.0753 23.7166 13.8083V13.325C23.7166 13.0581 23.5002 12.8417 23.2333 12.8417C22.9664 12.8417 22.75 13.0581 22.75 13.325V13.8083C22.75 14.0753 22.9664 14.2917 23.2333 14.2917Z" fill="black"/>
<path d="M29.5167 24.925H28.0667V20.4111C29.4058 19.9398 30.2061 18.5675 29.957 17.1699C29.7559 16.0102 28.8711 15.0885 27.7206 14.8402C27.6751 14.8306 27.6292 14.8267 27.5833 14.819V13.325C27.5809 11.1905 25.8512 9.46073 23.7167 9.45833H15.0167C12.8821 9.46073 11.1524 11.1905 11.15 13.325V14.8199C9.93109 15.0206 8.97625 15.9768 8.7773 17.196C8.76232 17.196 8.7483 17.1917 8.73332 17.1917H8.24998V16.225C8.24998 15.6911 7.81719 15.2583 7.28332 15.2583H5.83332V11.875H6.79998V13.325C6.79998 13.5919 7.01638 13.8083 7.28332 13.8083C7.55026 13.8083 7.76665 13.5919 7.76665 13.325V11.875H8.44815C8.66126 11.8749 8.86354 11.7811 9.00123 11.6184C9.13893 11.4558 9.19809 11.2408 9.163 11.0306L8.27705 5.71395C8.21872 5.36454 7.91644 5.10845 7.5622 5.10833H3.13777C2.78353 5.10845 2.48125 5.36454 2.42292 5.71395L1.53697 11.0306C1.50188 11.2408 1.56104 11.4558 1.69874 11.6184C1.83643 11.7811 2.03871 11.8749 2.25182 11.875H4.86665V15.2583H3.41665C2.88278 15.2583 2.44998 15.6911 2.44998 16.225V17.1917H1.96665C1.43278 17.1917 0.999985 17.6245 0.999985 18.1583V24.925C0.999985 25.4589 1.43278 25.8917 1.96665 25.8917H15.9833C16.2503 25.8917 16.4667 25.6753 16.4667 25.4083C16.4667 25.1414 16.2503 24.925 15.9833 24.925H14.5333V23.9583H24.2V24.925H22.75C22.483 24.925 22.2667 25.1414 22.2667 25.4083C22.2667 25.6753 22.483 25.8917 22.75 25.8917H29.5167C29.7836 25.8917 30 25.6753 30 25.4083C30 25.1414 29.7836 24.925 29.5167 24.925ZM3.3427 6.075H7.35727L8.1625 10.9083H2.53747L3.3427 6.075ZM15.0167 10.425H18.8833V14.2917C18.8833 14.5586 19.0997 14.775 19.3667 14.775C19.6336 14.775 19.85 14.5586 19.85 14.2917V10.425H23.7167C25.3176 10.4266 26.6151 11.724 26.6167 13.325V14.8204C25.2204 15.0512 24.1972 16.2598 24.2 17.675V18.1583H21.3C20.5363 18.1605 19.819 18.5247 19.3667 19.14C18.9143 18.5247 18.197 18.1605 17.4333 18.1583H14.5333V17.7799C14.5456 16.3396 13.53 15.095 12.1167 14.818V13.325C12.1182 11.724 13.4157 10.4266 15.0167 10.425ZM14.5333 21.0583V19.125H17.4333C18.2341 19.125 18.8833 19.7742 18.8833 20.575V21.0583H14.5333ZM19.85 20.575C19.85 19.7742 20.4992 19.125 21.3 19.125H24.2V21.0583H19.85V20.575ZM3.41665 16.225H7.28332V17.1917H3.41665V16.225ZM4.38332 18.1583H6.31665V19.6716L5.61823 19.2062C5.45582 19.0978 5.24415 19.0978 5.08173 19.2062L4.38332 19.6716V18.1583ZM8.24998 24.925H1.96665V18.1583H3.41665V20.575C3.41662 20.7533 3.51476 20.9171 3.67196 21.0012C3.82917 21.0853 4.01992 21.0761 4.16823 20.9771L5.34998 20.1883L6.53173 20.9762C6.67991 21.075 6.87044 21.0844 7.02758 21.0005C7.18472 20.9166 7.28299 20.7531 7.28332 20.575V18.1583H8.73332V24.925H8.24998ZM9.69998 24.925V19.8244C9.98022 20.0818 10.3088 20.2809 10.6667 20.4102V24.925H9.69998ZM11.6333 24.925V20.0433C11.6336 19.8134 11.4719 19.6152 11.2467 19.5692C10.5334 19.423 9.96266 18.8885 9.77016 18.1863C9.57767 17.4841 9.79602 16.7333 10.3351 16.2438C10.6894 15.9193 11.1528 15.74 11.6333 15.7417C11.6979 15.7415 11.7624 15.7448 11.8267 15.7513C12.8388 15.8864 13.5879 16.7604 13.5667 17.7813V24.925H11.6333ZM14.5333 22.9917V22.025H24.2V22.9917H14.5333ZM25.1666 24.925L25.1667 17.675C25.1659 17.0921 25.4291 16.5402 25.8825 16.1738C26.2244 15.8932 26.6533 15.7404 27.0956 15.7417H27.1C27.2419 15.742 27.3835 15.7569 27.5224 15.7861C28.4147 15.9832 29.0472 16.778 29.0388 17.6918C29.0304 18.6055 28.3834 19.3886 27.4876 19.5692C27.2624 19.6152 27.1007 19.8134 27.101 20.0433V24.925H25.1666Z" fill="black"/>
</g>
<defs>
<clipPath id="clip0">
<rect x="1" y="1" width="29" height="29" fill="white"/>
</clipPath>
</defs>
</svg>
