<svg width="30" height="30" viewBox="0 0 30 30" fill="none" xmlns="http://www.w3.org/2000/svg">
<rect width="30" height="30" fill="white"/>
<g clip-path="url(#clip0)">
<path d="M8.5187 19.6856H5.44171L4.73865 14.7633C4.63165 14.0662 3.98862 13.5813 3.28893 13.67C2.58924 13.7589 2.08775 14.3891 2.15831 15.0909L2.74278 20.3533C2.81461 21.0033 3.17814 21.585 3.73061 21.9346L2.06479 27.7628L2.89464 28L4.53982 22.2413C4.65377 22.2613 4.76919 22.2723 4.88482 22.2737H8.08735V27.8814H8.95006V22.1943C9.54381 21.9852 9.90018 21.3784 9.7934 20.7579C9.68682 20.1374 9.14826 19.6843 8.5187 19.6856ZM8.5187 21.411H4.88672C4.22768 21.4106 3.67416 20.9152 3.60128 20.2602L3.01681 14.9976C3.00227 14.8737 3.04145 14.7494 3.12443 14.6561C3.20742 14.5628 3.32621 14.5095 3.45111 14.5093C3.66805 14.511 3.85108 14.6709 3.88247 14.8855L4.64071 20.1783C4.67125 20.3906 4.85323 20.5483 5.06785 20.5483H8.5187C8.75692 20.5483 8.95006 20.7415 8.95006 20.9797C8.95006 21.2179 8.75692 21.411 8.5187 21.411Z" fill="black"/>
<path d="M26.2475 21.9346C26.7991 21.5852 27.1622 21.0041 27.2342 20.355L27.8187 15.0925C27.8901 14.3903 27.3886 13.7595 26.6885 13.6706C25.9884 13.5815 25.345 14.067 25.2384 14.7646L24.5362 19.6856H21.4594C20.8298 19.6843 20.2913 20.1374 20.1845 20.7579C20.0779 21.3784 20.4343 21.9852 21.028 22.1943V27.8814H21.8907V22.2737H25.0914C25.207 22.2723 25.3224 22.2613 25.4364 22.2413L27.0815 28L27.9116 27.7628L26.2475 21.9346ZM25.0914 21.411H21.4594C21.2212 21.411 21.028 21.2179 21.028 20.9797C21.028 20.7415 21.2212 20.5483 21.4594 20.5483H24.9102C25.1248 20.5483 25.3068 20.3906 25.3372 20.1783L26.0933 14.8855C26.1247 14.6709 26.3079 14.511 26.5247 14.5093C26.6493 14.5093 26.7681 14.5624 26.8511 14.6553C26.9343 14.7482 26.9739 14.872 26.96 14.9959L26.3768 20.2598C26.3041 20.9148 25.7506 21.4106 25.0914 21.411Z" fill="black"/>
<path d="M17.5772 25.2932H16.2831V16.2348H21.4594C21.6976 16.2348 21.8907 16.0416 21.8907 15.8034V14.078C21.8907 13.8398 21.6976 13.6466 21.4594 13.6466H8.5187C8.28048 13.6466 8.08734 13.8398 8.08734 14.078V15.8034C8.08734 16.0416 8.28048 16.2348 8.5187 16.2348H13.695V25.2932H12.4009C12.1627 25.2932 11.9695 25.4864 11.9695 25.7246V27.45C11.9695 27.6882 12.1627 27.8814 12.4009 27.8814H17.5772C17.8154 27.8814 18.0085 27.6882 18.0085 27.45V25.7246C18.0085 25.4864 17.8154 25.2932 17.5772 25.2932ZM8.95005 15.372V14.5093H21.028V15.372H8.95005ZM15.4204 16.2348V25.2932H14.5577V16.2348H15.4204ZM17.1458 27.0187H12.8323V26.156H17.1458V27.0187Z" fill="black"/>
<path d="M12.8323 8.03899H17.1458C17.3202 8.03899 17.4775 7.93389 17.5441 7.77276C17.6109 7.61163 17.574 7.42607 17.4508 7.30265L15.4204 5.27224V2H14.5577V5.27224L12.5273 7.30265C12.4038 7.42607 12.367 7.61163 12.4338 7.77276C12.5005 7.93389 12.6579 8.03899 12.8323 8.03899ZM14.989 6.06081L16.1045 7.17628H13.8736L14.989 6.06081Z" fill="black"/>
</g>
<defs>
<clipPath id="clip0">
<rect x="2" y="2" width="26" height="26" fill="white"/>
</clipPath>
</defs>
</svg>
