<svg width="30" height="30" viewBox="0 0 30 30" fill="none" xmlns="http://www.w3.org/2000/svg">
<rect width="30" height="30" fill="white"/>
<path d="M26.375 27.25H25.9375V5.81248C25.9375 5.73791 25.9184 5.66457 25.8821 5.59944C25.8458 5.53431 25.7934 5.47954 25.73 5.44033C25.6666 5.40113 25.5941 5.37879 25.5196 5.37544C25.4451 5.37209 25.371 5.38784 25.3043 5.4212L16.5543 9.79619C16.4817 9.83253 16.4206 9.88838 16.3778 9.95749C16.3351 10.0266 16.3125 10.1062 16.3125 10.1875V15H11.5C11.384 15 11.2727 15.0461 11.1906 15.1281C11.1086 15.2102 11.0625 15.3214 11.0625 15.4375V27.25H7.5625V24.5932C8.15545 24.5076 8.71026 24.2499 9.15824 23.8521C9.60621 23.4543 9.92768 22.9339 10.0828 22.3552C10.238 21.7766 10.22 21.1651 10.0311 20.5966C9.84222 20.028 9.49072 19.5274 9.02014 19.1566C9.21186 18.824 9.31269 18.4469 9.3125 18.063C9.31231 17.6792 9.21112 17.3021 9.01908 16.9697C8.82703 16.6374 8.55091 16.3614 8.21844 16.1695C7.88597 15.9776 7.50887 15.8766 7.125 15.8766C6.74113 15.8766 6.36403 15.9776 6.03156 16.1695C5.69909 16.3614 5.42297 16.6374 5.23092 16.9697C5.03888 17.3021 4.93769 17.6792 4.9375 18.063C4.93731 18.4469 5.03814 18.824 5.22986 19.1566C4.75928 19.5274 4.40778 20.028 4.2189 20.5966C4.03001 21.1651 4.01203 21.7766 4.16718 22.3552C4.32232 22.9339 4.64379 23.4543 5.09176 23.8521C5.53974 24.2499 6.09455 24.5076 6.6875 24.5932V25.2296L5.57067 24.6712C5.51923 24.645 5.46311 24.6292 5.40554 24.6247C5.34797 24.6203 5.29009 24.6273 5.23524 24.6454C5.18039 24.6634 5.12966 24.6921 5.08596 24.7299C5.04227 24.7676 5.00647 24.8136 4.98065 24.8653C4.95482 24.9169 4.93948 24.9732 4.93549 25.0308C4.93151 25.0884 4.93897 25.1462 4.95743 25.2009C4.9759 25.2556 5.00502 25.3061 5.0431 25.3495C5.08119 25.3929 5.12749 25.4283 5.17933 25.4538L6.6875 26.2079V27.25H1.875C1.75897 27.25 1.64769 27.2961 1.56564 27.3781C1.48359 27.4602 1.4375 27.5714 1.4375 27.6875C1.4375 27.8035 1.48359 27.9148 1.56564 27.9968C1.64769 28.0789 1.75897 28.125 1.875 28.125H26.375C26.491 28.125 26.6023 28.0789 26.6844 27.9968C26.7664 27.9148 26.8125 27.8035 26.8125 27.6875C26.8125 27.5714 26.7664 27.4602 26.6844 27.3781C26.6023 27.2961 26.491 27.25 26.375 27.25ZM4.9375 21.5625C4.93769 21.1718 5.04239 20.7883 5.24075 20.4517C5.43911 20.1152 5.72391 19.8378 6.06559 19.6484C6.12401 19.6161 6.17425 19.5708 6.21246 19.5161C6.25067 19.4613 6.27585 19.3985 6.28606 19.3325C6.29627 19.2666 6.29124 19.1991 6.27136 19.1354C6.25147 19.0716 6.21727 19.0133 6.17136 18.9648C5.99515 18.7785 5.87739 18.5446 5.83264 18.2921C5.78788 18.0395 5.8181 17.7794 5.91954 17.5439C6.02099 17.3083 6.18922 17.1077 6.40345 16.9667C6.61769 16.8257 6.86853 16.7505 7.125 16.7505C7.38147 16.7505 7.63231 16.8257 7.84655 16.9667C8.06078 17.1077 8.22901 17.3083 8.33046 17.5439C8.4319 17.7794 8.46212 18.0395 8.41736 18.2921C8.37261 18.5446 8.25485 18.7785 8.07864 18.9648C8.03273 19.0133 7.99853 19.0716 7.97864 19.1354C7.95876 19.1991 7.95373 19.2666 7.96394 19.3325C7.97415 19.3985 7.99933 19.4613 8.03754 19.5161C8.07575 19.5708 8.12599 19.6161 8.18441 19.6484C8.57578 19.8651 8.89134 20.1965 9.08856 20.598C9.28578 20.9995 9.35518 21.4519 9.28741 21.894C9.21964 22.3362 9.01796 22.747 8.70954 23.071C8.40113 23.395 8.0008 23.6167 7.5625 23.7062V22C7.5625 21.8839 7.51641 21.7727 7.43436 21.6906C7.35231 21.6086 7.24103 21.5625 7.125 21.5625C7.00897 21.5625 6.89769 21.6086 6.81564 21.6906C6.73359 21.7727 6.6875 21.8839 6.6875 22V23.7062C6.19372 23.6047 5.75004 23.3361 5.43125 22.9456C5.11247 22.5551 4.93809 22.0666 4.9375 21.5625ZM11.9375 15.875H16.3125V27.25H11.9375V15.875ZM18.9375 27.25V22.875H20.6875V27.25H18.9375ZM21.5625 27.25V22.875H23.3125V27.25H21.5625ZM24.1875 27.25V22.4375C24.1875 22.3214 24.1414 22.2102 24.0594 22.1281C23.9773 22.0461 23.866 22 23.75 22H18.5C18.384 22 18.2727 22.0461 18.1906 22.1281C18.1086 22.2102 18.0625 22.3214 18.0625 22.4375V27.25H17.1875V10.4579L25.0625 6.52036V27.25H24.1875Z" fill="black"/>
<path d="M28.125 27.25H27.6875C27.5715 27.25 27.4602 27.2961 27.3781 27.3781C27.2961 27.4602 27.25 27.5715 27.25 27.6875C27.25 27.8035 27.2961 27.9148 27.3781 27.9969C27.4602 28.0789 27.5715 28.125 27.6875 28.125H28.125C28.241 28.125 28.3523 28.0789 28.4344 27.9969C28.5164 27.9148 28.5625 27.8035 28.5625 27.6875C28.5625 27.5715 28.5164 27.4602 28.4344 27.3781C28.3523 27.2961 28.241 27.25 28.125 27.25Z" fill="black"/>
<path d="M7.125 21.125C7.24103 21.125 7.35231 21.0789 7.43436 20.9969C7.51641 20.9148 7.5625 20.8035 7.5625 20.6875V20.25C7.5625 20.134 7.51641 20.0227 7.43436 19.9406C7.35231 19.8586 7.24103 19.8125 7.125 19.8125C7.00897 19.8125 6.89769 19.8586 6.81564 19.9406C6.73359 20.0227 6.6875 20.134 6.6875 20.25V20.6875C6.6875 20.8035 6.73359 20.9148 6.81564 20.9969C6.89769 21.0789 7.00897 21.125 7.125 21.125Z" fill="black"/>
<path d="M4.9375 9.75002H12.8125C13.2766 9.75002 13.7217 9.56564 14.0499 9.23745C14.3781 8.90927 14.5625 8.46415 14.5625 8.00002C14.5625 7.53589 14.3781 7.09077 14.0499 6.76258C13.7217 6.43439 13.2766 6.25002 12.8125 6.25002H11.0313C10.9261 5.52112 10.5617 4.85456 10.005 4.37246C9.44825 3.89036 8.73645 3.625 8 3.625C7.26355 3.625 6.55175 3.89036 5.99503 4.37246C5.4383 4.85456 5.07393 5.52112 4.96867 6.25002H4.9375C4.47337 6.25002 4.02825 6.43439 3.70006 6.76258C3.37187 7.09077 3.1875 7.53589 3.1875 8.00002C3.1875 8.46415 3.37187 8.90927 3.70006 9.23745C4.02825 9.56564 4.47337 9.75002 4.9375 9.75002ZM4.31849 7.38167C4.39962 7.30014 4.49609 7.23549 4.60233 7.19144C4.70857 7.14739 4.82249 7.12482 4.9375 7.12502H5.375C5.49103 7.12502 5.60231 7.07892 5.68436 6.99688C5.76641 6.91483 5.8125 6.80355 5.8125 6.68752C5.8125 6.10736 6.04297 5.55096 6.4532 5.14072C6.86344 4.73048 7.41984 4.50002 8 4.50002C8.58016 4.50002 9.13656 4.73048 9.5468 5.14072C9.95703 5.55096 10.1875 6.10736 10.1875 6.68752C10.1875 6.80355 10.2336 6.91483 10.3156 6.99688C10.3977 7.07892 10.509 7.12502 10.625 7.12502H12.8125C13.0446 7.12502 13.2671 7.2172 13.4312 7.3813C13.5953 7.54539 13.6875 7.76795 13.6875 8.00002C13.6875 8.23208 13.5953 8.45464 13.4312 8.61874C13.2671 8.78283 13.0446 8.87502 12.8125 8.87502H4.9375C4.76449 8.875 4.59537 8.8237 4.45151 8.72759C4.30765 8.63149 4.19551 8.49489 4.12927 8.33507C4.06302 8.17525 4.04564 7.99937 4.07932 7.82968C4.113 7.65998 4.19623 7.50407 4.31849 7.38167Z" fill="black"/>
<path d="M23.75 18.0625H18.5C18.384 18.0625 18.2727 18.1086 18.1906 18.1906C18.1086 18.2727 18.0625 18.384 18.0625 18.5V20.6875C18.0625 20.8035 18.1086 20.9148 18.1906 20.9969C18.2727 21.0789 18.384 21.125 18.5 21.125H23.75C23.866 21.125 23.9773 21.0789 24.0594 20.9969C24.1414 20.9148 24.1875 20.8035 24.1875 20.6875V18.5C24.1875 18.384 24.1414 18.2727 24.0594 18.1906C23.9773 18.1086 23.866 18.0625 23.75 18.0625ZM23.3125 20.25H18.9375V18.9375H23.3125V20.25Z" fill="black"/>
<path d="M23.75 14.5625H18.5C18.384 14.5625 18.2727 14.6086 18.1906 14.6906C18.1086 14.7727 18.0625 14.884 18.0625 15V17.1875C18.0625 17.3035 18.1086 17.4148 18.1906 17.4969C18.2727 17.5789 18.384 17.625 18.5 17.625H23.75C23.866 17.625 23.9773 17.5789 24.0594 17.4969C24.1414 17.4148 24.1875 17.3035 24.1875 17.1875V15C24.1875 14.884 24.1414 14.7727 24.0594 14.6906C23.9773 14.6086 23.866 14.5625 23.75 14.5625ZM23.3125 16.75H18.9375V15.4375H23.3125V16.75Z" fill="black"/>
<path d="M23.75 11.0625H18.5C18.384 11.0625 18.2727 11.1086 18.1906 11.1906C18.1086 11.2727 18.0625 11.384 18.0625 11.5V13.6875C18.0625 13.8035 18.1086 13.9148 18.1906 13.9969C18.2727 14.0789 18.384 14.125 18.5 14.125H23.75C23.866 14.125 23.9773 14.0789 24.0594 13.9969C24.1414 13.9148 24.1875 13.8035 24.1875 13.6875V11.5C24.1875 11.384 24.1414 11.2727 24.0594 11.1906C23.9773 11.1086 23.866 11.0625 23.75 11.0625ZM23.3125 13.25H18.9375V11.9375H23.3125V13.25Z" fill="black"/>
<path d="M15 16.75H12.8125C12.6965 16.75 12.5852 16.7961 12.5031 16.8781C12.4211 16.9602 12.375 17.0715 12.375 17.1875V19.375C12.375 19.491 12.4211 19.6023 12.5031 19.6844C12.5852 19.7664 12.6965 19.8125 12.8125 19.8125H15C15.116 19.8125 15.2273 19.7664 15.3094 19.6844C15.3914 19.6023 15.4375 19.491 15.4375 19.375V17.1875C15.4375 17.0715 15.3914 16.9602 15.3094 16.8781C15.2273 16.7961 15.116 16.75 15 16.75ZM14.5625 18.9375H13.25V17.625H14.5625V18.9375Z" fill="black"/>
<path d="M15 20.25H12.8125C12.6965 20.25 12.5852 20.2961 12.5031 20.3781C12.4211 20.4602 12.375 20.5715 12.375 20.6875V22.875C12.375 22.991 12.4211 23.1023 12.5031 23.1844C12.5852 23.2664 12.6965 23.3125 12.8125 23.3125H15C15.116 23.3125 15.2273 23.2664 15.3094 23.1844C15.3914 23.1023 15.4375 22.991 15.4375 22.875V20.6875C15.4375 20.5715 15.3914 20.4602 15.3094 20.3781C15.2273 20.2961 15.116 20.25 15 20.25ZM14.5625 22.4375H13.25V21.125H14.5625V22.4375Z" fill="black"/>
<path d="M15 23.75H12.8125C12.6965 23.75 12.5852 23.7961 12.5031 23.8781C12.4211 23.9602 12.375 24.0715 12.375 24.1875V26.375C12.375 26.491 12.4211 26.6023 12.5031 26.6844C12.5852 26.7664 12.6965 26.8125 12.8125 26.8125H15C15.116 26.8125 15.2273 26.7664 15.3094 26.6844C15.3914 26.6023 15.4375 26.491 15.4375 26.375V24.1875C15.4375 24.0715 15.3914 23.9602 15.3094 23.8781C15.2273 23.7961 15.116 23.75 15 23.75ZM14.5625 25.9375H13.25V24.625H14.5625V25.9375Z" fill="black"/>
</svg>
