<svg width="30" height="30" viewBox="0 0 30 30" fill="none" xmlns="http://www.w3.org/2000/svg">
<rect width="30" height="30" fill="white"/>
<g clip-path="url(#clip0)">
<path d="M12.7358 24.7023H4.89421C4.60314 24.7023 4.36687 24.4663 4.36687 24.175V21.4439C4.36687 21.1529 4.60314 20.9166 4.89421 20.9166H12.7358C13.0268 20.9166 13.2631 21.1529 13.2631 21.4439V24.175C13.2631 24.4663 13.027 24.7023 12.7358 24.7023ZM5.42155 23.6477H12.2084V21.9713H5.42155V23.6477Z" fill="black"/>
<path d="M29 5.88031C28.9975 5.74044 28.9398 5.60736 28.8393 5.51014L26.8358 3.57215C26.6265 3.36966 26.2926 3.37522 26.0901 3.58451L15.63 14.3981V8.75763C15.63 7.15561 14.3267 5.85229 12.7246 5.85229H4.90533C3.30332 5.85229 2 7.15561 2 8.75763V27.0614C2 27.3527 2.23607 27.5887 2.52734 27.5887H18.956C19.247 27.5887 19.4833 27.3527 19.4833 27.0614C19.4833 26.7703 19.247 26.5341 18.956 26.5341H15.63V16.9527C15.63 16.2037 16.2216 15.5902 16.9619 15.555C16.9675 15.555 16.9733 15.5548 16.9788 15.5544C16.9955 15.5538 17.0124 15.5536 17.0293 15.5536C17.8009 15.5536 18.4286 16.1812 18.4286 16.9527V22.2626C18.4286 22.5538 18.6647 22.7899 18.956 22.7899C19.247 22.7899 19.4833 22.5538 19.4833 22.2626V16.9527C19.4833 16.6527 19.4291 16.3652 19.33 16.099L28.8517 6.25583C28.9489 6.15531 29.0023 6.02018 29 5.88031ZM23.7329 10.0307L22.917 10.8742L23.6221 7.65288L24.8183 6.41651L24.1128 9.63784L23.7329 10.0307ZM19.6654 14.2356L20.3709 11.0139L22.2267 9.09545L21.5214 12.3168L19.6654 14.2356ZM3.05469 8.75763C3.05469 7.73713 3.88484 6.90698 4.90533 6.90698H12.7246C13.7451 6.90698 14.5753 7.73713 14.5753 8.75763V18.0302H13.5206V8.48901C13.5206 8.19773 13.2845 7.96167 12.9933 7.96167H4.63672C4.34544 7.96167 4.10938 8.19773 4.10938 8.48901V18.0302H3.05469V8.75763ZM12.4659 18.0302H5.16406V9.01635H12.4659V18.0302ZM3.05469 19.0849H14.5753V26.5341H3.05469V19.0849ZM17.5888 14.5631L17.7793 13.6932L18.9753 12.4569L18.4315 14.9399C18.1806 14.7646 17.8957 14.635 17.5888 14.5631ZM25.5084 8.19506L26.2137 4.97373L26.4815 4.69687L27.727 5.90152L25.5084 8.19506Z" fill="black"/>
<path d="M17.0293 18.8876C16.738 18.8876 16.5019 18.6515 16.5019 18.3602V17.4815C16.5019 17.1902 16.738 16.9541 17.0293 16.9541C17.3206 16.9541 17.5566 17.1902 17.5566 17.4815V18.3602C17.5566 18.6515 17.3206 18.8876 17.0293 18.8876Z" fill="black"/>
<path d="M18.9561 25.2511C18.9213 25.2511 18.8871 25.2474 18.8527 25.2406C18.819 25.2336 18.7858 25.2237 18.7543 25.2105C18.7225 25.1974 18.6914 25.1811 18.663 25.1619C18.6346 25.143 18.6072 25.1209 18.5829 25.0966C18.5586 25.0723 18.5363 25.0453 18.5174 25.0165C18.4984 24.9879 18.4822 24.9568 18.469 24.9252C18.4558 24.8935 18.4457 24.8604 18.4389 24.8266C18.4321 24.7928 18.4284 24.758 18.4284 24.7238C18.4284 24.6896 18.4321 24.6548 18.4389 24.6204C18.4457 24.5866 18.4558 24.5534 18.469 24.5219C18.4822 24.4902 18.4984 24.4597 18.5174 24.4307C18.5363 24.4022 18.5586 24.3752 18.5829 24.3509C18.6072 24.3262 18.6346 24.3046 18.663 24.285C18.6914 24.2661 18.7225 24.2498 18.7543 24.2366C18.7858 24.2234 18.8192 24.2133 18.8527 24.2065C19.0241 24.1723 19.2062 24.2282 19.329 24.3509C19.3533 24.3752 19.3749 24.4022 19.3943 24.4307C19.4135 24.4597 19.4297 24.4902 19.4429 24.5219C19.4561 24.5534 19.4662 24.5866 19.473 24.6204C19.4798 24.6546 19.4835 24.6896 19.4835 24.7238C19.4835 24.7582 19.4798 24.7928 19.473 24.8266C19.4662 24.8604 19.4561 24.8935 19.4429 24.9252C19.4297 24.957 19.4135 24.9879 19.3943 25.0165C19.3749 25.0453 19.3533 25.0723 19.329 25.0966C19.3047 25.1209 19.2773 25.143 19.2489 25.1619C19.2198 25.1809 19.1893 25.1974 19.1576 25.2105C19.1259 25.2237 19.0927 25.2338 19.0589 25.2406C19.0247 25.2474 18.9905 25.2511 18.9561 25.2511Z" fill="black"/>
</g>
<defs>
<clipPath id="clip0">
<rect x="2" y="2" width="27" height="27" fill="white"/>
</clipPath>
</defs>
</svg>
