<svg width="30" height="30" viewBox="0 0 30 30" fill="none" xmlns="http://www.w3.org/2000/svg">
<path fill-rule="evenodd" clip-rule="evenodd" d="M17.79 6.29L18.5 7H21C21.55 7 22 7.45 22 8C22 8.55 21.55 9 21 9H9C8.45 9 8 8.55 8 8C8 7.45 8.45 7 9 7H11.5L12.21 6.29C12.39 6.11 12.65 6 12.91 6H17.09C17.35 6 17.61 6.11 17.79 6.29ZM9 22C9 23.1 9.9 24 11 24H19C20.1 24 21 23.1 21 22V12C21 10.9 20.1 10 19 10H11C9.9 10 9 10.9 9 12V22ZM12 12H18C18.55 12 19 12.45 19 13V21C19 21.55 18.55 22 18 22H12C11.45 22 11 21.55 11 21V13C11 12.45 11.45 12 12 12Z" fill="#333333"/>
</svg>
