<svg width="30" height="30" viewBox="0 0 30 30" fill="none" xmlns="http://www.w3.org/2000/svg">
<rect width="30" height="30" fill="white"/>
<path d="M9.25 13.9167H8.41667V12.6667C8.41667 12.5562 8.37277 12.4502 8.29463 12.372C8.21649 12.2939 8.11051 12.25 8 12.25H6.75V10.1667H8.41667C8.48 10.1667 8.5425 10.1522 8.59942 10.1244C8.65634 10.0967 8.70617 10.0563 8.74514 10.0063C8.7841 9.95641 8.81117 9.89825 8.82429 9.83629C8.83741 9.77432 8.83622 9.71019 8.82083 9.64875L7.9875 6.31542C7.96493 6.22531 7.9129 6.14534 7.83967 6.08819C7.76644 6.03104 7.67622 6 7.58333 6H5.08333C4.99045 6 4.90022 6.03104 4.827 6.08819C4.75377 6.14534 4.70174 6.22531 4.67917 6.31542L3.84583 9.64875C3.83044 9.71019 3.82926 9.77432 3.84238 9.83629C3.85549 9.89825 3.88256 9.95641 3.92153 10.0063C3.96049 10.0563 4.01033 10.0967 4.06724 10.1244C4.12416 10.1522 4.18666 10.1667 4.25 10.1667H5.91667V12.25H4.66667C4.55616 12.25 4.45018 12.2939 4.37204 12.372C4.2939 12.4502 4.25 12.5562 4.25 12.6667V13.9167H3.41667C3.30616 13.9167 3.20018 13.9606 3.12204 14.0387C3.0439 14.1168 3 14.2228 3 14.3333V16C3 16.1105 3.0439 16.2165 3.12204 16.2946C3.20018 16.3728 3.30616 16.4167 3.41667 16.4167V23.5C3.41667 23.6105 3.46057 23.7165 3.53871 23.7946C3.61685 23.8728 3.72283 23.9167 3.83333 23.9167H5.5C5.61051 23.9167 5.71649 23.8728 5.79463 23.7946C5.87277 23.7165 5.91667 23.6105 5.91667 23.5V22.25H6.75V23.5C6.75 23.6105 6.7939 23.7165 6.87204 23.7946C6.95018 23.8728 7.05616 23.9167 7.16667 23.9167H8.83333C8.94384 23.9167 9.04982 23.8728 9.12796 23.7946C9.2061 23.7165 9.25 23.6105 9.25 23.5V16.4167C9.36051 16.4167 9.46649 16.3728 9.54463 16.2946C9.62277 16.2165 9.66667 16.1105 9.66667 16V14.3333C9.66667 14.2228 9.62277 14.1168 9.54463 14.0387C9.46649 13.9606 9.36051 13.9167 9.25 13.9167ZM5.40875 6.83333H7.25792L7.88292 9.33333H4.78375L5.40875 6.83333ZM5.08333 13.0833H7.58333V13.9167H5.08333V13.0833ZM3.83333 14.75H8.83333V15.5833H3.83333V14.75ZM4.25 20.5833H8.41667V21.4167H4.25V20.5833ZM5.08333 23.0833H4.25V22.25H5.08333V23.0833ZM7.58333 23.0833V22.25H8.41667V23.0833H7.58333ZM8.41667 19.75H4.25V16.4167H8.41667V19.75Z" fill="black"/>
<path d="M27.1667 13.9933V7.66666C27.1667 7.33514 27.035 7.0172 26.8005 6.78278C26.5661 6.54836 26.2482 6.41666 25.9167 6.41666H12.5833C12.2518 6.41666 11.9339 6.54836 11.6994 6.78278C11.465 7.0172 11.3333 7.33514 11.3333 7.66666V13.9933C11.0905 14.0792 10.88 14.238 10.7309 14.448C10.5817 14.6581 10.5011 14.9091 10.5 15.1667V23.5C10.5 23.6105 10.5439 23.7165 10.622 23.7946C10.7002 23.8728 10.8062 23.9167 10.9167 23.9167H12.5833C12.6938 23.9167 12.7998 23.8728 12.878 23.7946C12.9561 23.7165 13 23.6105 13 23.5V21.4167H25.5V23.5C25.5 23.6105 25.5439 23.7165 25.622 23.7946C25.7002 23.8728 25.8062 23.9167 25.9167 23.9167H27.5833C27.6938 23.9167 27.7998 23.8728 27.878 23.7946C27.9561 23.7165 28 23.6105 28 23.5V15.1667C27.9989 14.9091 27.9183 14.6581 27.7691 14.448C27.62 14.238 27.4095 14.0792 27.1667 13.9933ZM11.3333 18.9167H27.1667V20.5833H11.3333V18.9167ZM12.5833 7.25H25.9167C26.0272 7.25 26.1332 7.2939 26.2113 7.37204C26.2894 7.45018 26.3333 7.55616 26.3333 7.66666V13.9167H25.5V11.8333C25.5 11.5018 25.3683 11.1839 25.1339 10.9494C24.8995 10.715 24.5815 10.5833 24.25 10.5833H20.9167C20.5851 10.5833 20.2672 10.715 20.0328 10.9494C19.7984 11.1839 19.6667 11.5018 19.6667 11.8333V13.9167H18.8333V11.8333C18.8333 11.5018 18.7016 11.1839 18.4672 10.9494C18.2328 10.715 17.9149 10.5833 17.5833 10.5833H14.25C13.9185 10.5833 13.6005 10.715 13.3661 10.9494C13.1317 11.1839 13 11.5018 13 11.8333V13.9167H12.1667V7.66666C12.1667 7.55616 12.2106 7.45018 12.2887 7.37204C12.3668 7.2939 12.4728 7.25 12.5833 7.25ZM24.6667 13.9167H20.5V11.8333C20.5 11.7228 20.5439 11.6168 20.622 11.5387C20.7002 11.4606 20.8062 11.4167 20.9167 11.4167H24.25C24.3605 11.4167 24.4665 11.4606 24.5446 11.5387C24.6228 11.6168 24.6667 11.7228 24.6667 11.8333V13.9167ZM18 13.9167H13.8333V11.8333C13.8333 11.7228 13.8772 11.6168 13.9554 11.5387C14.0335 11.4606 14.1395 11.4167 14.25 11.4167H17.5833C17.6938 11.4167 17.7998 11.4606 17.878 11.5387C17.9561 11.6168 18 11.7228 18 11.8333V13.9167ZM11.75 14.75H26.75C26.8605 14.75 26.9665 14.7939 27.0446 14.872C27.1228 14.9502 27.1667 15.0562 27.1667 15.1667V18.0833H11.3333V15.1667C11.3333 15.0562 11.3772 14.9502 11.4554 14.872C11.5335 14.7939 11.6395 14.75 11.75 14.75ZM12.1667 23.0833H11.3333V21.4167H12.1667V23.0833ZM26.3333 23.0833V21.4167H27.1667V23.0833H26.3333Z" fill="black"/>
</svg>
