<svg width="30" height="30" viewBox="0 0 30 30" fill="none" xmlns="http://www.w3.org/2000/svg">
<rect width="30" height="30" fill="white"/>
<path d="M14.8441 11C14.8441 11.5 14.3441 12 13.5694 12.5363C12.9119 12.9914 12.7946 13.3707 12.7946 13.6687C12.7946 13.9071 12.7946 17.5428 12.7946 19.3309L11.3642 20.6421L12.6754 21.8341L11.4834 23.1454L12.6754 24.3374V25.5295L8.84412 28.6388V13.5C8.76465 13.2219 8.46267 12.606 7.89049 12.3676C7.17527 12.0696 6 10.8078 6 8.18535C6 5.56287 7.96686 3 11.0065 3C14.0462 3 16.1323 5.68208 16.1323 8.18535C16.1323 8.48336 16.1421 8.70199 15.8441 9" stroke="black" stroke-linecap="round" stroke-linejoin="round"/>
<line x1="10.8441" y1="13.5" x2="10.8441" y2="17.1489" stroke="black" stroke-linecap="round"/>
<path d="M15.5959 20.1653V24.397H22.3309V20.1653M14.7019 20.7017L18.9932 16.8276L23.3441 20.7017" stroke="black" stroke-linecap="round" stroke-linejoin="round"/>
<path d="M11.8441 8.5C13.95 10.5662 17.8131 13.633 18.0992 13.9667C18.4568 14.3839 19.0528 15.0396 19.0528 16.768" stroke="black" stroke-linecap="round"/>
<path fill-rule="evenodd" clip-rule="evenodd" d="M11.5941 8.45913C11.4544 8.58532 11.2692 8.66216 11.0661 8.66216C10.6309 8.66216 10.2781 8.30934 10.2781 7.87411C10.2781 7.43888 10.6309 7.08606 11.0661 7.08606C11.3496 7.08606 11.5982 7.23576 11.737 7.46042C11.9239 7.17489 12.2301 6.97446 12.5848 6.92987C12.2691 6.42324 11.707 6.08606 11.0661 6.08606C10.0786 6.08606 9.27808 6.8866 9.27808 7.87411C9.27808 8.86163 10.0786 9.66216 11.0661 9.66216C11.5246 9.66216 11.9428 9.48959 12.2593 9.20586C11.9416 9.06743 11.6959 8.79457 11.5941 8.45913Z" fill="black"/>
</svg>
