<svg width="30" height="30" viewBox="0 0 30 30" fill="none" xmlns="http://www.w3.org/2000/svg">
<rect width="30" height="30" fill="white"/>
<rect x="1" y="1" width="29" height="29" rx="6.5" fill="white"/>
<mask id="mask0" mask-type="alpha" maskUnits="userSpaceOnUse" x="1" y="1" width="29" height="29">
<rect x="1" y="1" width="29" height="29" rx="6.5" fill="white"/>
</mask>
<g mask="url(#mask0)">
<path d="M24.5652 6H5.4348C5.1948 6 5 6.1948 5 6.4348V25.5652C5 25.8052 5.1948 26 5.4348 26H8.91304C9.15304 26 9.34784 25.8052 9.34784 25.5652V25.1304H20.6522V25.5652C20.6522 25.8052 20.847 26 21.087 26H24.5652C24.8052 26 25 25.8052 25 25.5652V6.4348C25 6.1948 24.8052 6 24.5652 6ZM24.1304 25.1304H21.5217V24.6956C21.5217 24.4556 21.3269 24.2608 21.0869 24.2608H8.91304C8.67304 24.2608 8.47824 24.4556 8.47824 24.6956V25.1304H5.86955V6.86955H24.1304V25.1304Z" fill="black"/>
<path d="M21.0869 10.3478H8.91303C8.67303 10.3478 8.47824 10.5426 8.47824 10.7826V24.6957C8.47824 24.9357 8.67303 25.1304 8.91303 25.1304H21.0869C21.3269 25.1304 21.5217 24.9357 21.5217 24.6957V10.7826C21.5217 10.5426 21.3269 10.3478 21.0869 10.3478ZM20.6522 24.2609H9.34783V11.2174H20.6522V24.2609Z" fill="black"/>
<path d="M15 10.3478C14.76 10.3478 14.5652 10.5426 14.5652 10.7826V24.6957C14.5652 24.9357 14.76 25.1304 15 25.1304C15.24 25.1304 15.4348 24.9357 15.4348 24.6957V10.7826C15.4348 10.5426 15.24 10.3478 15 10.3478Z" fill="black"/>
<path d="M22.8261 15.5652C23.0662 15.5652 23.2609 15.3706 23.2609 15.1304C23.2609 14.8903 23.0662 14.6956 22.8261 14.6956C22.5859 14.6956 22.3913 14.8903 22.3913 15.1304C22.3913 15.3706 22.5859 15.5652 22.8261 15.5652Z" fill="black"/>
<path d="M22.8261 17.3044C23.0662 17.3044 23.2609 17.1097 23.2609 16.8696C23.2609 16.6294 23.0662 16.4348 22.8261 16.4348C22.5859 16.4348 22.3913 16.6294 22.3913 16.8696C22.3913 17.1097 22.5859 17.3044 22.8261 17.3044Z" fill="black"/>
<path d="M13.5687 8.73652L12.6992 7.86697C12.5296 7.6974 12.2539 7.6974 12.0844 7.86697L11.2148 8.73652C11.0452 8.90608 11.0452 9.18175 11.2148 9.35131C11.3844 9.52088 11.66 9.52088 11.8296 9.35131L12.3913 8.78869L12.9531 9.35131C13.0383 9.43565 13.1496 9.47828 13.2609 9.47828C13.3722 9.47828 13.4835 9.43569 13.5687 9.35131C13.7383 9.18175 13.7383 8.90608 13.5687 8.73652Z" fill="black"/>
<path d="M18.7852 7.86697C18.6156 7.6974 18.34 7.6974 18.1704 7.86697L17.6087 8.42869L17.046 7.86697C16.8765 7.6974 16.6008 7.6974 16.4312 7.86697C16.2617 8.03653 16.2617 8.3122 16.4312 8.48176L17.3008 9.35131C17.386 9.43564 17.4973 9.47828 17.6086 9.47828C17.7199 9.47828 17.8312 9.43569 17.9156 9.35131L18.7852 8.48176C18.9548 8.31215 18.9548 8.03653 18.7852 7.86697Z" fill="black"/>
</g>
</svg>
