<svg width="30" height="30" viewBox="0 0 30 30" fill="none" xmlns="http://www.w3.org/2000/svg">
<path fill-rule="evenodd" clip-rule="evenodd" d="M5 6H24C25.1046 6 26 6.89543 26 8V22C26 23.1046 25.1046 24 24 24H5C3.89543 24 3 23.1046 3 22V8C3 6.89543 3.89543 6 5 6ZM2 8C2 6.34315 3.34315 5 5 5H24C25.6569 5 27 6.34315 27 8V22C27 23.6569 25.6569 25 24 25H5C3.34315 25 2 23.6569 2 22V8ZM23.8599 9.08955L17.7899 14.5435L23.8858 20.3422C24.1632 20.6044 24.1734 21.0471 23.9114 21.3247C23.7727 21.4688 23.5929 21.541 23.4081 21.541C23.2386 21.541 23.0641 21.4792 22.9307 21.3505L16.7578 15.4748L15.0271 17.0286C14.8987 17.147 14.7292 17.2085 14.5649 17.2085C14.4004 17.2085 14.2362 17.152 14.1025 17.0337L12.4182 15.5263L6.20936 21.3452C6.07571 21.4688 5.90624 21.5307 5.7367 21.5307C5.55189 21.5307 5.36707 21.4533 5.22842 21.3094C4.96637 21.0265 4.98191 20.5891 5.25929 20.3266L11.3758 14.5897L5.23342 9.08955C4.94609 8.83229 4.92022 8.39489 5.17699 8.10676C5.43377 7.81856 5.87036 7.79296 6.15801 8.05023L12.8033 14.0084C12.8445 14.0393 12.8803 14.0702 12.9164 14.1061C12.9164 14.1113 12.9213 14.1162 12.9262 14.1212L12.9265 14.1214L14.5597 15.5828L22.9307 8.05549C23.218 7.79824 23.6546 7.82383 23.9114 8.10676C24.1682 8.39489 24.1426 8.83229 23.8599 9.08955Z" fill="black"/>
</svg>
