<svg width="30" height="30" viewBox="0 0 30 30" fill="none" xmlns="http://www.w3.org/2000/svg">
<path fill-rule="evenodd" clip-rule="evenodd" d="M16.9416 4.08456C16.0511 2.63848 13.9489 2.63848 13.0584 4.08456L1.34226 23.1091C0.406629 24.6284 1.49964 26.5852 3.28391 26.5852H26.7161C28.5004 26.5852 29.5934 24.6284 28.6578 23.1091L16.9416 4.08456ZM14.0879 9.5969C14.0879 9.09314 14.4962 8.68478 15 8.68478C15.5038 8.68478 15.9121 9.09314 15.9121 9.5969V18.2621C15.9121 18.7658 15.5038 19.1742 15 19.1742C14.4962 19.1742 14.0879 18.7658 14.0879 18.2621V9.5969ZM16.3682 22.3666C16.3682 23.1222 15.7556 23.7348 15 23.7348C14.2444 23.7348 13.6318 23.1222 13.6318 22.3666C13.6318 21.611 14.2444 20.9984 15 20.9984C15.7556 20.9984 16.3682 21.611 16.3682 22.3666Z" fill="#333333"/>
</svg>
