<svg width="30" height="30" viewBox="0 0 30 30" fill="none" xmlns="http://www.w3.org/2000/svg">
<path fill-rule="evenodd" clip-rule="evenodd" d="M10 7C9.44772 7 9 7.44772 9 8V10C9 10.5523 9.44772 11 10 11H12C12.5523 11 13 10.5523 13 10V8C13 7.44772 12.5523 7 12 7H10ZM8 9.5H6V8H8V9.5ZM23 9.5H14V8H23V9.5ZM6 15.5H15V14H6V15.5ZM6 21.5V20H10V21.5H6ZM21 15.5H23V14H21V15.5ZM23 21.5H16V20H23V21.5ZM16 14C16 13.4477 16.4477 13 17 13H19C19.5523 13 20 13.4477 20 14V16C20 16.5523 19.5523 17 19 17H17C16.4477 17 16 16.5523 16 16V14ZM12 19C11.4477 19 11 19.4477 11 20V22C11 22.5523 11.4477 23 12 23H14C14.5523 23 15 22.5523 15 22V20C15 19.4477 14.5523 19 14 19H12Z" fill="#333333"/>
</svg>
