<svg width="30" height="30" viewBox="0 0 30 30" fill="none" xmlns="http://www.w3.org/2000/svg">
<rect width="30" height="30" fill="white"/>
<g clip-path="url(#clip0)">
<path d="M27.9701 19.4636C27.9699 19.463 27.9697 19.4626 27.9695 19.462C27.9693 19.4616 27.9691 19.461 27.969 19.4606L23.8009 9.79847C23.6492 9.44677 23.4198 9.14129 23.1376 8.91516C22.5998 8.48391 21.923 8.24627 21.2321 8.24627H18.9552C18.9455 8.24607 18.936 8.24607 18.9263 8.24627H15.0117C15.008 8.24627 15.004 8.24607 15 8.24607C14.9961 8.24607 14.9921 8.24627 14.9883 8.24627H11.0742C11.0643 8.24587 11.0542 8.24587 11.0444 8.24627H9.22782C9.01755 8.24627 8.84696 8.41686 8.84696 8.62713C8.84696 8.83759 9.01755 9.00799 9.22782 9.00799H10.5882L9.90147 12.1912C9.28039 11.6925 8.50101 11.4157 7.67978 11.4157C7.15788 11.4157 6.65126 11.5286 6.19145 11.7397L6.89842 10.1006C7.00157 9.86155 7.1551 9.65625 7.34236 9.50648C7.34236 9.50648 7.66768 9.27975 7.84621 9.2012C8.03862 9.1163 8.1259 8.89155 8.041 8.69894C7.9561 8.50652 7.73116 8.41944 7.53874 8.50414C7.3007 8.60908 7.07655 8.74456 6.87243 8.90702C6.87204 8.90722 6.86728 8.91119 6.86708 8.91139C6.58243 9.13871 6.35133 9.44558 6.19899 9.79887L3.5157 16.019C3.51213 16.0267 3.50876 16.0345 3.50578 16.0424L2.03114 19.4606C2.03094 19.461 2.03074 19.4616 2.03054 19.462C2.03035 19.4626 2.03015 19.463 2.02995 19.4636C2.00912 19.513 1.9994 19.5646 2 19.6156V20.9952C2 21.2368 2.14341 21.4546 2.36519 21.5504C2.58656 21.6458 2.84324 21.6008 3.0186 21.4352C3.70157 20.7907 4.5954 20.4358 5.53545 20.4358C6.56338 20.4358 7.55084 20.871 8.24433 21.6295C8.35819 21.7543 8.52085 21.8259 8.69045 21.8259C8.86005 21.8259 9.02271 21.7543 9.13657 21.6297C9.83006 20.871 10.8173 20.4358 11.845 20.4358C12.873 20.4358 13.8604 20.871 14.5539 21.6295C14.6678 21.7543 14.8304 21.8259 15 21.8259C15.1696 21.8259 15.3323 21.7543 15.4462 21.6297C16.1397 20.871 17.1269 20.4358 18.1544 20.4358C19.1826 20.4358 20.17 20.871 20.8635 21.6295C20.9774 21.7543 21.14 21.8259 21.3096 21.8259C21.4792 21.8259 21.6419 21.7543 21.7558 21.6297C22.2574 21.0809 22.9027 20.7016 23.6224 20.5326C23.8271 20.4846 23.954 20.2797 23.906 20.0748C23.858 19.8701 23.6531 19.7431 23.4482 19.7911C22.6333 19.9823 21.8974 20.3967 21.3096 20.9934C20.4799 20.1529 19.3395 19.6741 18.1544 19.6741C16.9698 19.6741 15.8298 20.1529 15 20.9936C14.1703 20.1529 13.0301 19.6741 11.845 19.6741C10.6604 19.6741 9.52021 20.1529 8.69045 20.9936C7.86089 20.1529 6.72049 19.6741 5.53545 19.6741C4.51864 19.6741 3.54645 20.018 2.76172 20.6492V19.7494C4.26552 18.0112 6.96825 18.081 8.39389 19.8504C8.39925 19.8548 8.47661 19.9655 8.63471 19.9883C8.77753 20.0083 8.90905 19.9504 8.99077 19.8459C9.6912 18.9792 10.7312 18.4823 11.845 18.4823C12.8992 18.4823 13.8918 18.8854 14.7108 19.8593C14.7162 19.8657 14.7207 19.8706 14.7257 19.8756C14.7348 19.8853 14.7471 19.8966 14.7565 19.9042C14.8231 19.9597 14.913 19.995 15.0106 19.9922C15.1028 19.9893 15.1861 19.955 15.2512 19.8978C15.2559 19.8937 15.2615 19.8887 15.2661 19.8841C15.2724 19.8778 15.2768 19.8734 15.2825 19.8669C15.2877 19.8611 15.2906 19.8578 15.296 19.851C15.2962 19.8508 15.2964 19.8506 15.2966 19.8504C15.9972 18.981 17.0388 18.4823 18.1544 18.4823C20.0653 18.4823 21.0627 19.9016 21.0575 19.897C21.3632 20.1658 21.6625 19.8012 21.5998 19.8582C23.2318 17.9445 25.8401 18.1342 27.2384 19.7494V20.649C26.6266 20.1567 25.9012 19.8383 25.1206 19.7223C24.9129 19.6919 24.7189 19.8349 24.688 20.043C24.657 20.2511 24.8007 20.4449 25.0087 20.4759C25.7508 20.586 26.433 20.9178 26.9815 21.435C27.1568 21.6006 27.4133 21.6458 27.6347 21.5504C27.8567 21.4546 27.9999 21.2368 27.9999 20.9952V19.6156C28.0007 19.5646 27.991 19.513 27.9701 19.4636ZM8.46947 18.8298C7.06445 17.5851 5.00463 17.3655 3.36812 18.2845L4.18578 16.3891C4.79655 15.7195 5.66915 15.3364 6.58917 15.3364C7.51613 15.3364 8.38417 15.7191 8.99534 16.3917L8.46947 18.8298ZM9.18398 15.5173C8.46808 14.9119 7.55402 14.5747 6.58917 14.5747C5.9546 14.5747 5.33788 14.7229 4.78563 14.9984L5.60429 13.1007C6.12718 12.5133 6.88037 12.1775 7.67978 12.1775C8.46134 12.1775 9.1939 12.4954 9.715 13.0552L9.18398 15.5173ZM14.6192 18.6947C13.8402 18.0677 12.8684 17.7204 11.8448 17.7204C10.927 17.7204 10.0504 17.9999 9.31748 18.5101L9.76956 16.4151C10.3817 15.728 11.2589 15.3364 12.1962 15.3364C13.1316 15.3364 14.0072 15.7262 14.6192 16.4102V18.6947ZM14.6192 15.3801C13.9317 14.8611 13.0854 14.5747 12.1962 14.5747C11.4152 14.5747 10.6676 14.7957 10.0314 15.2011L10.4847 13.0993C11.0079 12.5121 11.758 12.1773 12.5598 12.1773C13.3534 12.1773 14.0965 12.5052 14.6192 13.0814V15.3801ZM14.6192 12.0684C14.0271 11.6472 13.3108 11.4157 12.5598 11.4157C11.9075 11.4157 11.2819 11.5903 10.7409 11.9121L11.3674 9.00799H14.6192V12.0684ZM21.2321 9.00799C21.7579 9.00799 22.2521 9.18136 22.6611 9.50926C22.8466 9.65803 22.9989 9.86235 23.1015 10.1002L23.8086 11.7397C23.3486 11.5286 22.8418 11.4157 22.3197 11.4157C21.4989 11.4157 20.7195 11.6925 20.0986 12.1912L19.4119 9.00799H21.2321ZM15.3809 9.00799H18.6327L19.2591 11.9121C18.718 11.5903 18.092 11.4157 17.4397 11.4157C16.6887 11.4157 15.9728 11.6472 15.3809 12.0684V9.00799ZM15.3809 13.0814C15.9034 12.5052 16.6463 12.1775 17.4397 12.1775C18.2417 12.1775 18.9919 12.5121 19.5152 13.0993L19.9687 15.2011C19.3323 14.7957 18.5845 14.5747 17.8031 14.5747C16.9141 14.5747 16.0682 14.8611 15.3809 15.3801V13.0814ZM18.1544 17.7204C17.1313 17.7204 16.1597 18.0677 15.3809 18.6947V16.4104C15.9929 15.7262 16.868 15.3364 17.8033 15.3364C18.741 15.3364 19.6184 15.728 20.2305 16.4151L20.6824 18.5103C19.9494 18.0001 19.0729 17.7204 18.1544 17.7204ZM20.2849 13.0552C20.8062 12.4954 21.5384 12.1775 22.3197 12.1775C23.1195 12.1775 23.8729 12.5133 24.3958 13.1007L25.2145 14.9984C24.662 14.7229 24.0453 14.5747 23.4103 14.5747C22.4457 14.5747 21.5318 14.9119 20.8161 15.5173L20.2849 13.0552ZM21.5306 18.8298L21.0048 16.3917C21.6157 15.7191 22.4838 15.3364 23.4103 15.3364C24.3307 15.3364 25.2033 15.7195 25.8143 16.3891L26.6322 18.2845C25.0256 17.3828 22.964 17.5597 21.5306 18.8298Z" fill="black"/>
</g>
<defs>
<clipPath id="clip0">
<rect x="2" y="2" width="26" height="26" fill="white"/>
</clipPath>
</defs>
</svg>
