<svg width="30" height="30" viewBox="0 0 30 30" fill="none" xmlns="http://www.w3.org/2000/svg">
<rect width="30" height="30" fill="white"/>
<path d="M14.7583 23.3658C16.3913 23.3658 17.7197 22.0651 17.7197 20.4662C17.7197 18.9595 15.2984 16.5154 15.0225 16.2417C14.8805 16.1008 14.6471 16.0978 14.5012 16.2349C14.4988 16.2371 14.4964 16.2394 14.4941 16.2417C14.218 16.5154 11.7969 18.9593 11.7969 20.4662C11.7969 22.0653 13.1253 23.3658 14.7583 23.3658ZM14.7583 22.5733C13.9669 22.5722 13.3257 21.9531 13.3246 21.1891C13.3246 20.9024 13.6105 20.4653 14.1092 19.9898C14.3154 19.7948 14.5326 19.6109 14.7597 19.4389C15.332 19.8727 16.1924 20.6703 16.1924 21.1889C16.1915 21.9532 15.5499 22.5725 14.7583 22.5733ZM13.7507 18.1727C14.1301 17.6932 14.5134 17.2715 14.7586 17.0116C15.0038 17.2715 15.3871 17.6932 15.7662 18.1727C16.5506 19.1638 16.9828 19.9784 16.9828 20.4662C16.9828 20.6485 16.9597 20.8302 16.9138 21.007C16.7431 19.943 15.161 18.8325 14.9714 18.703C14.8438 18.6158 14.6731 18.6158 14.5455 18.703C14.3559 18.8325 12.774 19.9428 12.6031 21.0071C12.5573 20.8302 12.5341 20.6486 12.5342 20.4662C12.5341 19.9784 12.966 19.1638 13.7507 18.1727Z" fill="black"/>
<path d="M7.67585 9.67193V12.2657H7.36864C7.16503 12.2657 7 12.4251 7 12.6217C7 12.8183 7.16503 12.9776 7.36864 12.9776H7.67585V23.4753C7.67874 25.3678 9.08124 26.9883 11.0096 27.3273V28.6441C11.0096 28.8407 11.1746 29 11.3783 29H18.1383C18.3419 29 18.507 28.8407 18.507 28.6441V27.3271C20.4354 26.9882 21.8379 25.3677 21.8407 23.4752V12.9776H22.148C22.3516 12.9776 22.5166 12.8183 22.5166 12.6217C22.5166 12.4251 22.3516 12.2657 22.148 12.2657H21.8407V9.67193C21.8379 7.77938 20.4354 6.15888 18.507 5.81992V1.71186H19.7589C19.9625 1.71186 20.1275 1.55253 20.1275 1.35593C20.1275 1.15934 19.9625 1 19.7589 1H9.7577C9.55409 1 9.38906 1.15934 9.38906 1.35593C9.38906 1.55253 9.55409 1.71186 9.7577 1.71186H11.0096V5.81992C9.08118 6.15888 7.67874 7.77938 7.67585 9.67193ZM11.7469 28.2881V27.3906H17.7697V28.2881H11.7469ZM21.1035 23.4753C21.1014 25.2437 19.6172 26.6767 17.7857 26.6787H11.7309C9.89945 26.6767 8.41522 25.2437 8.41314 23.4753V12.9776H21.1035V23.4753ZM21.1035 9.67193V12.2657H8.41314V9.67193C8.41522 7.9036 9.89945 6.47056 11.7309 6.46854H17.7857C19.6172 6.47056 21.1014 7.9036 21.1035 9.67193ZM15.6861 5.75668H13.8305V5.29895C13.8307 5.14993 13.9558 5.02915 14.1101 5.02897H15.4065C15.5608 5.02915 15.6859 5.14993 15.6861 5.29895L15.6861 5.75668ZM17.7697 1.71186V5.75668H16.4233V5.29895C16.4227 4.75698 15.9678 4.3177 15.4065 4.31711H14.1101C13.5488 4.3177 13.0939 4.75698 13.0933 5.29895V5.75668H11.7469V1.71186H17.7697Z" fill="black"/>
</svg>
