<svg width="30" height="30" viewBox="0 0 30 30" fill="none" xmlns="http://www.w3.org/2000/svg">
<rect width="30" height="30" fill="white"/>
<path d="M28.5564 12.5372C28.2551 12.1756 27.831 11.9686 27.3928 11.9686H26.734V11.4366C26.734 10.481 25.9038 9.70296 24.8839 9.70296H24.0153V8.72106C24.0153 8.25888 23.8181 7.80802 23.4751 7.48359C22.7927 6.8388 21.6133 6.8388 20.9309 7.48359C20.5874 7.80848 20.3903 8.25933 20.3903 8.72151V13.3284H8.60924V8.72151C8.60924 8.25933 8.41259 7.80848 8.06912 7.48404C7.38673 6.83926 6.20726 6.83926 5.52487 7.48404C5.1814 7.80848 4.9843 8.25933 4.9843 8.72151V9.70341H4.01009C3.55199 9.70341 3.11881 9.8688 2.78985 10.1692C2.45681 10.4751 2.26559 10.9019 2.26559 11.3396V11.9686H1.6131C1.17267 11.9686 0.746738 12.1765 0.444509 12.5395C0.158138 12.8839 0 13.3365 0 13.8136V16.4671C0 16.9442 0.158138 17.3969 0.444962 17.7413C0.747191 18.1042 1.17312 18.3122 1.6131 18.3122H2.26559V18.9411C2.26559 19.3788 2.45681 19.8057 2.79075 20.1124C3.11881 20.4124 3.55199 20.5778 4.01009 20.5778H4.9843V21.5597C4.9843 22.0219 5.1814 22.4727 5.52441 22.7967C5.86561 23.1189 6.31737 23.2965 6.79677 23.2965C7.27617 23.2965 7.72793 23.1189 8.06912 22.7967C8.41259 22.4723 8.60924 22.0214 8.60924 21.5597V16.9528H20.3903V21.5597C20.3903 22.0219 20.5874 22.4727 20.9304 22.7967C21.2716 23.1189 21.7234 23.2965 22.2028 23.2965C22.6822 23.2965 23.1339 23.1189 23.4751 22.7967C23.8181 22.4723 24.0153 22.0214 24.0153 21.5597V20.5778H24.8839C25.9038 20.5778 26.734 19.8002 26.734 18.8442V18.3122H27.3928C27.831 18.3122 28.2551 18.1047 28.5569 17.7435C28.8423 17.4005 29 16.9501 29 16.4748V13.8064C28.9995 13.3311 28.8423 12.8802 28.5564 12.5372ZM1.6131 17.406C1.44046 17.406 1.27281 17.319 1.1414 17.1613C0.991875 16.9823 0.906236 16.729 0.906236 16.4671V13.8136C0.906236 13.5517 0.991875 13.2989 1.1414 13.1195C1.27281 12.9618 1.44046 12.8748 1.6131 12.8748H2.26559V17.406H1.6131ZM4.01009 19.6716C3.78218 19.6716 3.5606 19.5886 3.40337 19.4445C3.25384 19.3072 3.17183 19.1287 3.17183 18.9411V17.8591V12.4217V11.3396C3.17183 11.152 3.25384 10.9731 3.40246 10.8367C3.56105 10.6921 3.78218 10.6092 4.01009 10.6092H4.9843V19.6716H4.01009ZM7.703 21.5597C7.703 21.7767 7.61193 21.982 7.44699 22.1379C7.10715 22.4587 6.48684 22.4587 6.147 22.1379C5.98161 21.982 5.89053 21.7763 5.89053 21.5597V20.1247V10.1561V8.72106C5.89053 8.50401 5.98161 8.29875 6.14654 8.14288C6.31646 7.98247 6.55344 7.89049 6.79677 7.89049C7.04009 7.89049 7.27707 7.98247 7.44699 8.14288C7.61193 8.29875 7.703 8.50446 7.703 8.72151V13.7815V16.5002V21.5597ZM8.60924 16.0466V14.2341H20.3903V16.0466H8.60924ZM23.109 21.5597C23.109 21.7767 23.0179 21.982 22.853 22.1379C22.5132 22.4587 21.8928 22.4587 21.553 22.1379C21.3876 21.982 21.2965 21.7763 21.2965 21.5597V16.4997V13.781V8.72151C21.2965 8.50446 21.3876 8.2992 21.5526 8.14333C21.7225 7.98293 21.9595 7.89094 22.2028 7.89094C22.4461 7.89094 22.6831 7.98293 22.853 8.14333C23.0179 8.29875 23.109 8.50446 23.109 8.72151V10.1565V20.1251V21.5597ZM25.8277 18.8442C25.8277 19.3005 25.4045 19.6716 24.8839 19.6716H24.0153V10.6092H24.8839C25.4041 10.6092 25.8277 10.9803 25.8277 11.4366V12.4217V17.8591V18.8442ZM28.0933 16.4744C28.0933 16.7344 28.0081 16.985 27.8604 17.1631C27.7299 17.3199 27.5636 17.406 27.3928 17.406H26.734V12.8748H27.3928C27.5636 12.8748 27.7299 12.9609 27.8604 13.1177C28.0086 13.2953 28.0933 13.5463 28.0933 13.8064V16.4744Z" fill="black"/>
</svg>
