<svg width="30" height="30" viewBox="0 0 30 30" fill="none" xmlns="http://www.w3.org/2000/svg">
<rect width="30" height="30" fill="white"/>
<g clip-path="url(#clip0)">
<path d="M5.17108 25.4555H5.16678C4.95116 25.4555 4.7785 25.6301 4.7785 25.8461C4.7785 26.0622 4.95507 26.2368 5.17108 26.2368C5.38671 26.2368 5.56171 26.0622 5.56171 25.8461C5.56171 25.6301 5.38632 25.4555 5.17108 25.4555Z" fill="black"/>
<path d="M22.3184 3.44107C22.318 3.44146 22.318 3.44185 22.3176 3.44224L18.0137 7.74614C17.2535 8.50747 17.2535 9.74692 18.0141 10.509L18.5648 11.0594L15.5027 14.1215L12.0934 10.7118C12.2473 10.3665 12.3305 9.99067 12.3301 9.60122C12.3301 8.87857 12.0504 8.19927 11.5441 7.68599C11.5395 7.68091 11.5379 7.67427 11.5332 7.66919L7.11446 3.25044C7.10391 3.23989 7.08946 3.23521 7.07774 3.22583C7.05625 3.20864 7.03516 3.19341 7.01055 3.1813C6.98633 3.16958 6.9625 3.16177 6.93711 3.15552C6.92188 3.15122 6.90977 3.14224 6.89375 3.13989L5.92813 3.00044C5.90977 2.99771 5.89336 3.00356 5.87539 3.00356C5.85586 3.00356 5.8375 2.99731 5.81758 3.00044C5.80899 3.00161 5.80274 3.00708 5.79454 3.00825C5.77071 3.01372 5.74961 3.02349 5.72735 3.03247C5.70157 3.04302 5.67657 3.05278 5.65391 3.06802C5.63633 3.08013 5.62266 3.09536 5.60704 3.11021C5.58633 3.13013 5.56641 3.14849 5.55039 3.17192C5.53829 3.19067 5.53086 3.21177 5.52149 3.23286C5.51016 3.25786 5.49883 3.28247 5.49336 3.30981C5.4918 3.31802 5.48672 3.32349 5.48555 3.33169C5.48282 3.35122 5.48868 3.36919 5.48868 3.38794C5.48868 3.40669 5.48282 3.42388 5.48555 3.44263L5.62305 4.41021C5.62579 4.427 5.63438 4.44146 5.63946 4.45825C5.64493 4.47974 5.65039 4.50005 5.66016 4.52036C5.67383 4.54849 5.6918 4.5731 5.71094 4.59653C5.71993 4.60747 5.72383 4.62114 5.73399 4.63091L9.32344 8.22036C9.62735 8.52466 9.62735 9.01997 9.32383 9.32388C9.01914 9.62817 8.52422 9.62778 8.21953 9.32427L4.63047 5.73521C4.61836 5.72271 4.60196 5.71763 4.58829 5.70747C4.56954 5.69263 4.55118 5.67896 4.5293 5.66802C4.50274 5.65435 4.47539 5.64575 4.44727 5.63872C4.43399 5.6356 4.42305 5.62739 4.40899 5.62544L3.44336 5.4856C3.42383 5.48247 3.40586 5.48833 3.38711 5.48833C3.36836 5.48833 3.35118 5.48247 3.33243 5.48521C3.32539 5.48638 3.32071 5.49067 3.31407 5.49185C3.28243 5.4981 3.2543 5.50982 3.22539 5.5231C3.20821 5.5313 3.19024 5.53755 3.17422 5.5481C3.15 5.56372 3.13125 5.58403 3.11133 5.60474C3.09571 5.62114 3.08008 5.6356 3.06719 5.65396C3.05352 5.67427 3.04493 5.69692 3.03555 5.71997C3.02461 5.74458 3.01407 5.7688 3.00821 5.79575C3.00704 5.80317 3.00235 5.80864 3.00118 5.81646C2.99844 5.83482 3.0043 5.852 3.0043 5.86997C3.00391 5.88911 2.99805 5.90708 3.00079 5.927L3.13829 6.89497C3.14141 6.91489 3.15118 6.9313 3.15664 6.95005C3.16211 6.96802 3.16641 6.98521 3.17422 7.00278C3.18946 7.03481 3.20938 7.06255 3.23164 7.08911C3.23907 7.09732 3.24141 7.10825 3.24961 7.11607L7.66875 11.5352C7.67422 11.5407 7.68125 11.5426 7.68711 11.5473C8.20039 12.0528 8.87891 12.3321 9.60039 12.3325H9.60118C9.99063 12.3325 10.3668 12.2489 10.7121 12.0954L14.1215 15.5043L12.0078 17.6184C11.8551 17.4661 11.609 17.4665 11.4563 17.6188L10.9039 18.1715L10.627 17.895C10.4742 17.7422 10.2273 17.7422 10.0746 17.895L3.64219 24.3262C3.6418 24.3266 3.64141 24.3266 3.64102 24.327C3.23243 24.7356 3.00586 25.2774 3.00274 25.8528C3 26.4297 3.22227 26.9715 3.62852 27.3778C4.04493 27.7942 4.59297 28.0028 5.14258 28.0024C5.69805 28.0024 6.25508 27.7899 6.67969 27.3653C6.68047 27.3645 6.68047 27.3637 6.68125 27.3629L13.1129 20.9317C13.2656 20.779 13.2656 20.5321 13.1129 20.3793L12.8363 20.1032L13.3891 19.5512C13.4652 19.475 13.5035 19.375 13.5035 19.2747C13.5035 19.2684 13.5004 19.2633 13.5 19.2571C13.4957 19.1633 13.4606 19.07 13.3895 18.9985L15.5031 16.8852L17.4016 18.7836C17.2492 18.9364 17.2492 19.1829 17.402 19.3356L17.9547 19.8883L17.6781 20.1649C17.5254 20.3176 17.5254 20.5645 17.6781 20.7172L24.318 27.3571C24.3188 27.3579 24.3188 27.3586 24.3195 27.3594C24.7441 27.784 25.3008 27.9965 25.8563 27.9965C26.4059 27.9965 26.9543 27.7883 27.3707 27.3715C28.2086 26.5336 28.2031 25.1653 27.3586 24.3204C27.3578 24.3196 27.357 24.3196 27.3563 24.3188L20.7164 17.6782C20.5637 17.5254 20.3168 17.5254 20.1641 17.6782L19.8871 17.9551L19.3348 17.402C19.182 17.2493 18.9355 17.2493 18.7828 17.4016L16.8852 15.5036L19.9477 12.4411L20.5008 12.9942C20.868 13.3614 21.3586 13.5641 21.8813 13.5641C22.4039 13.5641 22.8945 13.3614 23.2617 12.9942L27.5668 8.68911C27.5668 8.68911 27.5668 8.68911 27.5668 8.68872H27.5672C28.082 8.17232 28.6055 6.96489 26.3223 4.68208C24.0406 2.40122 22.8348 2.92622 22.3184 3.44107ZM9.60039 11.5508C9.07969 11.5508 8.59024 11.3477 8.22227 10.9793C8.21836 10.975 8.21289 10.9739 8.2086 10.9704L3.89336 6.65474L3.84766 6.33286L4.17032 6.37974L7.6668 9.87661L7.66758 9.87739C7.66797 9.87778 7.66836 9.87778 7.66836 9.87817C7.97227 10.1813 8.37149 10.3329 8.77071 10.3329C9.17032 10.3329 9.57071 10.1809 9.87539 9.87661C10.484 9.26763 10.4844 8.27857 9.87696 7.66958C9.87657 7.66958 9.87657 7.66919 9.87618 7.6688L6.37813 4.17075L6.33243 3.84849L6.6543 3.89497L10.9695 8.2106C10.9734 8.2145 10.9742 8.21919 10.9777 8.2231C11.3457 8.59107 11.5488 9.08052 11.5488 9.60161C11.5488 10.1223 11.3461 10.6118 10.9785 10.9797C10.6106 11.3481 10.1215 11.5508 9.60039 11.5508ZM11.3859 11.6641C11.4352 11.6215 11.4848 11.579 11.5313 11.5325C11.5777 11.486 11.6207 11.4364 11.6633 11.3868L14.9504 14.6743L14.6734 14.9512L11.3859 11.6641ZM5.14219 27.2223C4.77813 27.2223 4.43672 27.0817 4.18086 26.8254C3.92305 26.5676 3.78204 26.2235 3.7836 25.8567C3.78555 25.4887 3.93086 25.1418 4.19258 24.8797C4.19297 24.8793 4.19336 24.8793 4.19375 24.879L10.35 18.7227L12.0055 20.3774C12.0063 20.3778 12.0063 20.3786 12.0066 20.379C12.007 20.3793 12.0078 20.3793 12.0082 20.3801L12.284 20.6555L6.12735 26.8122C6.12696 26.8126 6.12657 26.8133 6.12618 26.8137C5.86407 27.0754 5.51719 27.2204 5.14961 27.2223C5.14727 27.2223 5.14493 27.2223 5.14219 27.2223ZM11.4555 18.7231L11.7316 18.4465L12.5594 19.2743H12.5598L12.2832 19.5504L11.4555 18.7231ZM26.8184 26.8196C26.2863 27.352 25.4141 27.3477 24.8734 26.8083C24.873 26.8079 24.8727 26.8071 24.8723 26.8067L18.5066 20.4411L20.4398 18.5071L26.8051 24.8731C26.8055 24.8735 26.8063 24.8739 26.8066 24.8743C27.3457 25.4141 27.3512 26.2864 26.8184 26.8196ZM18.507 19.336L18.2305 19.0594L19.057 18.2321C19.0574 18.2317 19.0582 18.2317 19.0582 18.2313L19.3348 18.5079L18.507 19.336ZM18.2305 17.9543L17.9539 18.2313L16.0555 16.3329L16.332 16.0563L18.2305 17.9543ZM12.8367 18.4465L12.5602 18.1696L14.9484 15.7813C14.9488 15.7809 14.9496 15.7805 14.95 15.7801C14.9504 15.7797 14.9508 15.779 14.9512 15.7786L15.7777 14.952C15.7781 14.9516 15.7789 14.9512 15.7793 14.9508C15.7797 14.9504 15.7801 14.9497 15.7805 14.9493L19.1172 11.6122L19.3945 11.8895L12.8367 18.4465ZM27.0141 8.13755L22.709 12.4422C22.252 12.8985 21.5098 12.8985 21.0527 12.4422L18.5668 9.95747C18.1102 9.49966 18.1102 8.75591 18.5664 8.29888L22.8695 3.99497C22.8699 3.99458 22.8703 3.99458 22.8707 3.99419C23.3898 3.47466 24.4738 3.93911 25.7699 5.23521C27.0672 6.53247 27.5324 7.61763 27.0141 8.13755Z" fill="black"/>
<path d="M23.4231 5.65224C23.2703 5.49951 23.0234 5.49951 22.8707 5.65224L19.948 8.5749C19.7953 8.72763 19.7953 8.97451 19.948 9.12724C20.0242 9.20341 20.1242 9.24169 20.2242 9.24169C20.3242 9.24169 20.4242 9.20341 20.5004 9.12724L23.4231 6.20458C23.5758 6.05185 23.5758 5.80497 23.4231 5.65224Z" fill="black"/>
<path d="M24.3875 6.61673C24.2348 6.464 23.9879 6.464 23.8352 6.61673L20.9133 9.53939C20.7606 9.69212 20.7606 9.939 20.9133 10.0917C20.9895 10.1679 21.0895 10.2062 21.1895 10.2062C21.2895 10.2062 21.3895 10.1679 21.4656 10.0917L24.3875 7.16908C24.5402 7.01634 24.5402 6.76908 24.3875 6.61673Z" fill="black"/>
<path d="M24.8031 7.58511L21.8805 10.5074C21.7277 10.6601 21.7277 10.907 21.8805 11.0597C21.9567 11.1359 22.0567 11.1742 22.1567 11.1742C22.2567 11.1742 22.3567 11.1359 22.4328 11.0597L25.3555 8.13746C25.5082 7.98472 25.5082 7.73785 25.3555 7.58511C25.2028 7.43238 24.9559 7.43277 24.8031 7.58511Z" fill="black"/>
<path d="M25.8511 25.4508H25.8468C25.6312 25.4508 25.4586 25.6254 25.4586 25.8414C25.4586 26.0574 25.6351 26.232 25.8511 26.232C26.0668 26.232 26.2418 26.0574 26.2418 25.8414C26.2418 25.6254 26.0668 25.4508 25.8511 25.4508Z" fill="black"/>
</g>
<defs>
<clipPath id="clip0">
<rect x="3" y="3" width="25" height="25" fill="white"/>
</clipPath>
</defs>
</svg>
