<svg width="30" height="30" viewBox="0 0 30 30" fill="none" xmlns="http://www.w3.org/2000/svg">
<rect width="30" height="30" fill="white"/>
<g clip-path="url(#clip0)">
<path d="M1 6.18848C1 5.96196 1.18359 5.77832 1.41016 5.77832H6.67514C7.05172 5.77832 7.35808 6.08468 7.35808 6.46126V8.07312C7.35808 8.4497 7.05166 8.75611 6.67514 8.75611H6.16671V9.49439H23.8332V8.75611H23.3248C22.9482 8.75611 22.6419 8.44975 22.6419 8.07317V6.46131C22.6419 6.08473 22.9483 5.77837 23.3248 5.77837H28.5898C28.8164 5.77837 29 5.96202 29 6.18853V15.8386C29 16.0651 28.8164 16.2487 28.5898 16.2487C28.3633 16.2487 28.1797 16.0651 28.1797 15.8386V12.4957H24.6535V15.1776H25.4107V14.4897C25.4107 14.2631 25.5943 14.0795 25.8209 14.0795C26.0475 14.0795 26.2311 14.2631 26.2311 14.4897V15.1776H26.7031C26.9297 15.1776 27.1133 15.3613 27.1133 15.5878C27.1133 15.8143 26.9297 15.9979 26.7031 15.9979H24.6535V17.9065H26.8307C27.0573 17.9065 27.2409 18.0902 27.2409 18.3167V20.0352C27.2409 20.2617 27.0573 20.4453 26.8307 20.4453H24.6535V23.4014H28.043C28.1184 23.4014 28.1797 23.3401 28.1797 23.2647V22.1733H26.7031C26.4766 22.1733 26.293 21.9896 26.293 21.7631C26.293 21.5366 26.4766 21.3529 26.7031 21.3529H28.1797V17.698C28.1797 17.4715 28.3633 17.2879 28.5898 17.2879C28.8164 17.2879 29 17.4715 29 17.698V23.2647C29 23.7924 28.5706 24.2217 28.043 24.2217H1.95703C1.42935 24.2217 1 23.7924 1 23.2647V8.567C1 8.52866 1 6.18848 1 6.18848ZM4.68233 8.75611C4.45576 8.75611 4.27217 8.57247 4.27217 8.34595C4.27217 8.11944 4.45576 7.9358 4.68233 7.9358H6.53782V6.59863H1.82031V7.9358H2.8229C3.04947 7.9358 3.23306 8.11944 3.23306 8.34595C3.23306 8.57247 3.04947 8.75611 2.8229 8.75611H1.82031V14.059H3.93491C4.16148 14.059 4.34507 14.2426 4.34507 14.4691C4.34507 14.6957 4.16148 14.8793 3.93491 14.8793H3.57944V15.3263C3.57944 15.5528 3.39586 15.7364 3.16929 15.7364C2.94272 15.7364 2.75913 15.5528 2.75913 15.3263V14.8793H1.82031V18.2061H5.34645V11.2266H3.58344C3.35687 11.2266 3.17328 11.0429 3.17328 10.8164C3.17328 10.5899 3.35687 10.4062 3.58344 10.4062H5.34645V8.75611H4.68233ZM6.16677 16.4479H14.5898V14.9503H6.16677V16.4479ZM15.4102 16.4479H23.8332V14.9503H15.4102V16.4479ZM23.8332 17.2682H15.4102V18.7657H23.8332V17.2682ZM14.5898 17.2682H6.16677V18.7657H14.5898V17.2682ZM6.16677 19.586V21.0835H14.5898V19.586H6.16677ZM6.16677 14.13H14.5898V12.6325H6.16677V14.13ZM15.4102 14.13H23.8332V12.6325H15.4102V14.13ZM23.8332 21.9038H22.6198C22.3933 21.9038 22.2097 21.7202 22.2097 21.4936C22.2097 21.2671 22.3933 21.0835 22.6198 21.0835H23.8332V19.586H15.4102V21.0835H20.7604C20.987 21.0835 21.1706 21.2671 21.1706 21.4936C21.1706 21.7202 20.987 21.9038 20.7604 21.9038H15.4102V23.4013H23.8332V21.9038ZM14.5898 21.9038H6.16677V23.4013H14.5898V21.9038ZM5.34645 19.0264H3.57944V19.9246H5.34645V19.0264ZM6.16677 11.8122H14.5898V10.3147H6.16677V11.8122ZM15.4102 10.3147V11.8122H23.8332V10.3147H15.4102ZM28.1797 6.59863H23.4622V7.93574H28.1797V6.59863ZM26.4126 11.6754H28.1797V10.7772H26.4126V11.6754ZM25.5923 11.6754V10.367C25.5923 10.1405 25.7759 9.95688 26.0025 9.95688H28.1797V8.75611H24.6535V11.6754H25.5923ZM26.4206 18.7267H24.6535V19.6249H26.4206V18.7267ZM1.95703 23.4014H5.34645V20.7449H3.16929C2.94272 20.7449 2.75913 20.5613 2.75913 20.3348V19.0264H1.82031V23.2646C1.82031 23.34 1.88162 23.4014 1.95703 23.4014Z" fill="black"/>
</g>
<defs>
<clipPath id="clip0">
<rect width="28" height="28" transform="matrix(-1 0 0 1 29 1)" fill="white"/>
</clipPath>
</defs>
</svg>
