<svg width="30" height="30" viewBox="0 0 30 30" fill="none" xmlns="http://www.w3.org/2000/svg">
<rect width="30" height="30" fill="white"/>
<path fill-rule="evenodd" clip-rule="evenodd" d="M7 6H12.5L11.1069 8.78623L6.16713 6.44634C6.34635 6.17728 6.65247 6 7 6ZM12.0108 9.21441L13.618 6H21.7333L18.4039 12.2427L12.0108 9.21441ZM19.3083 12.6711L24 14.8935V7C24 6.44772 23.5523 6 23 6H22.8663L19.3083 12.6711ZM6 7.47368V14.359L13.1727 17.6546L15.9149 12.1702L6 7.47368ZM23.8335 22.5528L14.0819 18.0723L16.8188 12.5984L24 16V22C24 22.2044 23.9387 22.3944 23.8335 22.5528ZM6 22V15.4595L9.87914 17.2418L7.00001 23C6.44772 23 6 22.5523 6 22ZM15.118 23H22.4118L16.4806 20.2749L15.118 23ZM14 23L15.5714 19.8571L10.7883 17.6595L8.11805 23L14 23ZM5 7C5 5.89543 5.89543 5 7 5H23C24.1046 5 25 5.89543 25 7V22C25 23.1046 24.1046 24 23 24H7C5.89543 24 5 23.1046 5 22V7Z" fill="black"/>
</svg>
