<svg width="30" height="30" viewBox="0 0 30 30" fill="none" xmlns="http://www.w3.org/2000/svg">
<rect width="30" height="30" fill="white"/>
<path d="M28.5085 25.9158H22.3221V22.9823C23.673 22.8006 24.8703 21.9569 25.5666 20.6777C26.4916 20.4663 27.3319 19.9308 27.9535 19.1515C28.6283 18.3054 29 17.2241 29 16.1068C29 14.4071 28.1297 12.8339 26.7603 12.0167C26.6176 9.18227 24.4326 6.9222 21.7714 6.9222C20.9338 6.9222 20.1049 7.15018 19.3746 7.58149C19.1474 7.71567 19.0719 8.00862 19.2061 8.2358C19.3404 8.4631 19.6334 8.53849 19.8605 8.40431C20.4438 8.05982 21.1045 7.87778 21.7714 7.87778C23.9953 7.87778 25.8079 9.8632 25.8121 12.3036C25.8124 12.4834 25.9137 12.6479 26.0741 12.7291C27.271 13.3349 28.0444 14.6607 28.0444 16.1067C28.0444 17.9318 26.8084 19.512 25.1693 19.7823C25.0159 19.8077 24.8843 19.9061 24.8168 20.0463C24.3042 21.1093 23.378 21.8279 22.3221 22.015V17.787L24.6736 15.6247C24.8678 15.446 24.8805 15.1438 24.7018 14.9496C24.5231 14.7554 24.221 14.7426 24.0267 14.9213L22.3221 16.4888V13.2993C22.3221 13.0354 22.1082 12.8215 21.8443 12.8215C21.5804 12.8215 21.3664 13.0354 21.3664 13.2993V19.0823L19.6618 17.5148C19.4676 17.3361 19.1653 17.3488 18.9867 17.543C18.8081 17.7373 18.8207 18.0395 19.015 18.2181L21.3665 20.3805V22.0373C20.2398 21.8922 19.2462 21.1467 18.713 20.0186C18.6493 19.8838 18.5262 19.7864 18.3804 19.7555C16.7949 19.4186 15.6442 17.8842 15.6442 16.1067C15.6442 14.7052 16.3509 13.4368 17.4886 12.7966C17.6409 12.7109 17.7342 12.5489 17.732 12.3743C17.7319 12.361 17.7315 12.3479 17.731 12.3348C17.7307 12.3272 17.7305 12.3197 17.7305 12.3122C17.7305 11.3168 18.0242 10.3764 18.5799 9.59257C18.7325 9.37728 18.6817 9.07901 18.4665 8.92648C18.2512 8.77378 17.9529 8.8247 17.8004 9.03987C17.1673 9.93275 16.8159 10.9905 16.7783 12.1105C15.4825 12.9555 14.6886 14.4606 14.6886 16.1068C14.6886 18.248 16.048 20.1132 17.9533 20.6348C18.6704 21.9853 19.9388 22.8594 21.3666 22.9993V25.9158H21.064C20.9936 24.6653 20.1388 23.5775 18.9485 23.2102C18.575 22.4156 17.8496 21.8394 16.9965 21.6526C16.7168 20.3813 15.5724 19.4333 14.2388 19.4333C13.2104 19.4333 12.278 19.986 11.7809 20.8658C10.802 20.903 9.92183 21.426 9.41626 22.2361C9.10117 21.3693 8.29404 20.7382 7.34905 20.6703V19.4141C8.63892 19.2348 9.78108 18.428 10.4484 17.2075C11.3349 17.0027 12.14 16.4884 12.736 15.7412C13.385 14.9277 13.7424 13.8879 13.7424 12.8135C13.7424 11.183 12.9093 9.67334 11.5975 8.88587C11.4552 6.1665 9.35662 4 6.80134 4C5.82117 4 4.87839 4.31611 4.07483 4.91429C3.86322 5.07181 3.81933 5.37121 3.97684 5.58288C4.13436 5.79448 4.43371 5.83838 4.64543 5.68086C5.28275 5.20633 6.02825 4.95558 6.80134 4.95558C8.91918 4.95558 10.6455 6.84726 10.6495 9.17247C10.6498 9.3523 10.751 9.51673 10.9115 9.59795C12.0507 10.1745 12.7867 11.4367 12.7867 12.8135C12.7867 14.551 11.6107 16.0552 10.0512 16.3124C9.89776 16.3378 9.76618 16.4362 9.69861 16.5763C9.21462 17.58 8.34354 18.2613 7.34894 18.4459V14.4313L9.59371 12.3671C9.78793 12.1885 9.80057 11.8862 9.62198 11.692C9.44339 11.4977 9.1411 11.485 8.94688 11.6637L7.34894 13.1331V10.1258C7.34894 9.86195 7.13501 9.64802 6.87112 9.64802C6.60723 9.64802 6.3933 9.86195 6.3933 10.1258V15.6161L4.79541 14.1467C4.60114 13.968 4.2989 13.9807 4.12031 14.175C3.94167 14.3692 3.95436 14.6715 4.14858 14.8501L6.39324 16.9142V18.4683C5.33089 18.323 4.39542 17.616 3.8916 16.5502C3.82788 16.4153 3.7048 16.318 3.55895 16.287C2.05044 15.9664 0.955526 14.5057 0.955526 12.8135C0.955526 11.479 1.62813 10.2715 2.71093 9.66213C2.86306 9.57649 2.95641 9.41483 2.95437 9.24027C2.95426 9.22735 2.95386 9.21444 2.95341 9.20158C2.95324 9.19462 2.9529 9.1877 2.9529 9.18062C2.9529 8.58964 3.06182 8.01814 3.2766 7.48203C3.34049 7.32276 3.41406 7.16632 3.49546 7.0169C3.62165 6.78513 3.53612 6.49501 3.30435 6.36882C3.07258 6.24251 2.78241 6.32809 2.65627 6.55987C2.55709 6.74202 2.46737 6.93268 2.38966 7.12661C2.15427 7.71403 2.02382 8.33527 2.001 8.97621C0.759946 9.78996 0 11.2343 0 12.8135C0 14.8694 1.30375 16.6609 3.13199 17.1658C3.8195 18.4547 5.02985 19.2909 6.3933 19.4309V20.7975C5.87039 20.9803 5.42288 21.3415 5.13497 21.8268C3.97463 21.8927 3.03706 22.7497 2.85536 23.8799C1.99958 24.26 1.36334 25.0137 1.12907 25.9157H0.477819C0.213931 25.9157 0 26.1296 0 26.3935C0 26.6574 0.213931 26.8713 0.477819 26.8713H1.52454H12.3108H20.5716H28.5085C28.7724 26.8713 28.9864 26.6574 28.9864 26.3935C28.9864 26.1296 28.7724 25.9158 28.5085 25.9158ZM2.13121 25.9158C2.35913 25.335 2.8386 24.8723 3.44941 24.6744C3.64159 24.6122 3.77384 24.4358 3.77979 24.234C3.80386 23.4177 4.46254 22.7783 5.27935 22.7783C5.31209 22.7783 5.34788 22.7798 5.39189 22.7831C5.59659 22.7979 5.78809 22.6809 5.86756 22.4917C6.09027 21.9618 6.60542 21.6194 7.17998 21.6194C7.91778 21.6194 8.5406 22.195 8.59792 22.9298C8.61627 23.1644 8.80256 23.3507 9.03716 23.3691C9.16744 23.3792 9.29341 23.4078 9.41269 23.4514C9.4132 23.4516 9.41365 23.4519 9.41416 23.4521C9.43631 23.4602 9.45812 23.469 9.47975 23.4782C9.4844 23.4801 9.4891 23.4821 9.49374 23.4842C9.51396 23.4929 9.53396 23.5022 9.55361 23.5119C9.5603 23.5152 9.56687 23.5187 9.57349 23.5221C9.60074 23.536 9.62742 23.5508 9.65358 23.5664C9.66786 23.575 9.68224 23.5832 9.69618 23.5923C9.70677 23.5991 9.71696 23.6064 9.72727 23.6134C9.74296 23.6241 9.75854 23.6349 9.77383 23.6463C9.7825 23.6527 9.79105 23.6592 9.79949 23.6658C9.81795 23.6802 9.83619 23.695 9.85392 23.7104C9.85885 23.7146 9.86378 23.7186 9.86865 23.7229C9.91572 23.7645 9.96006 23.8095 10.0014 23.8571C10.0052 23.8616 10.0089 23.866 10.0126 23.8705C10.03 23.891 10.0468 23.9121 10.063 23.9337C10.0662 23.9379 10.0694 23.9419 10.0724 23.9461C10.1095 23.9967 10.1434 24.0499 10.1737 24.1055C10.1777 24.1128 10.1815 24.1204 10.1855 24.1278C10.1963 24.1484 10.2065 24.1693 10.2163 24.1906C10.2202 24.199 10.2241 24.2074 10.2279 24.2158C10.2399 24.2433 10.2514 24.2712 10.2617 24.2996C10.2621 24.3006 10.2625 24.3015 10.2629 24.3026C10.3189 24.4573 10.4506 24.5723 10.6115 24.607C10.6542 24.6162 10.6961 24.6274 10.7372 24.64C10.7507 24.6442 10.7637 24.6492 10.777 24.6537C10.8044 24.6629 10.8317 24.6722 10.8584 24.6828C10.8738 24.689 10.8888 24.696 10.9039 24.7026C10.9278 24.713 10.9515 24.7236 10.9747 24.7352C10.9904 24.7429 11.0055 24.7513 11.0208 24.7596C11.0428 24.7714 11.0646 24.7837 11.0858 24.7965C11.1009 24.8056 11.1158 24.8151 11.1306 24.8247C11.1512 24.8382 11.1715 24.8521 11.1915 24.8665C11.2057 24.8768 11.2197 24.887 11.2336 24.8977C11.2533 24.913 11.2725 24.929 11.2915 24.9451C11.3043 24.956 11.3173 24.9669 11.3299 24.9782C11.3493 24.9959 11.3679 25.0143 11.3864 25.0328C11.3973 25.0438 11.4086 25.0545 11.4192 25.0658C11.4401 25.0879 11.4598 25.1111 11.4793 25.1343C11.4866 25.1429 11.4943 25.1511 11.5014 25.1599C11.5274 25.1924 11.5523 25.2258 11.5757 25.2603C11.5807 25.2675 11.5849 25.2752 11.5897 25.2824C11.6077 25.31 11.6254 25.3378 11.6417 25.3664C11.6491 25.3794 11.6557 25.3928 11.6627 25.406C11.6754 25.4297 11.6879 25.4534 11.6994 25.4777C11.7065 25.4929 11.7129 25.5083 11.7195 25.5236C11.7296 25.5469 11.7393 25.5702 11.7483 25.594C11.7544 25.6103 11.76 25.6268 11.7656 25.6433C11.7736 25.6669 11.7811 25.6906 11.788 25.7146C11.7928 25.7316 11.7974 25.7487 11.8017 25.7659C11.8078 25.7902 11.8131 25.8148 11.818 25.8394C11.8215 25.8567 11.8248 25.8739 11.8277 25.8913C11.8291 25.8994 11.8298 25.9076 11.831 25.9158H2.13121ZM12.7944 25.9159V25.9158C12.794 25.9113 12.7931 25.9068 12.7927 25.9023C12.7872 25.8453 12.7801 25.7886 12.7708 25.7326C12.7702 25.7293 12.7695 25.726 12.7689 25.7227C12.7592 25.6656 12.7476 25.609 12.734 25.553C12.7334 25.5506 12.733 25.5481 12.7323 25.5458C12.7187 25.4904 12.7029 25.4357 12.6857 25.3817C12.6838 25.3759 12.6821 25.37 12.6802 25.3642C12.6632 25.3122 12.6443 25.261 12.6239 25.2103C12.621 25.203 12.6181 25.1957 12.6151 25.1884C12.5948 25.1389 12.5727 25.0902 12.5493 25.0422C12.5456 25.0346 12.5419 25.0271 12.5381 25.0195C12.5142 24.9718 12.489 24.9249 12.4622 24.8789C12.4581 24.872 12.4541 24.8651 12.4499 24.8582C12.4224 24.8118 12.3936 24.7662 12.3632 24.7218C12.3595 24.7163 12.3556 24.7111 12.3519 24.7057C12.3202 24.6601 12.2873 24.6153 12.2527 24.5718C12.2506 24.5691 12.2482 24.5665 12.2461 24.5637C12.2099 24.5186 12.1724 24.4747 12.1333 24.4322C12.1329 24.4317 12.1325 24.4312 12.1321 24.4307C12.0933 24.3887 12.0529 24.3481 12.0114 24.3087C12.0078 24.3052 12.0043 24.3017 12.0007 24.2983C11.9607 24.2608 11.9194 24.2248 11.877 24.1899C11.8713 24.1853 11.8657 24.1805 11.86 24.1758C11.8183 24.1421 11.7755 24.1098 11.7316 24.0787C11.7248 24.0739 11.718 24.069 11.7112 24.0643C11.6674 24.0338 11.6225 24.0047 11.5766 23.977C11.5694 23.9727 11.5621 23.9684 11.5549 23.9641C11.5084 23.9367 11.4611 23.9106 11.4128 23.886C11.4062 23.8826 11.3994 23.8795 11.3927 23.8762C11.3429 23.8516 11.2922 23.8282 11.2405 23.8068C11.2359 23.8049 11.2313 23.8032 11.2267 23.8014C11.1725 23.7793 11.1175 23.7588 11.0614 23.7405C11.0613 23.7404 11.061 23.7403 11.0608 23.7402C11.0584 23.7353 11.0556 23.7307 11.0532 23.7258C11.0339 23.6871 11.0136 23.6491 10.9923 23.6117C10.9815 23.5926 10.9699 23.574 10.9585 23.5552C10.9448 23.5326 10.9309 23.5101 10.9164 23.4879C10.9026 23.4666 10.8883 23.4456 10.8737 23.4248C10.861 23.4067 10.848 23.3889 10.8348 23.3712C10.8183 23.3488 10.8017 23.3265 10.7844 23.3048C10.7742 23.292 10.7635 23.2798 10.753 23.2673C10.7128 23.2189 10.6707 23.1722 10.6267 23.1271C10.6191 23.1193 10.6118 23.1113 10.6042 23.1037C10.5823 23.0819 10.5597 23.0611 10.5371 23.0402C10.524 23.0281 10.511 23.0161 10.4976 23.0043C10.4759 22.9853 10.454 22.9666 10.4315 22.9482C10.4152 22.9349 10.3986 22.922 10.382 22.909C10.3612 22.893 10.3406 22.8768 10.3192 22.8614C10.2892 22.8397 10.2585 22.8189 10.2275 22.7986C10.2192 22.7932 10.2113 22.7871 10.2029 22.7818C10.5512 22.1936 11.1886 21.8196 11.8929 21.8196C11.936 21.8196 11.9828 21.8215 12.0401 21.8257C12.2445 21.841 12.4362 21.7236 12.5157 21.5343C12.808 20.8387 13.4844 20.3892 14.2388 20.3892C15.2075 20.3892 16.0252 21.145 16.1005 22.1098C16.1188 22.3443 16.3051 22.5307 16.5397 22.549C17.2685 22.6058 17.9003 23.0869 18.1493 23.7748C18.2053 23.9296 18.337 24.0446 18.4979 24.0793C19.3794 24.2693 20.0334 25.0273 20.1069 25.916H12.7944V25.9159Z" fill="black"/>
</svg>
