<svg width="30" height="30" viewBox="0 0 30 30" fill="none" xmlns="http://www.w3.org/2000/svg">
<rect width="30" height="30" fill="white"/>
<g clip-path="url(#clip0)">
<path d="M11.9671 19.7658H10.234V18.0327C10.234 17.7935 10.04 17.5995 9.8007 17.5995H8.06762C7.82835 17.5995 7.63435 17.7935 7.63435 18.0327V19.7658H5.90127C5.662 19.7658 5.468 19.9598 5.468 20.1991V21.9322C5.468 22.1714 5.662 22.3654 5.90127 22.3654H7.63435V24.0985C7.63435 24.3378 7.82835 24.5318 8.06762 24.5318H9.8007C10.04 24.5318 10.234 24.3378 10.234 24.0985V22.3654H11.9671C12.2063 22.3654 12.4003 22.1714 12.4003 21.9322V20.1991C12.4003 19.9598 12.2063 19.7658 11.9671 19.7658ZM11.5338 21.4989H9.8007C9.56143 21.4989 9.36743 21.6929 9.36743 21.9322V23.6652H8.50089V21.9322C8.50089 21.6929 8.3069 21.4989 8.06762 21.4989H6.33454V20.6323H8.06762C8.3069 20.6323 8.50089 20.4384 8.50089 20.1991V18.466H9.36743V20.1991C9.36743 20.4384 9.56143 20.6323 9.8007 20.6323H11.5338V21.4989Z" fill="black"/>
<path d="M27.9547 20.2742C27.6224 17.2885 24.8183 14.4952 21.83 14.1768C21.5762 14.1488 21.3211 14.1343 21.0657 14.1334H16.2998V12.4003H15.4332V11.5338C15.4332 10.5767 14.6573 9.80072 13.7001 9.80072H11.5338C11.0552 9.80072 10.6672 9.41279 10.6672 8.93418C10.6672 8.45558 11.0552 8.06764 11.5338 8.06764H18.4661C19.4233 8.06764 20.1992 7.29171 20.1992 6.33456C20.1992 5.37742 19.4233 4.60148 18.4661 4.60148H16.2998C15.8212 4.60148 15.4332 4.21354 15.4332 3.73494V2.00186H14.5667V3.73494C14.5667 4.69209 15.3426 5.46802 16.2998 5.46802H18.4661C18.9447 5.46802 19.3326 5.85596 19.3326 6.33456C19.3326 6.81316 18.9447 7.2011 18.4661 7.2011H11.5338C10.5766 7.2011 9.8007 7.97704 9.8007 8.93418C9.8007 9.89133 10.5766 10.6673 11.5338 10.6673H13.7001C14.1787 10.6673 14.5667 11.0552 14.5667 11.5338V12.4003H13.7001V14.1334H8.93416C8.67853 14.134 8.42307 14.1485 8.16901 14.1768C5.17945 14.4974 2.37705 17.2907 2.0456 20.2763C1.61033 24.0801 4.34101 27.5166 8.14485 27.9519C9.6938 28.1291 11.2572 27.7791 12.5827 26.9583C13.1534 26.5847 13.8057 26.3542 14.4844 26.2863C14.8196 26.2598 15.1563 26.2586 15.4917 26.2828C16.1811 26.3495 16.8439 26.5826 17.4232 26.9622C20.6801 28.9749 24.9519 27.9664 26.9647 24.7096C27.7837 23.3843 28.1325 21.8219 27.9547 20.2742ZM14.5667 13.2669H15.4332V14.1334H14.5667V13.2669ZM25.5869 25.1099C23.628 27.3009 20.3796 27.7711 17.8799 26.2256C17.1818 25.771 16.3833 25.4939 15.5537 25.4184C15.3708 25.4051 15.1863 25.3985 14.9999 25.3985C14.8028 25.3985 14.61 25.4067 14.4159 25.4218C13.5989 25.5001 12.813 25.7745 12.1248 26.2217C9.27591 27.9843 5.5376 27.1037 3.77495 24.2549C3.0574 23.0951 2.75162 21.7274 2.90694 20.3725C3.19204 17.8067 5.69374 15.3145 8.26216 15.0385C8.4853 15.0136 8.70962 15.0007 8.93416 15H21.0657C21.2902 15.0001 21.5145 15.0121 21.7377 15.0359C24.3057 15.3119 26.807 17.8041 27.0929 20.3699C27.2972 22.0931 26.7483 23.8206 25.5869 25.1099Z" fill="black"/>
<path d="M21.0657 16.7329C20.1086 16.7329 19.3326 17.5088 19.3326 18.466C19.3326 19.4231 20.1086 20.1991 21.0657 20.1991C22.0229 20.1991 22.7988 19.4231 22.7988 18.466C22.7988 17.5088 22.0229 16.7329 21.0657 16.7329ZM21.0657 19.3325C20.5871 19.3325 20.1992 18.9446 20.1992 18.466C20.1992 17.9874 20.5871 17.5995 21.0657 17.5995C21.5443 17.5995 21.9323 17.9874 21.9323 18.466C21.9323 18.9446 21.5443 19.3325 21.0657 19.3325Z" fill="black"/>
<path d="M21.0657 21.9322C20.1086 21.9322 19.3326 22.7081 19.3326 23.6652C19.3326 24.6224 20.1086 25.3983 21.0657 25.3983C22.0229 25.3983 22.7988 24.6224 22.7988 23.6652C22.7988 22.7081 22.0229 21.9322 21.0657 21.9322ZM21.0657 24.5318C20.5871 24.5318 20.1992 24.1438 20.1992 23.6652C20.1992 23.1866 20.5871 22.7987 21.0657 22.7987C21.5443 22.7987 21.9323 23.1866 21.9323 23.6652C21.9323 24.1438 21.5443 24.5318 21.0657 24.5318Z" fill="black"/>
<path d="M18.0328 19.3326C17.0757 19.3326 16.2997 20.1085 16.2997 21.0656C16.2997 22.0228 17.0757 22.7987 18.0328 22.7987C18.99 22.7987 19.7659 22.0228 19.7659 21.0656C19.7659 20.1085 18.99 19.3326 18.0328 19.3326ZM18.0328 21.9322C17.5542 21.9322 17.1663 21.5442 17.1663 21.0656C17.1663 20.587 17.5542 20.1991 18.0328 20.1991C18.5114 20.1991 18.8994 20.587 18.8994 21.0656C18.8994 21.5442 18.5114 21.9322 18.0328 21.9322Z" fill="black"/>
<path d="M24.0986 19.3326C23.1415 19.3326 22.3655 20.1085 22.3655 21.0656C22.3655 22.0228 23.1415 22.7987 24.0986 22.7987C25.0558 22.7987 25.8317 22.0228 25.8317 21.0656C25.8317 20.1085 25.0558 19.3326 24.0986 19.3326ZM24.0986 21.9322C23.62 21.9322 23.2321 21.5442 23.2321 21.0656C23.2321 20.587 23.62 20.1991 24.0986 20.1991C24.5772 20.1991 24.9652 20.587 24.9652 21.0656C24.9652 21.5442 24.5772 21.9322 24.0986 21.9322Z" fill="black"/>
</g>
<defs>
<clipPath id="clip0">
<rect x="2" y="2" width="26" height="26" fill="white"/>
</clipPath>
</defs>
</svg>
