<svg width="30" height="30" viewBox="0 0 30 30" fill="none" xmlns="http://www.w3.org/2000/svg">
<path fill-rule="evenodd" clip-rule="evenodd" d="M13.8035 10.9196C13.8035 12.5352 12.4984 13.8393 10.8693 13.8393C9.24032 13.8393 7.92533 12.5352 7.92533 10.9196C7.92533 9.30411 9.24032 8 10.8693 8C12.4984 8 13.8035 9.30411 13.8035 10.9196ZM21.6542 10.9196C21.6542 12.5352 20.349 13.8393 18.72 13.8393C17.091 13.8393 15.776 12.5352 15.776 10.9196C15.776 9.30411 17.091 8 18.72 8C20.349 8 21.6542 9.30411 21.6542 10.9196ZM10.8693 15.7857C8.58282 15.7857 4 16.9244 4 19.192V20.6518C4 21.1871 4.4416 21.625 4.98133 21.625H16.7573C17.2971 21.625 17.7387 21.1871 17.7387 20.6518V19.192C17.7387 16.9244 13.1559 15.7857 10.8693 15.7857ZM17.7681 15.8344C18.1116 15.8052 18.4354 15.7857 18.72 15.7857C21.0065 15.7857 25.5894 16.9244 25.5894 19.192V20.6518C25.5894 21.1871 25.1477 21.625 24.608 21.625H19.5247C19.6327 21.3233 19.7013 20.9924 19.7013 20.6518V19.192C19.7013 17.7614 18.9261 16.6811 17.8074 15.8733C17.8044 15.8704 17.8014 15.8666 17.7982 15.8624C17.7907 15.8527 17.7818 15.8412 17.7681 15.8344Z" fill="#333333"/>
</svg>
