<svg width="30" height="30" viewBox="0 0 30 30" fill="none" xmlns="http://www.w3.org/2000/svg">
<path fill-rule="evenodd" clip-rule="evenodd" d="M8 6H22C23.1 6 24 6.9 24 8V22C24 23.1 23.1 24 22 24H8C6.9 24 6 23.1 6 22V19C6 18.45 6.45 18 7 18C7.55 18 8 18.45 8 19V21C8 21.55 8.45 22 9 22H21C21.55 22 22 21.55 22 21V9C22 8.45 21.55 8 21 8H9C8.45 8 8 8.45 8 9V11C8 11.55 7.55 12 7 12C6.45 12 6 11.55 6 11V8C6 6.9 6.89 6 8 6ZM18.79 15.7L15.2 19.29C14.81 19.68 14.18 19.68 13.79 19.29C13.41 18.91 13.4 18.27 13.79 17.88L15.67 16H7C6.45 16 6 15.55 6 15C6 14.45 6.45 14 7 14H15.67L13.79 12.11C13.4 11.72 13.4 11.09 13.79 10.7C13.9768 10.5127 14.2305 10.4075 14.495 10.4075C14.7595 10.4075 15.0132 10.5127 15.2 10.7L18.79 14.29C19.18 14.68 19.18 15.31 18.79 15.7Z" fill="#333333"/>
</svg>
