<svg width="30" height="30" viewBox="0 0 30 30" fill="none" xmlns="http://www.w3.org/2000/svg">
<rect width="30" height="30" fill="white"/>
<path d="M20.3198 16.689C21.2048 15.5221 21.6725 14.1293 21.6725 12.6611C21.6725 10.861 20.9665 9.17354 19.6845 7.90953C18.4028 6.64581 16.7039 5.96336 14.9036 5.98936C13.1589 6.01406 11.5152 6.71413 10.2752 7.96063C9.03523 9.20708 8.34366 10.8545 8.3278 12.5994C8.31423 14.0952 8.78469 15.513 9.68831 16.6997C11.1552 18.626 11.9632 20.9856 11.9632 23.3438V25.9242C11.9632 27.0688 12.8943 27.9999 14.0389 27.9999H15.9697C17.1143 27.9999 18.0454 27.0687 18.0454 25.9242V23.344C18.0455 20.9597 18.8263 18.6584 20.3198 16.689ZM10.3689 16.1814C9.58143 15.1473 9.17143 13.9113 9.18323 12.6072C9.21169 9.4741 11.7832 6.88911 14.9157 6.84479C16.4871 6.82369 17.9665 7.41711 19.0838 8.51881C20.2015 9.62073 20.817 11.0919 20.817 12.6612C20.817 13.9411 20.4094 15.1552 19.6382 16.1721C18.0645 18.2472 17.2172 20.6681 17.1825 23.1831H12.8175C12.7817 20.6926 11.9154 18.2121 10.3689 16.1814ZM12.8187 25.6343V25.288L17.19 25.7888V25.9242C17.19 25.9955 17.1826 26.065 17.1709 26.1329L12.8187 25.6343ZM12.8187 24.4269V24.0386H17.19V24.9277L12.8187 24.4269ZM14.0389 27.1445C13.5794 27.1445 13.1788 26.889 12.9706 26.5128L16.6531 26.9346C16.4579 27.067 16.2227 27.1445 15.9697 27.1445H14.0389V27.1445Z" fill="black"/>
<path d="M10.7702 13.3046C10.7369 13.0807 10.7209 12.8508 10.7231 12.6212C10.7252 12.3849 10.5355 12.1917 10.2992 12.1895C10.0646 12.1875 9.86979 12.3771 9.86762 12.6133C9.86512 12.8877 9.88411 13.1627 9.92409 13.4308C9.95574 13.6431 10.1382 13.7955 10.3466 13.7955C10.3676 13.7955 10.3889 13.794 10.4103 13.7908C10.6439 13.7559 10.8051 13.5382 10.7702 13.3046Z" fill="black"/>
<path d="M13.2875 19.8018C13.3317 19.8018 13.3768 19.7949 13.4211 19.7803C13.6456 19.7065 13.7677 19.4648 13.6939 19.2404C13.2198 17.7988 12.5133 16.4557 11.5939 15.2485C11.442 15.0489 11.3074 14.8363 11.1938 14.6166C11.0853 14.4067 10.8273 14.3246 10.6174 14.4331C10.4075 14.5415 10.3254 14.7996 10.4338 15.0095C10.5701 15.2731 10.7314 15.5279 10.9134 15.7668C11.7749 16.8981 12.437 18.1567 12.8812 19.5076C12.9404 19.6876 13.1077 19.8018 13.2875 19.8018Z" fill="black"/>
<path d="M19.4945 14.1258C19.2775 14.0324 19.0258 14.1325 18.9324 14.3495C18.7969 14.6642 18.6215 14.9643 18.4112 15.2416C18.2684 15.4298 18.3053 15.6982 18.4936 15.8409C18.5708 15.8996 18.6616 15.9278 18.7517 15.9278C18.881 15.9278 19.0087 15.8695 19.0928 15.7585C19.3449 15.4262 19.5552 15.066 19.7181 14.6879C19.8116 14.471 19.7115 14.2193 19.4945 14.1258Z" fill="black"/>
<path d="M15 8.38408C17.3584 8.38408 19.2771 10.3028 19.2771 12.6612C19.2771 12.7953 19.271 12.9304 19.2588 13.0628C19.2373 13.2981 19.4104 13.5062 19.6457 13.5278C19.6589 13.529 19.6721 13.5297 19.6852 13.5297C19.9038 13.5297 20.0903 13.363 20.1107 13.141C20.1252 12.9827 20.1326 12.8213 20.1326 12.6612C20.1326 9.83111 17.8301 7.52859 15 7.52859C14.7638 7.52859 14.5723 7.72011 14.5723 7.95634C14.5723 8.19257 14.7638 8.38408 15 8.38408Z" fill="black"/>
<path d="M15 4.25085C15.2363 4.25085 15.4278 4.05933 15.4278 3.82311V1.42774C15.4278 1.19151 15.2363 1 15 1C14.7638 1 14.5723 1.19151 14.5723 1.42774V3.82311C14.5723 4.05933 14.7638 4.25085 15 4.25085Z" fill="black"/>
<path d="M9.67264 5.09606C9.75191 5.23334 9.89563 5.31005 10.0435 5.31005C10.116 5.31005 10.1896 5.29157 10.2569 5.25267C10.4615 5.13456 10.5317 4.87295 10.4135 4.66838L9.21643 2.59468C9.09826 2.39004 8.83671 2.31995 8.63214 2.43807C8.42756 2.55618 8.35741 2.81779 8.47553 3.02236L9.67264 5.09606Z" fill="black"/>
<path d="M25.1411 16.5194L23.0674 15.3223C22.8628 15.2041 22.6012 15.2742 22.4831 15.4789C22.365 15.6834 22.4351 15.9451 22.6397 16.0632L24.7134 17.2603C24.7808 17.2992 24.8543 17.3177 24.9269 17.3177C25.0747 17.3177 25.2185 17.2409 25.2977 17.1037C25.4158 16.8991 25.3457 16.6375 25.1411 16.5194Z" fill="black"/>
<path d="M4.85887 6.95224L6.93257 8.14935C6.99992 8.18825 7.07344 8.20672 7.14604 8.20672C7.29387 8.20672 7.43765 8.12996 7.51687 7.99274C7.63498 7.78816 7.56489 7.52655 7.36026 7.40844L5.28656 6.21133C5.08198 6.09316 4.82037 6.16331 4.70226 6.36794C4.58414 6.57252 4.65424 6.83407 4.85887 6.95224Z" fill="black"/>
<path d="M26.308 11.308H23.9126C23.6764 11.308 23.4849 11.4996 23.4849 11.7358C23.4849 11.972 23.6764 12.1635 23.9126 12.1635H26.308C26.5442 12.1635 26.7358 11.972 26.7358 11.7358C26.7358 11.4996 26.5443 11.308 26.308 11.308Z" fill="black"/>
<path d="M6.51503 11.7358C6.51503 11.4996 6.32352 11.308 6.08729 11.308H3.69193C3.4557 11.308 3.26419 11.4996 3.26419 11.7358C3.26419 11.972 3.4557 12.1635 3.69193 12.1635H6.08729C6.32358 12.1635 6.51503 11.972 6.51503 11.7358Z" fill="black"/>
<path d="M22.854 8.20673C22.9265 8.20673 23.0001 8.18825 23.0674 8.14936L25.1411 6.95225C25.3457 6.83413 25.4158 6.57252 25.2977 6.36795C25.1796 6.16337 24.918 6.09322 24.7134 6.21134L22.6397 7.40845C22.4352 7.52656 22.365 7.78817 22.4831 7.99275C22.5623 8.12997 22.7062 8.20673 22.854 8.20673Z" fill="black"/>
<path d="M6.93257 15.3223L4.85887 16.5194C4.6543 16.6375 4.58415 16.8991 4.70226 17.1037C4.78148 17.2409 4.92526 17.3177 5.07308 17.3177C5.14563 17.3177 5.2192 17.2992 5.28656 17.2603L7.36025 16.0632C7.56483 15.9451 7.63498 15.6835 7.51687 15.4789C7.39881 15.2742 7.13703 15.2042 6.93257 15.3223Z" fill="black"/>
<path d="M19.7431 5.25267C19.8104 5.29157 19.8839 5.31005 19.9565 5.31005C20.1044 5.31005 20.2481 5.23328 20.3274 5.09606L21.5245 3.02236C21.6426 2.81779 21.5724 2.55618 21.3679 2.43807C21.1633 2.31995 20.9017 2.39004 20.7836 2.59468L19.5865 4.66838C19.4683 4.87295 19.5385 5.13456 19.7431 5.25267Z" fill="black"/>
</svg>
