<svg width="30" height="30" viewBox="0 0 30 30" fill="none" xmlns="http://www.w3.org/2000/svg">
<path fill-rule="evenodd" clip-rule="evenodd" d="M21 11C21 7.69 18.31 5 15 5C11.69 5 9 7.69 9 11C9 14.49 12.62 19.19 14.23 21.12C14.63 21.6 15.36 21.6 15.76 21.12C17.38 19.19 21 14.49 21 11ZM13 11C13 9.9 13.9 9 15 9C16.1 9 17 9.9 17 11C17 12.1 16.11 13 15 13C13.9 13 13 12.1 13 11ZM9 25C8.45 25 8 24.55 8 24C8 23.45 8.45 23 9 23H21C21.55 23 22 23.45 22 24C22 24.55 21.55 25 21 25H9Z" fill="#333333"/>
</svg>
