<svg width="30" height="30" viewBox="0 0 30 30" fill="none" xmlns="http://www.w3.org/2000/svg">
<rect width="30" height="30" fill="white"/>
<path d="M17.0312 16.2028C16.7509 16.2028 16.5234 16.4303 16.5234 16.7106C16.5234 16.9909 16.7509 17.2184 17.0312 17.2184C17.3116 17.2184 17.5391 16.9909 17.5391 16.7106C17.5391 16.4303 17.3116 16.2028 17.0312 16.2028Z" fill="black"/>
<path d="M21.562 18.937C21.086 18.4612 19.9316 17.1735 19.0209 15.0852C18.3436 13.4603 16.7689 12.4106 15.0077 12.4106C13.2469 12.4106 11.6724 13.4604 10.995 15.0857C9.85245 17.7063 8.29154 19.0931 8.27656 19.1062C8.27473 19.1078 8.27295 19.1094 8.27117 19.111C7.35051 19.9353 6.82249 21.1162 6.82249 22.3508C6.82249 23.8601 7.54119 25.1726 8.78798 26.0042C9.94965 26.7793 11.3894 27.0116 12.7379 26.6419C13.4137 26.4568 14.1959 26.3588 15.0001 26.3588C15.8178 26.3588 16.6116 26.46 17.2956 26.6513C18.6045 27.0177 20.0411 26.8168 21.2271 26.0332C22.4882 25.2 23.2194 23.875 23.2194 22.3508C23.2194 21.0102 22.6158 19.7678 21.562 18.937ZM20.6671 25.1858C19.7519 25.7906 18.6227 25.9682 17.5692 25.6733C16.7972 25.4573 15.9089 25.3432 14.9999 25.3432C14.1064 25.3432 13.2314 25.4536 12.4693 25.6624C11.4046 25.9544 10.2683 25.771 9.35145 25.1594C8.39422 24.5208 7.83796 23.5225 7.83796 22.3507C7.83796 21.4055 8.24198 20.5012 8.94646 19.8694C9.05483 19.7744 10.7028 18.299 11.9276 15.4875C11.9287 15.4849 11.9299 15.4822 11.931 15.4796C12.4494 14.2322 13.6569 13.4262 15.0075 13.4262C16.3586 13.4261 17.5664 14.232 18.0847 15.4791C18.0857 15.4817 18.0869 15.4843 18.088 15.487C19.0826 17.7696 20.3632 19.1788 20.8676 19.6788C20.8821 19.6931 20.8974 19.7066 20.9135 19.7191C21.7334 20.3561 22.2036 21.3154 22.2036 22.3507C22.2037 23.5323 21.6384 24.5441 20.6671 25.1858Z" fill="black"/>
<path d="M18.4146 18.2244C18.2615 17.9894 17.947 17.9228 17.7119 18.076C17.4768 18.2291 17.4104 18.5437 17.5635 18.7787C18.3362 19.9651 19.0689 20.7552 19.437 21.1206C19.6359 21.3182 19.9575 21.3171 20.1552 21.1181C20.3527 20.919 20.3516 20.5975 20.1526 20.3999C19.8131 20.0629 19.136 19.3322 18.4146 18.2244Z" fill="black"/>
<path d="M13.3542 9.9348C13.8422 9.08193 14.0456 7.94915 13.9124 6.82724C13.6546 4.64298 12.1482 2.81318 10.4651 3.01529C9.70513 3.10522 9.02944 3.6041 8.5622 4.42C8.07455 5.27221 7.87112 6.40499 8.00406 7.52771C8.42509 11.0948 11.7458 12.7444 13.3542 9.9348ZM9.44366 4.92451C9.72164 4.43889 10.1553 4.0166 10.7142 4.0166C11.7136 4.0166 12.7164 5.35819 12.9038 6.94662C13.012 7.85728 12.8549 8.76256 12.4728 9.43034C11.3025 11.475 9.28918 9.75117 9.01263 7.40848C8.90472 6.49711 9.06189 5.59173 9.44366 4.92451Z" fill="black"/>
<path d="M8.48999 15.3966C8.637 14.4915 8.45835 13.4906 7.987 12.5781C7.51544 11.6654 6.80237 10.9404 5.97906 10.5366C5.10465 10.1077 4.20918 10.0855 3.45761 10.4742C2.70605 10.8625 2.20626 11.6056 2.05016 12.5667C1.90315 13.4718 2.0818 14.4727 2.55315 15.3853C3.02475 16.2978 3.73782 17.0226 4.56114 17.4264C5.37821 17.8272 6.28344 17.9021 7.08243 17.4893C7.8341 17.101 8.33399 16.3577 8.48999 15.3966ZM6.61631 16.587C6.15775 16.824 5.58677 16.7983 5.00842 16.5146C4.37924 16.206 3.82776 15.6393 3.45548 14.919C3.08341 14.1987 2.9403 13.4212 3.05263 12.7295C3.15587 12.0938 3.46533 11.6134 3.92394 11.3764C3.92399 11.3764 3.92404 11.3764 3.92409 11.3763C4.43119 11.1142 5.01853 11.1966 5.53183 11.4484C6.16095 11.757 6.71244 12.3238 7.08472 13.0442C7.45679 13.7646 7.59989 14.5422 7.48756 15.2338C7.38438 15.8695 7.07491 16.35 6.61631 16.587Z" fill="black"/>
<path d="M18.8085 11.364C20.348 11.364 21.7533 9.68322 22.0077 7.53746C22.2781 5.25159 21.1264 3.01067 19.297 3.01067C17.7573 3.01067 16.3522 4.69147 16.0983 6.83719C15.8276 9.12722 16.9828 11.364 18.8085 11.364ZM17.107 6.95647C17.295 5.36813 18.2979 4.02624 19.2971 4.02624C19.3441 4.02624 19.3847 4.02853 19.421 4.03325C19.9624 4.09342 20.3816 4.56665 20.6285 5.04984C20.9644 5.707 21.0994 6.57018 20.9992 7.41797C20.804 9.06349 19.7134 10.4749 18.6847 10.3413C18.6829 10.3411 18.681 10.3409 18.6791 10.3406C18.2174 10.2863 17.7794 9.9161 17.4775 9.32501C17.1418 8.6678 17.0067 7.80452 17.107 6.95647Z" fill="black"/>
<path d="M27.9499 12.5687C27.6288 10.591 25.841 9.64554 24.021 10.5386C22.3184 11.3738 21.2059 13.5254 21.5101 15.3987C21.8351 17.3998 23.6407 18.3107 25.439 17.4285C27.1421 16.5931 28.2541 14.4417 27.9499 12.5687ZM24.9917 16.5166C24.4134 16.8002 23.8424 16.8259 23.3838 16.589V16.589C22.9252 16.352 22.6157 15.8714 22.5125 15.2358C22.2804 13.8061 23.1645 12.0901 24.4683 11.4503C25.6632 10.8641 26.7338 11.416 26.9475 12.7315C27.1792 14.1586 26.2979 15.8759 24.9917 16.5166Z" fill="black"/>
</svg>
