<svg width="30" height="30" viewBox="0 0 30 30" fill="none" xmlns="http://www.w3.org/2000/svg">
<path fill-rule="evenodd" clip-rule="evenodd" d="M12 3C11.4477 3 11 3.44772 11 4V9H22V20H27C27.5523 20 28 19.5523 28 19V4C28 3.44772 27.5523 3 27 3H12ZM11 10H4C3.44772 10 3 10.4477 3 11V26C3 26.5523 3.44772 27 4 27H19C19.5523 27 20 26.5523 20 26V19H19V26H4L4 11H11V10ZM8.17483 20.8V24H7V18.0889H8.17483V19.1667C8.34266 18.8037 8.59441 18.5185 8.93007 18.3111C9.27273 18.1037 9.63986 18 10.0315 18C10.9126 18 11.5105 18.3852 11.8252 19.1556C12.3776 18.3852 13.0664 18 13.8916 18C14.521 18 15.028 18.2037 15.4126 18.6111C15.8042 19.0185 16 19.6074 16 20.3778V24H14.8252V20.7556C14.8252 19.6667 14.3986 19.1222 13.5455 19.1222C13.1469 19.1222 12.7972 19.2593 12.4965 19.5333C12.2028 19.8 12.049 20.1926 12.035 20.7111V24H10.8601V20.7556C10.8601 20.1926 10.7657 19.7815 10.5769 19.5222C10.3881 19.2556 10.0909 19.1222 9.68531 19.1222C9.27972 19.1222 8.92657 19.2667 8.62587 19.5556C8.32517 19.837 8.17483 20.2519 8.17483 20.8ZM17.306 17V16.34H15.326L16.448 15.272C16.72 15.016 16.904 14.788 17 14.588C17.096 14.388 17.144 14.174 17.144 13.946C17.144 13.574 17.008 13.28 16.736 13.064C16.464 12.848 16.1 12.74 15.644 12.74C15.3 12.74 14.988 12.802 14.708 12.926C14.432 13.046 14.212 13.216 14.048 13.436L14.594 13.856C14.822 13.564 15.15 13.418 15.578 13.418C15.834 13.418 16.028 13.47 16.16 13.574C16.292 13.678 16.358 13.828 16.358 14.024C16.358 14.156 16.324 14.29 16.256 14.426C16.192 14.558 16.066 14.714 15.878 14.894L14.21 16.478V17H17.306ZM12 11H13.4062V10H12V11ZM14.3438 11H17.1562V10H14.3438V11ZM18.0938 11H19V11.7188H20V10H18.0938V11ZM19 12.5312V14.9688H20V12.5312H19ZM19 15.7812V17H20V15.7812H19Z" fill="#333333"/>
</svg>
