<svg width="30" height="30" viewBox="0 0 30 30" fill="none" xmlns="http://www.w3.org/2000/svg">
<path fill-rule="evenodd" clip-rule="evenodd" d="M21.0012 13.75V18.75L22.2912 20.04C22.9212 20.67 22.4712 21.75 21.5812 21.75H8.41123C7.52123 21.75 7.08123 20.67 7.71123 20.04L9.00123 18.75V13.75C9.00123 10.67 10.6312 8.11 13.5012 7.43V6.75C13.5012 5.92 14.1712 5.25 15.0012 5.25C15.8312 5.25 16.5012 5.92 16.5012 6.75V7.43C19.3612 8.11 21.0012 10.68 21.0012 13.75ZM17.0012 22.75C17.0012 23.85 16.1012 24.75 15.0012 24.75C13.8912 24.75 13.0012 23.85 13.0012 22.75H17.0012Z" fill="#333333"/>
</svg>
