<svg width="30" height="30" viewBox="0 0 30 30" fill="none" xmlns="http://www.w3.org/2000/svg">
<path fill-rule="evenodd" clip-rule="evenodd" d="M22.2443 13.5686H21.9214V10.708C21.9214 7.0107 18.9154 4 15.2133 4C11.516 4 8.50532 7.00604 8.50532 10.708C8.50532 11.0491 8.77825 11.322 9.11933 11.322C9.46042 11.322 9.73312 11.0491 9.73312 10.708C9.73312 7.68821 12.1891 5.22802 15.2133 5.22802C18.2332 5.22802 20.6934 7.68378 20.6934 10.708V13.5686H8.18692C7.53204 13.5686 7 14.1007 7 14.7555V22.4004C7 24.3605 8.59617 25.9567 10.5563 25.9567H19.8749C21.835 25.9567 23.4312 24.3605 23.4312 22.4004V14.7555C23.4312 14.1007 22.8992 13.5686 22.2443 13.5686ZM22.1771 22.19C22.1771 23.4724 21.1357 24.5185 19.8486 24.5185H10.5347C9.25205 24.5185 8.20617 23.477 8.20617 22.19V14.5862H22.1771V22.19ZM15.0915 21.8861C16.3604 21.8861 17.3883 20.8538 17.3883 19.5894C17.3883 18.3205 16.3559 17.2928 15.0915 17.2928C13.8226 17.2928 12.7949 18.3252 12.7949 19.5894C12.7949 20.8538 13.8226 21.8861 15.0915 21.8861ZM15.0653 18.4923C15.6566 18.4923 16.1341 18.9744 16.1341 19.5611C16.1341 20.1478 15.6566 20.6343 15.0653 20.6343C14.4742 20.6343 13.9967 20.1522 13.9967 19.5655C13.9967 18.9789 14.4742 18.4923 15.0653 18.4923Z" fill="black"/>
</svg>
