<svg width="30" height="30" viewBox="0 0 30 30" fill="none" xmlns="http://www.w3.org/2000/svg">
<path fill-rule="evenodd" clip-rule="evenodd" d="M6.00123 23.676C6.09911 20.7326 12.0211 19.25 15 19.25C17.9789 19.25 23.9009 20.7326 23.9988 23.676C26.1667 21.4279 27.5 18.3697 27.5 15C27.5 8.09644 21.9036 2.5 15 2.5C8.09644 2.5 2.5 8.09644 2.5 15C2.5 18.3697 3.83335 21.4279 6.00123 23.676ZM29 15C29 22.732 22.732 29 15 29C7.26801 29 1 22.732 1 15C1 7.26801 7.26801 1 15 1C22.732 1 29 7.26801 29 15ZM15 17C17.4862 17 19.5 14.9862 19.5 12.5C19.5 10.0138 17.4862 8 15 8C12.5138 8 10.5 10.0138 10.5 12.5C10.5 14.9862 12.5138 17 15 17Z" fill="#333333"/>
</svg>
