<svg width="30" height="30" viewBox="0 0 30 30" fill="none" xmlns="http://www.w3.org/2000/svg">
<path d="M7.58 19.0303L9.58 17.4403C10.06 17.0603 10.34 16.4803 10.34 15.8703V13.2703C13.36 12.2903 16.63 12.2803 19.66 13.2703V15.8803C19.66 16.4903 19.94 17.0703 20.42 17.4503L22.41 19.0303C23.21 19.6603 24.35 19.6003 25.07 18.8803L26.29 17.6603C27.09 16.8603 27.09 15.5303 26.24 14.7803C19.83 9.12035 10.17 9.12035 3.76 14.7803C2.91 15.5303 2.91 16.8603 3.71 17.6603L4.93 18.8803C5.64 19.6003 6.78 19.6603 7.58 19.0303Z" fill="#333333"/>
</svg>
