<svg width="30" height="30" viewBox="0 0 30 30" fill="none" xmlns="http://www.w3.org/2000/svg">
<path fill-rule="evenodd" clip-rule="evenodd" d="M9 9H21C21.5523 9 22 9.44772 22 10V20C22 20.5523 21.5523 21 21 21H9C8.44772 21 8 20.5523 8 20V10C8 9.44772 8.44772 9 9 9ZM6 10C6 8.34315 7.34315 7 9 7H21C22.6569 7 24 8.34315 24 10V20C24 21.6569 22.6569 23 21 23H9C7.34315 23 6 21.6569 6 20V10ZM16.052 9.976H14.092V11.782L14.512 16.836H15.632L16.052 11.782V9.976ZM14.344 19.804C14.5493 20.0093 14.792 20.112 15.072 20.112C15.3613 20.112 15.6087 20.0093 15.814 19.804C16.0193 19.5987 16.122 19.356 16.122 19.076C16.122 18.7867 16.0193 18.5393 15.814 18.334C15.6087 18.1287 15.3613 18.026 15.072 18.026C14.792 18.026 14.5493 18.1287 14.344 18.334C14.1387 18.5393 14.036 18.7867 14.036 19.076C14.036 19.356 14.1387 19.5987 14.344 19.804Z" fill="#333333"/>
</svg>
