<svg width="30" height="30" viewBox="0 0 30 30" fill="none" xmlns="http://www.w3.org/2000/svg">
<path fill-rule="evenodd" clip-rule="evenodd" d="M21.7431 20.5741L17.9101 16.7396C18.5972 15.8025 18.9652 14.6695 18.9601 13.5076C18.947 10.4744 16.4937 8.01757 13.4606 8.00006C12.0091 7.99349 10.6152 8.56771 9.58953 9.59481C8.56385 10.6219 7.99154 12.0166 8.00009 13.4681C8.0132 16.5015 10.4667 18.9585 13.5001 18.9761C14.6668 18.9811 15.8039 18.6088 16.7416 17.9146L16.7456 17.9116L20.5751 21.7431C20.7821 21.9603 21.0907 22.0482 21.3811 21.9728C21.6716 21.8973 21.8983 21.6704 21.9735 21.3799C22.0487 21.0894 21.9605 20.7809 21.7431 20.5741ZM13.4961 17.8781C11.0695 17.8641 9.10675 15.8987 9.09609 13.4721C9.08955 12.311 9.54743 11.1955 10.3678 10.3739C11.1882 9.55228 12.303 9.09273 13.4641 9.09756C15.8907 9.11151 17.8534 11.077 17.8641 13.5036C17.8706 14.6646 17.4128 15.7801 16.5924 16.6017C15.772 17.4233 14.6572 17.8829 13.4961 17.8781Z" fill="black"/>
</svg>
