<svg width="30" height="30" viewBox="0 0 30 30" fill="none" xmlns="http://www.w3.org/2000/svg">
<rect width="30" height="30" fill="white"/>
<g clip-path="url(#clip0)">
<path d="M9.27301 4.81768C7.51781 4.81768 6.09104 6.24575 6.09104 7.99964V20.7276C6.09104 21.0788 6.37617 21.364 6.72746 21.364C7.08 21.364 7.36388 21.0788 7.36388 20.7276V7.99964C7.36388 6.94702 8.22045 6.09045 9.27307 6.09045C9.62562 6.09045 9.90949 5.80533 9.90949 5.45404C9.90949 5.10275 9.62556 4.81768 9.27301 4.81768Z" fill="black"/>
<path d="M15.637 4.81768C13.8818 4.81768 12.455 6.24575 12.455 7.99964V20.7276C12.455 21.0788 12.7402 21.364 13.0914 21.364C13.444 21.364 13.7279 21.0788 13.7279 20.7276V7.99964C13.7279 6.94702 14.5844 6.09045 15.6371 6.09045C15.9896 6.09045 16.2735 5.80533 16.2735 5.45404C16.2735 5.10275 15.9895 4.81768 15.637 4.81768Z" fill="black"/>
<path d="M13.0914 16.2728H6.72737C6.37608 16.2728 6.09096 16.5579 6.09096 16.9092C6.09096 17.2605 6.37608 17.5456 6.72737 17.5456H13.0914C13.4439 17.5456 13.7278 17.2605 13.7278 16.9092C13.7278 16.5579 13.4427 16.2728 13.0914 16.2728Z" fill="black"/>
<path d="M13.0914 8.63606H7.3638C7.01251 8.63606 6.72739 8.92119 6.72739 9.27249C6.72739 9.62378 7.01251 9.90891 7.3638 9.90891H13.0914C13.4439 9.90891 13.7278 9.62378 13.7278 9.27249C13.7278 8.92119 13.4439 8.63606 13.0914 8.63606Z" fill="black"/>
<path d="M13.0914 12.4544H6.72737C6.37608 12.4544 6.09096 12.7395 6.09096 13.0908C6.09096 13.4421 6.37608 13.7272 6.72737 13.7272H13.0914C13.4439 13.7272 13.7278 13.4421 13.7278 13.0908C13.7278 12.7395 13.4427 12.4544 13.0914 12.4544Z" fill="black"/>
<path d="M7.0672 12.5575C6.77193 12.3704 6.38246 12.457 6.19023 12.7484C6.16475 12.7892 5.53603 13.7272 4.18176 13.7272C2.83512 13.7272 2.20509 12.7993 2.17329 12.7497C1.98494 12.4531 1.59164 12.364 1.29888 12.5511C1.00105 12.737 0.910659 13.1303 1.09651 13.4281C1.13594 13.4918 2.10199 15 4.18176 15C6.26152 15 7.22757 13.4918 7.26576 13.4294C7.4516 13.1328 7.36122 12.7446 7.0672 12.5575Z" fill="black"/>
<path d="M18.5224 12.5575C18.2271 12.3704 17.8376 12.457 17.6454 12.7484C17.6199 12.7892 16.9912 13.7272 15.6369 13.7272C14.2903 13.7272 13.6603 12.7993 13.6285 12.7497C13.4401 12.4531 13.0468 12.364 12.7541 12.5511C12.4562 12.737 12.3658 13.1303 12.5517 13.4281C12.5911 13.4918 13.5572 15 15.6369 15C17.7167 15 18.6827 13.4918 18.7209 13.4294C18.9068 13.1328 18.8164 12.7446 18.5224 12.5575Z" fill="black"/>
<path d="M23.6136 12.5575C23.3196 12.3704 22.9288 12.457 22.7366 12.7484C22.7111 12.7892 22.0824 13.7272 20.7281 13.7272C19.3815 13.7272 18.7515 12.7993 18.7197 12.7497C18.5313 12.4531 18.138 12.364 17.8453 12.5511C17.5474 12.737 17.457 13.1303 17.6429 13.4281C17.6823 13.4918 18.6484 15 20.7281 15C22.8079 15 23.774 13.4918 23.8121 13.4294C23.9979 13.1328 23.9076 12.7446 23.6136 12.5575Z" fill="black"/>
<path d="M28.7047 12.5575C28.4107 12.3704 28.0187 12.457 27.8278 12.7484C27.8023 12.7892 27.1736 13.7272 25.8193 13.7272C24.4727 13.7272 23.8426 12.7993 23.8108 12.7497C23.6225 12.4531 23.2304 12.364 22.9364 12.5511C22.6386 12.737 22.5482 13.1303 22.734 13.4281C22.7735 13.4918 23.7395 15 25.8193 15C27.8991 15 28.8651 13.4918 28.9033 13.4294C29.0891 13.1328 28.9987 12.7446 28.7047 12.5575Z" fill="black"/>
<path d="M7.0672 17.6486C6.77193 17.4615 6.38246 17.5481 6.19023 17.8396C6.16475 17.8803 5.53603 18.8183 4.18176 18.8183C2.83512 18.8183 2.20509 17.8905 2.17329 17.8408C1.98494 17.5442 1.59164 17.4552 1.29888 17.6423C1.00105 17.8281 0.910659 18.2214 1.09651 18.5192C1.13594 18.5829 2.10199 20.0912 4.18176 20.0912C6.26152 20.0912 7.22757 18.5829 7.26576 18.5206C7.4516 18.224 7.36122 17.8358 7.0672 17.6486Z" fill="black"/>
<path d="M18.5224 17.6486C18.2271 17.4615 17.8376 17.5481 17.6454 17.8396C17.6199 17.8803 16.9912 18.8183 15.6369 18.8183C14.2903 18.8183 13.6603 17.8905 13.6285 17.8408C13.4401 17.5442 13.0468 17.4552 12.7541 17.6423C12.4562 17.8281 12.3658 18.2214 12.5517 18.5192C12.5911 18.5829 13.5572 20.0912 15.6369 20.0912C17.7167 20.0912 18.6827 18.5829 18.7209 18.5206C18.9068 18.224 18.8164 17.8358 18.5224 17.6486Z" fill="black"/>
<path d="M23.6136 17.6486C23.3196 17.4615 22.9288 17.5481 22.7366 17.8396C22.7111 17.8803 22.0824 18.8183 20.7281 18.8183C19.3815 18.8183 18.7515 17.8905 18.7197 17.8408C18.5313 17.5442 18.138 17.4552 17.8453 17.6423C17.5474 17.8281 17.457 18.2214 17.6429 18.5192C17.6823 18.5829 18.6484 20.0912 20.7281 20.0912C22.8079 20.0912 23.774 18.5829 23.8121 18.5206C23.9979 18.224 23.9076 17.8358 23.6136 17.6486Z" fill="black"/>
<path d="M18.5224 22.7399C18.2271 22.5528 17.8376 22.6394 17.6454 22.9308C17.6199 22.9716 16.9912 23.9096 15.6369 23.9096C14.2903 23.9096 13.6603 22.9817 13.6285 22.9321C13.4401 22.6355 13.0468 22.5477 12.7541 22.7335C12.4562 22.9194 12.3658 23.3127 12.5517 23.6105C12.5911 23.6742 13.5572 25.1824 15.6369 25.1824C17.7167 25.1824 18.6827 23.6742 18.7209 23.6118C18.9068 23.3152 18.8164 22.927 18.5224 22.7399Z" fill="black"/>
<path d="M13.4312 22.7399C13.1359 22.5528 12.7464 22.6394 12.5542 22.9308C12.5287 22.9716 11.9 23.9096 10.5458 23.9096C9.19912 23.9096 8.56909 22.9817 8.53729 22.9321C8.34893 22.6355 7.95564 22.5477 7.66288 22.7335C7.36505 22.9194 7.27466 23.3127 7.4605 23.6105C7.49994 23.6742 8.46599 25.1824 10.5458 25.1824C12.6255 25.1824 13.5916 23.6742 13.6297 23.6118C13.8156 23.3152 13.7252 22.927 13.4312 22.7399Z" fill="black"/>
<path d="M8.34005 22.7399C8.04478 22.5528 7.65531 22.6394 7.46308 22.9308C7.4376 22.9716 6.80888 23.9096 5.45461 23.9096C4.10797 23.9096 3.47794 22.9817 3.44614 22.9321C3.25779 22.6355 2.86449 22.5477 2.57173 22.7335C2.2739 22.9194 2.18351 23.3127 2.36936 23.6105C2.40879 23.6742 3.37484 25.1824 5.45461 25.1824C7.53437 25.1824 8.50042 23.6742 8.53861 23.6118C8.72439 23.3152 8.63407 22.927 8.34005 22.7399Z" fill="black"/>
<path d="M23.6136 22.7399C23.3196 22.5528 22.9288 22.6394 22.7366 22.9308C22.7111 22.9716 22.0824 23.9096 20.7281 23.9096C19.3815 23.9096 18.7515 22.9817 18.7197 22.9321C18.5313 22.6355 18.138 22.5477 17.8453 22.7335C17.5474 22.9194 17.457 23.3127 17.6429 23.6105C17.6823 23.6742 18.6484 25.1824 20.7281 25.1824C22.8079 25.1824 23.774 23.6742 23.8121 23.6118C23.9979 23.3152 23.9076 22.927 23.6136 22.7399Z" fill="black"/>
<path d="M28.7047 17.6486C28.4107 17.4615 28.0187 17.5481 27.8278 17.8396C27.8023 17.8803 27.1736 18.8183 25.8193 18.8183C24.4727 18.8183 23.8426 17.8905 23.8108 17.8408C23.6225 17.5442 23.2304 17.4552 22.9364 17.6423C22.6386 17.8281 22.5482 18.2214 22.734 18.5192C22.7735 18.5829 23.7395 20.0912 25.8193 20.0912C27.8991 20.0912 28.8651 18.5829 28.9033 18.5206C29.0891 18.224 28.9987 17.8358 28.7047 17.6486Z" fill="black"/>
</g>
<defs>
<clipPath id="clip0">
<rect x="1" y="1" width="28" height="28" fill="white"/>
</clipPath>
</defs>
</svg>
