<svg width="30" height="30" viewBox="0 0 30 30" fill="none" xmlns="http://www.w3.org/2000/svg">
<rect width="30" height="30" fill="white"/>
<rect x="4.5" y="6.5" width="22" height="17" rx="1.5" stroke="black"/>
<line x1="4.5" y1="11.5" x2="26.5" y2="11.5" stroke="black" stroke-linecap="round"/>
<rect x="9.5" y="4.5" width="2" height="4" rx="0.5" fill="white" stroke="black"/>
<rect x="19.5" y="4.5" width="2" height="4" rx="0.5" fill="white" stroke="black"/>
<path fill-rule="evenodd" clip-rule="evenodd" d="M8.7143 14C8.79319 13.9211 8.92111 13.9211 9.00001 14C9.07891 14.0789 9.07891 14.2068 9.00001 14.2857L8.28572 15L9.00001 15.7143C9.07891 15.7932 9.07891 15.9211 9.00001 16C8.92111 16.0789 8.7932 16.0789 8.7143 16L8.00001 15.2857L7.28572 16C7.20682 16.0789 7.07891 16.0789 7.00001 16C6.92111 15.9211 6.92111 15.7932 7.00001 15.7143L7.71429 15L7.00001 14.2857C6.92111 14.2068 6.92111 14.0789 7.00001 14C7.07891 13.9211 7.20682 13.9211 7.28572 14L8.00001 14.7143L8.7143 14Z" fill="black"/>
<path fill-rule="evenodd" clip-rule="evenodd" d="M13.7143 14C13.7932 13.9211 13.9211 13.9211 14 14C14.0789 14.0789 14.0789 14.2068 14 14.2857L13.2857 15L14 15.7143C14.0789 15.7932 14.0789 15.9211 14 16C13.9211 16.0789 13.7932 16.0789 13.7143 16L13 15.2857L12.2857 16C12.2068 16.0789 12.0789 16.0789 12 16C11.9211 15.9211 11.9211 15.7932 12 15.7143L12.7143 15L12 14.2857C11.9211 14.2068 11.9211 14.0789 12 14C12.0789 13.9211 12.2068 13.9211 12.2857 14L13 14.7143L13.7143 14Z" fill="black"/>
<path fill-rule="evenodd" clip-rule="evenodd" d="M18.7143 14C18.7932 13.9211 18.9211 13.9211 19 14C19.0789 14.0789 19.0789 14.2068 19 14.2857L18.2857 15L19 15.7143C19.0789 15.7932 19.0789 15.9211 19 16C18.9211 16.0789 18.7932 16.0789 18.7143 16L18 15.2857L17.2857 16C17.2068 16.0789 17.0789 16.0789 17 16C16.9211 15.9211 16.9211 15.7932 17 15.7143L17.7143 15L17 14.2857C16.9211 14.2068 16.9211 14.0789 17 14C17.0789 13.9211 17.2068 13.9211 17.2857 14L18 14.7143L18.7143 14Z" fill="black"/>
<path fill-rule="evenodd" clip-rule="evenodd" d="M23.7143 14C23.7932 13.9211 23.9211 13.9211 24 14C24.0789 14.0789 24.0789 14.2068 24 14.2857L23.2857 15L24 15.7143C24.0789 15.7932 24.0789 15.9211 24 16C23.9211 16.0789 23.7932 16.0789 23.7143 16L23 15.2857L22.2857 16C22.2068 16.0789 22.0789 16.0789 22 16C21.9211 15.9211 21.9211 15.7932 22 15.7143L22.7143 15L22 14.2857C21.9211 14.2068 21.9211 14.0789 22 14C22.0789 13.9211 22.2068 13.9211 22.2857 14L23 14.7143L23.7143 14Z" fill="black"/>
<path fill-rule="evenodd" clip-rule="evenodd" d="M8.7143 18C8.79319 17.9211 8.92111 17.9211 9.00001 18C9.07891 18.0789 9.07891 18.2068 9.00001 18.2857L8.28572 19L9.00001 19.7143C9.07891 19.7932 9.07891 19.9211 9.00001 20C8.92111 20.0789 8.7932 20.0789 8.7143 20L8.00001 19.2857L7.28572 20C7.20682 20.0789 7.07891 20.0789 7.00001 20C6.92111 19.9211 6.92111 19.7932 7.00001 19.7143L7.71429 19L7.00001 18.2857C6.92111 18.2068 6.92111 18.0789 7.00001 18C7.07891 17.9211 7.20682 17.9211 7.28572 18L8.00001 18.7143L8.7143 18Z" fill="black"/>
<path fill-rule="evenodd" clip-rule="evenodd" d="M13.7143 18C13.7932 17.9211 13.9211 17.9211 14 18C14.0789 18.0789 14.0789 18.2068 14 18.2857L13.2857 19L14 19.7143C14.0789 19.7932 14.0789 19.9211 14 20C13.9211 20.0789 13.7932 20.0789 13.7143 20L13 19.2857L12.2857 20C12.2068 20.0789 12.0789 20.0789 12 20C11.9211 19.9211 11.9211 19.7932 12 19.7143L12.7143 19L12 18.2857C11.9211 18.2068 11.9211 18.0789 12 18C12.0789 17.9211 12.2068 17.9211 12.2857 18L13 18.7143L13.7143 18Z" fill="black"/>
<path fill-rule="evenodd" clip-rule="evenodd" d="M18.7143 18C18.7932 17.9211 18.9211 17.9211 19 18C19.0789 18.0789 19.0789 18.2068 19 18.2857L18.2857 19L19 19.7143C19.0789 19.7932 19.0789 19.9211 19 20C18.9211 20.0789 18.7932 20.0789 18.7143 20L18 19.2857L17.2857 20C17.2068 20.0789 17.0789 20.0789 17 20C16.9211 19.9211 16.9211 19.7932 17 19.7143L17.7143 19L17 18.2857C16.9211 18.2068 16.9211 18.0789 17 18C17.0789 17.9211 17.2068 17.9211 17.2857 18L18 18.7143L18.7143 18Z" fill="black"/>
</svg>
