<svg width="62" height="52" viewBox="0 0 62 52" fill="none" xmlns="http://www.w3.org/2000/svg">
<path fill-rule="evenodd" clip-rule="evenodd" d="M35.1477 2.39121C33.1843 -0.797074 28.5494 -0.79707 26.586 2.39122L0.754609 44.3361C-1.30825 47.6858 1.10159 52 5.03551 52H56.6982C60.6321 52 63.0419 47.6858 60.9791 44.3361L35.1477 2.39121ZM28.8558 14.5447C28.8558 13.434 29.7562 12.5336 30.8668 12.5336C31.9775 12.5336 32.8779 13.434 32.8779 14.5447V33.6494C32.8779 34.7601 31.9775 35.6604 30.8668 35.6604C29.7562 35.6604 28.8558 34.76 28.8558 33.6494V14.5447ZM33.8834 42.699C33.8834 44.365 32.5328 45.7155 30.8668 45.7155C29.2009 45.7155 27.8503 44.365 27.8503 42.699C27.8503 41.033 29.2009 39.6825 30.8668 39.6825C32.5328 39.6825 33.8834 41.033 33.8834 42.699Z" fill="#C4C4C4"/>
</svg>
