<svg width="30" height="30" viewBox="0 0 30 30" fill="none" xmlns="http://www.w3.org/2000/svg">
<rect width="30" height="30" fill="white"/>
<path d="M23.0968 25.9997L20.1393 15.6695C21.7188 14.2562 22.7188 12.2083 22.7188 9.92188C22.7188 5.65893 19.263 2.20312 15 2.20312C10.7371 2.20312 7.28127 5.65893 7.28127 9.92188C7.28127 12.2013 8.27524 14.2435 9.84641 15.6565L6.90317 25.9366C6.85637 26.0993 6.91548 26.2734 7.05117 26.3742C7.18604 26.4754 7.37093 26.4817 7.51255 26.3905L10.2254 24.6528L11.7064 27.5148C11.7766 27.6505 11.9163 27.7342 12.067 27.7342C12.0813 27.7342 12.0959 27.7334 12.1106 27.7318C12.2777 27.714 12.4161 27.595 12.4594 27.4331L14.9916 17.9817L17.5407 27.4958C17.5839 27.6577 17.7223 27.7766 17.8894 27.7945C17.9041 27.7961 17.9187 27.7969 17.933 27.7969C18.0838 27.7969 18.2234 27.7132 18.2936 27.5775L19.7746 24.7163L22.4874 26.4536C22.6295 26.5448 22.8136 26.5385 22.9493 26.4373C23.0846 26.3365 23.1437 26.1624 23.0968 25.9997ZM8.09377 9.92188C8.09377 6.11377 11.1919 3.01562 15 3.01562C18.8081 3.01562 21.9063 6.11377 21.9063 9.92188C21.9063 13.73 18.8081 16.8281 15 16.8281C11.1919 16.8281 8.09377 13.73 8.09377 9.92188ZM11.946 26.21L10.7419 23.8835C10.6895 23.7824 10.5967 23.7074 10.4864 23.6781C10.3765 23.6487 10.2583 23.6666 10.1623 23.7284L7.9803 25.1261L10.533 16.2092C11.6034 16.9711 12.8728 17.4702 14.252 17.6029L11.946 26.21ZM19.8377 23.7919C19.7417 23.73 19.6235 23.7126 19.5136 23.7415C19.4033 23.7709 19.3105 23.8459 19.2581 23.947L18.054 26.2731L15.7313 17.6037C17.1103 17.474 18.3807 16.9792 19.4522 16.2203L22.0197 25.1892L19.8377 23.7919Z" fill="black"/>
<path d="M15 14.7969C17.6924 14.7969 19.875 12.6143 19.875 9.92188C19.875 7.22949 17.6924 5.04688 15 5.04688C12.3076 5.04688 10.125 7.22949 10.125 9.92188C10.125 12.6143 12.3076 14.7969 15 14.7969ZM15 5.85938C17.2401 5.85938 19.0625 7.68181 19.0625 9.92188C19.0625 12.162 17.2401 13.9844 15 13.9844C12.7599 13.9844 10.9375 12.162 10.9375 9.92188C10.9375 7.68181 12.7599 5.85938 15 5.85938Z" fill="black"/>
</svg>
