<svg width="30" height="30" viewBox="0 0 30 30" fill="none" xmlns="http://www.w3.org/2000/svg">
<rect width="30" height="30" fill="white"/>
<rect x="1" y="1" width="29" height="29" rx="6.5" fill="white"/>
<mask id="mask0" mask-type="alpha" maskUnits="userSpaceOnUse" x="1" y="1" width="29" height="29">
<rect x="1" y="1" width="29" height="29" rx="6.5" fill="white"/>
</mask>
<g mask="url(#mask0)">
<path d="M25.9219 25.4688H24.5625V18.6719C24.5625 18.4218 24.3595 18.2188 24.1094 18.2188C23.8592 18.2188 23.6562 18.4218 23.6562 18.6719V25.4688H20.9375V15.0469C20.9375 14.7968 20.7345 14.5938 20.4844 14.5938H10.5156C10.2655 14.5938 10.0625 14.7968 10.0625 15.0469V25.4688H7.34375V18.6719C7.34375 18.4218 7.14075 18.2188 6.89062 18.2188C6.6405 18.2188 6.4375 18.4218 6.4375 18.6719V25.4688H5.07812C4.828 25.4688 4.625 25.6718 4.625 25.9219C4.625 26.172 4.828 26.375 5.07812 26.375H25.9219C26.172 26.375 26.375 26.172 26.375 25.9219C26.375 25.6718 26.172 25.4688 25.9219 25.4688ZM20.0312 20.0312H10.9688V18.2188H20.0312V20.0312ZM10.9688 20.9375H20.0312V22.75H10.9688V20.9375ZM20.0312 15.5V17.3125H10.9688V15.5H20.0312ZM10.9688 25.4688V23.6562H20.0312V25.4688H10.9688Z" fill="black"/>
<path d="M6.89062 16.4062C7.14075 16.4062 7.34375 16.2032 7.34375 15.9531V10.7653L15.5 5.61372L23.6562 10.7653V15.9531C23.6562 16.2032 23.8592 16.4062 24.1094 16.4062C24.3595 16.4062 24.5625 16.2032 24.5625 15.9531V10.5156C24.5625 10.3602 24.4827 10.2157 24.3513 10.1323L15.742 4.69478C15.5942 4.60144 15.4058 4.60144 15.258 4.69478L6.64866 10.1323C6.51725 10.2157 6.4375 10.3602 6.4375 10.5156V15.9531C6.4375 16.2032 6.6405 16.4062 6.89062 16.4062Z" fill="black"/>
<path d="M13.2344 10.5156C13.2344 11.7649 14.2507 12.7812 15.5 12.7812C16.7493 12.7812 17.7656 11.7649 17.7656 10.5156C17.7656 9.26636 16.7493 8.25 15.5 8.25C14.2507 8.25 13.2344 9.26636 13.2344 10.5156ZM16.8594 10.5156C16.8594 11.2651 16.2495 11.875 15.5 11.875C14.7505 11.875 14.1406 11.2651 14.1406 10.5156C14.1406 9.76616 14.7505 9.15625 15.5 9.15625C16.2495 9.15625 16.8594 9.76616 16.8594 10.5156Z" fill="black"/>
<path d="M24.1094 17.7656C24.3596 17.7656 24.5625 17.5628 24.5625 17.3125C24.5625 17.0622 24.3596 16.8594 24.1094 16.8594C23.8591 16.8594 23.6562 17.0622 23.6562 17.3125C23.6562 17.5628 23.8591 17.7656 24.1094 17.7656Z" fill="black"/>
<path d="M6.89062 17.7656C7.14088 17.7656 7.34375 17.5628 7.34375 17.3125C7.34375 17.0622 7.14088 16.8594 6.89062 16.8594C6.64037 16.8594 6.4375 17.0622 6.4375 17.3125C6.4375 17.5628 6.64037 17.7656 6.89062 17.7656Z" fill="black"/>
</g>
</svg>
