<svg width="30" height="30" viewBox="0 0 30 30" fill="none" xmlns="http://www.w3.org/2000/svg">
<rect width="30" height="30" fill="white"/>
<g clip-path="url(#clip0)">
<path d="M15.3613 7.35098C15.1506 7.35098 14.9799 7.1802 14.9799 6.96956V5.59282C14.9799 5.38217 15.1506 5.2114 15.3613 5.2114C15.572 5.2114 15.7428 5.38217 15.7428 5.59282V6.96956C15.7428 7.1802 15.572 7.35098 15.3613 7.35098Z" fill="black"/>
<path d="M15.3613 24.7886C15.1506 24.7886 14.9799 24.6178 14.9799 24.4072V23.0304C14.9799 22.8198 15.1506 22.649 15.3613 22.649C15.572 22.649 15.7428 22.8198 15.7428 23.0304V24.4072C15.7428 24.6178 15.572 24.7886 15.3613 24.7886Z" fill="black"/>
<path d="M11.3464 8.42696C11.2146 8.42696 11.0864 8.35855 11.0157 8.23619L10.3274 7.04391C10.2221 6.86149 10.2846 6.62821 10.467 6.52288C10.6494 6.41756 10.8828 6.48001 10.988 6.66249L11.6764 7.85477C11.7817 8.03719 11.7192 8.27047 11.5368 8.37579C11.4768 8.41048 11.4112 8.42696 11.3464 8.42696Z" fill="black"/>
<path d="M20.0653 23.5283C19.9334 23.5283 19.8052 23.4599 19.7346 23.3376L19.0463 22.1453C18.9409 21.9629 19.0034 21.7296 19.1859 21.6243C19.3682 21.5189 19.6016 21.5814 19.7069 21.7639L20.3952 22.9562C20.5005 23.1386 20.438 23.3719 20.2556 23.4772C20.1956 23.5119 20.13 23.5283 20.0653 23.5283Z" fill="black"/>
<path d="M8.40639 11.3663C8.34171 11.3663 8.27605 11.3498 8.21604 11.3151L7.02381 10.6267C6.84139 10.5214 6.77889 10.2881 6.88421 10.1057C6.98948 9.92324 7.22281 9.86074 7.40523 9.96611L8.59746 10.6545C8.77988 10.7598 8.84239 10.9931 8.73706 11.1755C8.66642 11.2979 8.53821 11.3663 8.40639 11.3663Z" fill="black"/>
<path d="M23.5078 20.0851C23.4431 20.0851 23.3775 20.0686 23.3174 20.0339L22.1252 19.3455C21.9428 19.2402 21.8803 19.0069 21.9856 18.8245C22.0908 18.642 22.3242 18.5795 22.5066 18.6849L23.6989 19.3733C23.8813 19.4786 23.9438 19.7119 23.8385 19.8943C23.7678 20.0167 23.6396 20.0851 23.5078 20.0851Z" fill="black"/>
<path d="M7.33088 15.3814H5.95415C5.74345 15.3814 5.57272 15.2107 5.57272 15C5.57272 14.7894 5.74345 14.6186 5.95415 14.6186H7.33088C7.54158 14.6186 7.71231 14.7894 7.71231 15C7.71231 15.2107 7.54158 15.3814 7.33088 15.3814Z" fill="black"/>
<path d="M24.7685 15.3814H23.3917C23.181 15.3814 23.0103 15.2107 23.0103 15C23.0103 14.7894 23.181 14.6186 23.3917 14.6186H24.7685C24.9792 14.6186 25.1499 14.7894 25.1499 15C25.1499 15.2107 24.9792 15.3814 24.7685 15.3814Z" fill="black"/>
<path d="M7.21483 20.0851C7.08301 20.0851 6.95485 20.0167 6.88416 19.8943C6.77884 19.7119 6.84134 19.4786 7.02377 19.3733L8.216 18.6849C8.39832 18.5796 8.6317 18.6421 8.73702 18.8245C8.84235 19.0069 8.77984 19.2402 8.59742 19.3455L7.40519 20.0339C7.34518 20.0686 7.27957 20.0851 7.21483 20.0851Z" fill="black"/>
<path d="M22.3162 11.3663C22.1844 11.3663 22.0562 11.2979 21.9856 11.1755C21.8802 10.9931 21.9427 10.7598 22.1252 10.6545L23.3174 9.96611C23.4997 9.86084 23.733 9.92324 23.8384 10.1057C23.9437 10.2881 23.8812 10.5214 23.6988 10.6267L22.5066 11.3151C22.4466 11.3498 22.381 11.3663 22.3162 11.3663Z" fill="black"/>
<path d="M10.6574 23.5283C10.5927 23.5283 10.5271 23.5119 10.467 23.4772C10.2846 23.3719 10.2221 23.1386 10.3274 22.9562L11.0157 21.7639C11.121 21.5815 11.3542 21.5189 11.5368 21.6243C11.7192 21.7296 11.7817 21.9629 11.6764 22.1453L10.988 23.3376C10.9174 23.4599 10.7892 23.5283 10.6574 23.5283Z" fill="black"/>
<path d="M19.3762 8.42695C19.3115 8.42695 19.2459 8.41047 19.1859 8.37579C19.0034 8.27046 18.9409 8.03718 19.0463 7.85476L19.7346 6.66248C19.8399 6.48006 20.0731 6.41751 20.2556 6.52288C20.438 6.6282 20.5005 6.86148 20.3952 7.04391L19.7069 8.23618C19.6362 8.35849 19.508 8.42695 19.3762 8.42695Z" fill="black"/>
<path d="M13.3865 11.5418C14.3491 11.5418 15.2453 12.1724 15.2453 13.2263C15.2453 15.0186 12.6148 15.5994 12.6148 16.4624V16.6616H14.9216C15.1042 16.6616 15.2618 16.8773 15.2618 17.1262C15.2618 17.3752 15.1041 17.6075 14.9216 17.6075H11.9676C11.7767 17.6075 11.4946 17.4748 11.4946 17.2673V16.4624C11.4946 15.1348 14.1665 14.4294 14.1665 13.2595C14.1665 12.9193 13.9424 12.521 13.3948 12.521C12.9882 12.521 12.6563 12.7367 12.6563 13.2512C12.6563 13.4503 12.4488 13.6495 12.092 13.6495C11.8099 13.6495 11.6024 13.5168 11.6024 13.0687C11.6024 12.1226 12.4655 11.5418 13.3865 11.5418Z" fill="black"/>
<path d="M17.6349 16.2882H15.6434C15.436 16.2882 15.2783 16.1471 15.2783 15.9065C15.2783 15.8402 15.2949 15.7654 15.3364 15.6908L17.303 11.824C17.4026 11.6165 17.5851 11.5419 17.7594 11.5419C17.9503 11.5419 18.2988 11.7078 18.2988 11.9567C18.2988 11.9982 18.2822 12.048 18.2573 12.0978L16.6641 15.2841H17.635V14.4129C17.635 14.1722 17.9088 14.0726 18.1743 14.0726C18.4482 14.0726 18.7136 14.1722 18.7136 14.4129V15.2841H19.1037C19.3277 15.2841 19.4438 15.5331 19.4438 15.7903C19.4438 16.0393 19.2778 16.2882 19.1037 16.2882H18.7136V17.2673C18.7136 17.4914 18.4481 17.6075 18.1743 17.6075C17.9087 17.6075 17.635 17.4914 17.635 17.2673V16.2882H17.6349Z" fill="black"/>
<path d="M27.3847 18.86C27.1864 18.7895 26.9682 18.8934 26.8977 19.0919C26.0605 21.4523 24.5378 23.4761 22.4942 24.9445C20.4069 26.4444 17.9404 27.2371 15.3613 27.2371C12.0927 27.2371 9.01968 25.9643 6.70835 23.653C4.39702 21.3417 3.12413 18.2687 3.12413 15C3.12413 11.7313 4.39707 8.65829 6.70835 6.34701C9.01963 4.03574 12.0926 2.76285 15.3613 2.76285C17.5486 2.76285 19.6949 3.34673 21.5682 4.45144C23.2418 5.43836 24.6612 6.81591 25.7005 8.45349L25.1328 8.22326C24.9377 8.14408 24.7152 8.23816 24.636 8.43335C24.5568 8.62854 24.6509 8.85099 24.8461 8.93017L26.5527 9.62233C26.5989 9.64104 26.6475 9.6503 26.696 9.6503C26.7638 9.6503 26.8313 9.63224 26.8911 9.59664C26.9938 9.53556 27.0617 9.42999 27.0751 9.31139L27.2834 7.45258C27.3069 7.24326 27.1562 7.05453 26.9469 7.03103C26.7383 7.00728 26.5489 7.15823 26.5254 7.3676L26.4336 8.18593C25.3225 6.38449 23.7811 4.8709 21.9557 3.79442C19.9651 2.62045 17.6848 2 15.3613 2C11.8889 2 8.62432 3.35222 6.16897 5.80763C3.71356 8.26298 2.36134 11.5276 2.36134 15C2.36134 18.4724 3.71356 21.737 6.16897 24.1924C8.62432 26.6477 11.889 28 15.3613 28C18.1011 28 20.7216 27.1577 22.9393 25.5641C25.1098 24.0045 26.7272 21.8546 27.6167 19.347C27.6871 19.1484 27.5832 18.9304 27.3847 18.86Z" fill="black"/>
<path d="M15.3613 25.947C12.4373 25.947 9.68825 24.8083 7.62062 22.7407C5.55305 20.6731 4.41432 17.9241 4.41432 15C4.41432 12.5328 5.21557 10.2036 6.73145 8.26415C6.73277 8.26247 6.73409 8.2608 6.73547 8.25912L6.95537 7.98734C7.0878 7.82363 7.32794 7.7982 7.4918 7.93074C7.65556 8.06322 7.68089 8.30341 7.54836 8.46717L7.33044 8.73651C5.92181 10.54 5.17717 12.7059 5.17717 15C5.17717 20.6155 9.74577 25.1841 15.3613 25.1841C17.4201 25.1841 19.4034 24.573 21.0966 23.4169C22.7497 22.2882 24.0245 20.717 24.7833 18.8729C24.8325 18.7478 24.9145 18.5378 24.9288 18.4979C25.0001 18.2997 25.2187 18.1967 25.4167 18.268C25.615 18.3392 25.718 18.5577 25.6467 18.756C25.6242 18.8185 25.514 19.0992 25.4922 19.1548C25.4914 19.1567 25.4907 19.1585 25.4899 19.1603C24.6744 21.1437 23.304 22.8334 21.5267 24.0469C19.7062 25.29 17.5742 25.947 15.3613 25.947Z" fill="black"/>
<path d="M25.7441 17.3512C25.7206 17.3512 25.6968 17.349 25.673 17.3445C25.466 17.3055 25.3298 17.1061 25.3688 16.899C25.4861 16.2772 25.5456 15.6383 25.5456 15C25.5456 9.38447 20.977 4.81587 15.3614 4.81587C12.9346 4.81587 10.5842 5.68364 8.74312 7.25927C8.58297 7.39623 8.34222 7.37747 8.20531 7.21747C8.06835 7.05743 8.08707 6.81667 8.24706 6.67966C10.2262 4.98583 12.7529 4.05302 15.3614 4.05302C18.2854 4.05302 21.0345 5.1917 23.1021 7.25933C25.1697 9.32695 26.3084 12.0759 26.3084 15C26.3084 15.6856 26.2445 16.3721 26.1185 17.0404C26.0839 17.2235 25.9238 17.3512 25.7441 17.3512Z" fill="black"/>
</g>
<defs>
<clipPath id="clip0">
<rect x="2" y="2" width="26" height="26" fill="white"/>
</clipPath>
</defs>
</svg>
