<svg width="30" height="30" viewBox="0 0 30 30" fill="none" xmlns="http://www.w3.org/2000/svg">
<rect width="30" height="30" fill="white"/>
<path d="M27.5938 22.7188C27.8181 22.7188 28 22.9007 28 23.125C28 23.3493 27.8181 23.5312 27.5938 23.5312H21.9062V25.9688H27.5938C27.8181 25.9688 28 26.1507 28 26.375C28 26.5993 27.8181 26.7812 27.5938 26.7812H25.1562V27.543C25.1562 27.7673 24.9744 27.9492 24.75 27.9492C24.5256 27.9492 24.3438 27.7673 24.3438 27.543V26.7812H18.6562V27.543C18.6562 27.7673 18.4744 27.9492 18.25 27.9492C18.0256 27.9492 17.8438 27.7673 17.8438 27.543V26.7812H12.1562V27.543C12.1562 27.7673 11.9744 27.9492 11.75 27.9492C11.5256 27.9492 11.3438 27.7673 11.3438 27.543V26.7812H5.65625V27.543C5.65625 27.7673 5.47436 27.9492 5.25 27.9492C5.02564 27.9492 4.84375 27.7673 4.84375 27.543V26.7812H2.40625C2.1819 26.7812 2 26.5993 2 26.375C2 26.1507 2.1819 25.9688 2.40625 25.9688H8.09375V23.5312H2.40625C2.1819 23.5312 2 23.3493 2 23.125C2 22.9007 2.1819 22.7188 2.40625 22.7188H4.84375V20.2812H2.40625C2.1819 20.2812 2 20.0993 2 19.875C2 19.6507 2.1819 19.4688 2.40625 19.4688H8.09375V17.0312H2.40625C2.1819 17.0312 2 16.8493 2 16.625C2 16.4007 2.1819 16.2188 2.40625 16.2188H4.84375V13.7812H2.40625C2.1819 13.7812 2 13.5993 2 13.375C2 13.1507 2.1819 12.9688 2.40625 12.9688H8.09375V10.5312H2.40625C2.1819 10.5312 2 10.3493 2 10.125C2 9.90065 2.1819 9.71875 2.40625 9.71875H4.84375V7.28125H2.40625C2.1819 7.28125 2 7.09935 2 6.875C2 6.65065 2.1819 6.46875 2.40625 6.46875H8.09375V4.03125H2.40625C2.1819 4.03125 2 3.84935 2 3.625C2 3.40065 2.1819 3.21875 2.40625 3.21875H4.84375V2.40625C4.84375 2.18189 5.02564 2 5.25 2C5.47436 2 5.65625 2.18189 5.65625 2.40625V3.21875H11.3438V2.40625C11.3438 2.18189 11.5256 2 11.75 2C11.9744 2 12.1562 2.18189 12.1562 2.40625V3.21875H17.8438V2.40625C17.8438 2.18189 18.0256 2 18.25 2C18.4744 2 18.6562 2.18189 18.6562 2.40625V3.21875H24.3438V2.40625C24.3438 2.18189 24.5256 2 24.75 2C24.9744 2 25.1562 2.18189 25.1562 2.40625V3.21875H27.5938C27.8181 3.21875 28 3.40065 28 3.625C28 3.84935 27.8181 4.03125 27.5938 4.03125H21.9062V6.46875H27.5938C27.8181 6.46875 28 6.65065 28 6.875C28 7.09935 27.8181 7.28125 27.5938 7.28125H25.1562V9.71875H27.5938C27.8181 9.71875 28 9.90065 28 10.125C28 10.3493 27.8181 10.5312 27.5938 10.5312H21.9062V12.9688H27.5938C27.8181 12.9688 28 13.1507 28 13.375C28 13.5993 27.8181 13.7812 27.5938 13.7812H25.1562V16.2188H27.5938C27.8181 16.2188 28 16.4007 28 16.625C28 16.8493 27.8181 17.0312 27.5938 17.0312H21.9062V19.4688H27.5938C27.8181 19.4688 28 19.6507 28 19.875C28 20.0993 27.8181 20.2812 27.5938 20.2812H25.1562V22.7188H27.5938ZM21.0938 23.5312H15.4062V25.9688H21.0938V23.5312ZM12.1562 20.2812V22.7188H17.8438V20.2812H12.1562ZM8.90625 25.9688H14.5938V23.5312H8.90625V25.9688ZM5.65625 22.7188H11.3438V20.2812H5.65625V22.7188ZM8.90625 19.4688H14.5938V17.0312H8.90625V19.4688ZM12.1562 13.7812V16.2188H17.8438V13.7812H12.1562ZM5.65625 16.2188H11.3438V13.7812H5.65625V16.2188ZM8.90625 12.9688H14.5938V10.5312H8.90625V12.9688ZM12.1562 7.28125V9.71875H17.8438V7.28125H12.1562ZM5.65625 9.71875H11.3438V7.28125H5.65625V9.71875ZM8.90625 6.46875H14.5938V4.03125H8.90625V6.46875ZM21.0938 4.03125H15.4062V6.46875H21.0938V4.03125ZM24.3438 7.28125H18.6562V9.71875H24.3438V7.28125ZM21.0938 10.5312H15.4062V12.9688H21.0938V10.5312ZM24.3438 13.7812H18.6562V16.2188H24.3438V13.7812ZM21.0938 17.0312H15.4062V19.4688H21.0938V17.0312ZM24.3438 20.2812H18.6562V22.7188H24.3438V20.2812Z" fill="black"/>
</svg>
