<svg width="30" height="30" viewBox="0 0 30 30" fill="none" xmlns="http://www.w3.org/2000/svg">
<path fill-rule="evenodd" clip-rule="evenodd" d="M10 18H13C13.55 18 14 18.45 14 19C14 19.55 13.55 20 13 20H10C7.24 20 5 17.76 5 15C5 12.24 7.24 10 10 10H13C13.55 10 14 10.45 14 11C14 11.55 13.55 12 13 12H10C8.35 12 7 13.35 7 15C7 16.65 8.35 18 10 18ZM20 10H17C16.45 10 16 10.45 16 11C16 11.55 16.45 12 17 12H20C21.65 12 23 13.35 23 15C23 16.65 21.65 18 20 18H17C16.45 18 16 18.45 16 19C16 19.55 16.45 20 17 20H20C22.76 20 25 17.76 25 15C25 12.24 22.76 10 20 10ZM11 15C11 15.55 11.45 16 12 16H18C18.55 16 19 15.55 19 15C19 14.45 18.55 14 18 14H12C11.45 14 11 14.45 11 15Z" fill="#333333"/>
</svg>
