<svg width="30" height="30" viewBox="0 0 30 30" fill="none" xmlns="http://www.w3.org/2000/svg">
<path d="M24 14.2813C24 18.8546 20.2637 22.5621 15.6538 22.5621C14.1909 22.5621 12.8167 22.1879 11.6204 21.5327L7 23L8.50615 18.5558C7.7467 17.3086 7.30932 15.844 7.30932 14.2808C7.30988 9.70744 11.045 6 15.6549 6C20.2643 6.00111 24 9.70799 24 14.2813ZM15.6533 7.32044C11.7845 7.32044 8.63753 10.4436 8.63753 14.283C8.63753 15.8063 9.13422 17.2166 9.97404 18.364L9.09818 20.9489L11.7934 20.0925C12.9021 20.8198 14.2286 21.2433 15.6533 21.2433C19.522 21.2433 22.6701 18.1207 22.6701 14.2813C22.6712 10.4436 19.5226 7.32044 15.6533 7.32044ZM19.8685 16.1888C19.8164 16.1051 19.68 16.0541 19.476 15.9521C19.2726 15.8501 18.2653 15.3595 18.0785 15.293C17.89 15.2248 17.7537 15.1904 17.6173 15.3939C17.4826 15.5973 17.0901 16.0541 16.9698 16.1905C16.8506 16.3263 16.7315 16.3435 16.5269 16.2431C16.3224 16.14 15.6627 15.9272 14.8811 15.2359C14.273 14.6971 13.8622 14.0335 13.7436 13.8301C13.6233 13.6272 13.7314 13.5174 13.8328 13.4165C13.9243 13.3251 14.0374 13.1793 14.1399 13.0601C14.2425 12.942 14.2763 12.8583 14.3445 12.7225C14.4116 12.5867 14.3777 12.4686 14.3273 12.3661C14.2763 12.2641 13.8677 11.2663 13.6965 10.8599C13.5263 10.4541 13.3561 10.5212 13.2364 10.5212C13.1172 10.5212 12.9808 10.5046 12.8444 10.5046C12.7081 10.5046 12.4863 10.5539 12.2995 10.7574C12.1127 10.9608 11.5838 11.4514 11.5838 12.4503C11.5838 13.4503 12.3161 14.4144 12.4187 14.5496C12.5218 14.6843 13.8345 16.8013 15.9138 17.614C17.9943 18.4261 17.9943 18.1551 18.369 18.1207C18.7448 18.0863 19.5797 17.6301 19.7493 17.1567C19.92 16.6811 19.92 16.2736 19.8685 16.1888Z" fill="#333333"/>
</svg>
