<svg width="24" height="24" viewBox="0 0 24 24" fill="none" xmlns="http://www.w3.org/2000/svg">
<path d="M4.58 16.0303L6.58 14.4403C7.06 14.0603 7.34 13.4803 7.34 12.8703V10.2703C10.36 9.29034 13.63 9.28034 16.66 10.2703V12.8803C16.66 13.4903 16.94 14.0703 17.42 14.4503L19.41 16.0303C20.21 16.6603 21.35 16.6003 22.07 15.8803L23.29 14.6603C24.09 13.8603 24.09 12.5303 23.24 11.7803C16.83 6.12035 7.17 6.12035 0.76 11.7803C-0.09 12.5303 -0.09 13.8603 0.71 14.6603L1.93 15.8803C2.64 16.6003 3.78 16.6603 4.58 16.0303Z" fill="#333333"/>
</svg>
